<?xml version="1.0" standalone="no"?>
<!DOCTYPE svg PUBLIC "-//W3C//DTD SVG 1.1//EN" "http://www.w3.org/Graphics/SVG/1.1/DTD/svg11.dtd" >
<svg xmlns="http://www.w3.org/2000/svg" xmlns:xlink="http://www.w3.org/1999/xlink" version="1.1">
<metadata></metadata>
<defs>
<font id="sangbleu_serifhairline" horiz-adv-x="1839" >
<font-face units-per-em="2048" ascent="1483" descent="-565" />
<missing-glyph horiz-adv-x="430" />
<glyph unicode="&#xfb01;" horiz-adv-x="991" d="M72 969v16h161v68q0 58 0.5 89t3 86.5t8 88t16.5 79t26 74.5t39 60t54.5 49t72 29t92.5 12q113 0 196 -68q50 -40 50 -73q0 -13 -8.5 -22t-20.5 -9t-19.5 7t-9.5 14.5t-4.5 23t-3.5 20.5q-11 42 -61 68.5t-121 26.5q-60 0 -105.5 -18.5t-75.5 -43.5t-50.5 -75.5 t-31 -89.5t-16 -112.5t-6 -116.5t-0.5 -128v-39h514v-928q0 -32 12.5 -39.5t63.5 -7.5h10v-10h-196v10h10q51 0 63.5 7.5t12.5 39.5v912h-490v-912q0 -32 12.5 -39.5t63.5 -7.5h31v-10h-218v10h11q51 0 63 7.5t12 39.5v912h-161z" />
<glyph unicode="&#xfb02;" horiz-adv-x="995" d="M72 969v16h161v68q0 53 0.5 88.5t4 87.5t9.5 87.5t17.5 79.5t27.5 73.5t40.5 60.5t55.5 49t73.5 29.5t93.5 11.5q134 0 221 -70v-1493q0 -32 12.5 -39.5t63.5 -7.5h10v-10h-196v10h10q51 0 63.5 7.5t12.5 39.5v1428q0 58 -53.5 90.5t-145.5 32.5q-70 0 -121.5 -20.5 t-83 -66t-50.5 -91.5t-27.5 -123.5t-10.5 -133.5t-2 -149v-39h338v-16h-338v-912q0 -32 12.5 -39.5t63.5 -7.5h31v-10h-218v10h11q51 0 63 7.5t12 39.5v912h-161z" />
<glyph horiz-adv-x="0" />
<glyph horiz-adv-x="682" />
<glyph unicode="&#xd;" horiz-adv-x="430" />
<glyph unicode=" "  horiz-adv-x="430" />
<glyph unicode="&#x09;" horiz-adv-x="430" />
<glyph unicode="&#xa0;" horiz-adv-x="430" />
<glyph unicode="!" horiz-adv-x="440" d="M180 18q0 17 11 29t28 12q18 0 29.5 -11.5t11.5 -29.5q0 -16 -11.5 -27t-29.5 -11q-17 0 -28 11.5t-11 26.5zM197 1612h30l-12 -1260h-6z" />
<glyph unicode="&#x22;" horiz-adv-x="585" d="M102 1612h27l-10 -451h-8zM416 1612h26l-10 -451h-8z" />
<glyph unicode="#" horiz-adv-x="1736" d="M-18 451l6 20h372l289 629h-377l7 20h378l226 492h26l-225 -492h688l225 492h27l-225 -492h366l-6 -20h-368l-289 -629h393l-6 -20h-395l-207 -451h-27l207 451h-688l-207 -451h-27l207 451h-370zM387 471h688l289 629h-688z" />
<glyph unicode="$" horiz-adv-x="1163" d="M143 221h11q9 -51 28 -88q46 -77 153.5 -109t223.5 -32v803l-49 16q-166 54 -252 139.5t-86 233.5q0 157 104.5 243t282.5 86v164h25v-164q213 -5 352 -112l18 -121h-10q-1 3 -5.5 21.5t-7 25.5l-7.5 21t-10.5 23.5t-12.5 17.5q-49 57 -137 83.5t-180 28.5v-688l34 -10 q68 -22 122 -45t108.5 -59.5t90.5 -79t58.5 -104t22.5 -134.5q0 -182 -112 -288.5t-324 -112.5v-160h-25v160q-122 0 -216 26t-183 94zM199 1186q0 -137 81.5 -218.5t260.5 -140.5l18 -6v680q-165 -2 -262.5 -83t-97.5 -232zM584 -8q183 6 296 102t113 271q0 73 -18.5 130.5 t-50 99.5t-84 77t-110 60t-138.5 52l-8 2v-794z" />
<glyph unicode="%" horiz-adv-x="1679" d="M123 1143q0 167 81.5 268.5t213.5 101.5t213.5 -101.5t81.5 -268.5t-81.5 -269t-213.5 -102t-213.5 102t-81.5 269zM152 1143q0 -178 77 -268.5t189 -90.5t189 90.5t77 268.5t-77 268t-189 90t-189 -90t-77 -268zM377 0l911 1495h29l-911 -1495h-29zM967 350 q0 167 81.5 269t213.5 102t213 -102t81 -269t-81 -268.5t-213 -101.5t-213.5 101.5t-81.5 268.5zM995 350q0 -91 22 -161.5t60 -112.5t85 -63t100 -21q112 0 189 90t77 268t-77 268.5t-189 90.5t-189.5 -90.5t-77.5 -268.5z" />
<glyph unicode="&#x26;" horiz-adv-x="1644" d="M82 412q0 196 134.5 334t399.5 198q-246 -64 -375.5 -199.5t-129.5 -322.5q0 -186 125.5 -303t314.5 -117q173 0 306 97.5t271 322.5l-438 457q-163 170 -231 271.5t-68 203.5q0 127 99.5 199.5t252.5 72.5q140 0 236 -72.5t96 -201.5q0 -72 -31 -134.5t-86.5 -110 t-121 -82.5t-144.5 -62q72 26 133 61t114 82.5t83.5 110.5t30.5 135q0 111 -80.5 186.5t-233.5 75.5q-145 0 -232 -70t-87 -190q0 -94 66.5 -195t189.5 -229l465 -486l22 37l260 451q16 26 5 34.5t-70 8.5h-17v10h224v-10h-19q-47 0 -65 -8.5t-31 -32.5l-260 -453 q-5 -9 -16.5 -27.5t-16.5 -27.5l336 -348q46 -50 64.5 -59t72.5 -9h15v-10h-222v10h17q60 0 62.5 9t-44.5 59l-313 328q-147 -238 -283.5 -332t-312.5 -94q-107 0 -196.5 36t-148 96.5t-90.5 138t-32 161.5z" />
<glyph unicode="'" horiz-adv-x="272" d="M102 1612h27l-10 -451h-8z" />
<glyph unicode="(" horiz-adv-x="577" d="M145 537q0 307 103.5 596t298.5 479h31q-206 -199 -307 -485.5t-101 -589.5q0 -196 40.5 -384t134.5 -373t233 -319h-31q-195 190 -298.5 479t-103.5 597z" />
<glyph unicode=")" horiz-adv-x="575" d="M0 -539q139 134 233 319t134.5 373t40.5 384q0 303 -101 589.5t-307 485.5h31q195 -190 298 -478.5t103 -596.5t-103 -597t-298 -479h-31z" />
<glyph unicode="*" horiz-adv-x="686" d="M43 1139l285 161l-285 162l12 21l279 -162v291h22v-293l277 164l12 -23l-283 -160l283 -159l-12 -23l-277 162v-291h-22v291l-279 -162z" />
<glyph unicode="+" horiz-adv-x="1056" d="M41 487v21h475v477h25v-477h475v-21h-475v-487h-25v487h-475z" />
<glyph unicode="," horiz-adv-x="286" d="M-10 -406l180 386h-6q-17 0 -28 11.5t-11 26.5q0 17 11 29t28 12q19 0 30 -10.5t11 -25.5q0 -9 -6 -23.5t-24 -48.5t-28 -55l-145 -308z" />
<glyph unicode="-" horiz-adv-x="806" d="M102 516v29h603v-29h-603z" />
<glyph unicode="." horiz-adv-x="280" d="M119 18q0 17 11 29t28 12q18 0 29.5 -11.5t11.5 -29.5q0 -16 -11.5 -27t-29.5 -11q-17 0 -28 11.5t-11 26.5z" />
<glyph unicode="/" horiz-adv-x="1007" d="M0 0l983 1612h29l-983 -1612h-29z" />
<glyph unicode="0" horiz-adv-x="1273" d="M102 748q0 363 141 564t394 201q252 0 393 -201t141 -564t-141 -565.5t-393 -202.5t-393.5 202.5t-141.5 565.5zM131 748q0 -196 38.5 -344t108 -236.5t159.5 -132t200 -43.5t200 43.5t159.5 132t108 236.5t38.5 344t-38.5 343.5t-108 235.5t-159.5 131t-200 43t-200 -43 t-159.5 -131t-108 -235.5t-38.5 -343.5z" />
<glyph unicode="1" horiz-adv-x="776" d="M82 1327v4q131 12 231.5 57t153.5 117h18v-1448q0 -32 12.5 -39.5t63.5 -7.5h113v-10h-443v10h154q51 0 63.5 7.5t12.5 39.5v1405q-115 -115 -379 -135z" />
<glyph unicode="2" horiz-adv-x="1212" d="M55 0v6q287 226 411 336q393 351 487 633q32 96 32 186q0 167 -101 253.5t-259 86.5q-175 0 -285 -116.5t-107 -311.5h-6q-6 197 104 318.5t302 121.5q185 0 283 -96.5t98 -247.5q0 -139 -67.5 -284.5t-196 -291.5t-288.5 -283.5t-372 -289.5h907h35.5t26 3t20 5t12.5 12 t9 18t3.5 29t2.5 38.5v52.5h12v-178h-1063z" />
<glyph unicode="3" horiz-adv-x="1138" d="M96 238q0 24 15 24q12 0 16 -20t17 -57t42 -68q55 -58 150.5 -91.5t198.5 -33.5q91 0 170 25t141 73.5t97.5 127.5t35.5 179q0 82 -27.5 149t-74.5 112.5t-111.5 77t-136 45.5t-150.5 14q-86 0 -172 -27v14q77 22 133.5 40.5t121.5 44t111 50t90.5 58t71.5 70t43.5 83 t16.5 99.5q0 127 -92 200.5t-242 73.5q-145 0 -250 -85.5t-123 -237.5l-4 2q14 157 122 245t259 88q171 0 265 -80.5t94 -205.5q0 -294 -523 -420q47 8 101 8q100 0 188.5 -24.5t160.5 -73t114.5 -129.5t42.5 -185q0 -136 -64.5 -233.5t-169.5 -143.5t-239 -46 q-151 0 -268.5 60.5t-155.5 141.5q-15 30 -15 56z" />
<glyph unicode="4" horiz-adv-x="1265" d="M25 457l800 1079h15v-1061h252h35.5t25.5 3t20 5t12.5 12t8.5 18t3.5 29t2.5 38.5v52.5h12v-182h-372v-394q0 -32 12 -39.5t63 -7.5h31v-10h-258v10h51q51 0 63.5 7.5t12.5 39.5v394h-788zM59 475h756v1016z" />
<glyph unicode="5" horiz-adv-x="1157" d="M111 274q0 21 14 21q5 0 7.5 -2.5t4.5 -9t3.5 -14.5t6 -22.5t11.5 -29.5q43 -101 153.5 -163t247.5 -62q96 0 179.5 28.5t150.5 85t106 153.5t39 224q0 197 -116 320t-318 123q-140 0 -254.5 -73.5t-171.5 -201.5l-6 2l154 801h604q57 0 71.5 9.5t24.5 58.5h10l-10 -90 h-684l-141 -709q62 109 173.5 167t231.5 58q211 0 336 -125.5t125 -328.5q0 -236 -133 -375t-371 -139q-115 0 -211 39t-158 102q-79 79 -79 153z" />
<glyph unicode="6" horiz-adv-x="1169" d="M102 567q0 418 235 672t677 301l2 -8q-153 -15 -285 -59.5t-245.5 -126t-193 -193.5t-123.5 -269.5t-40 -346.5q30 222 161.5 340t317.5 118q67 0 130.5 -15t126 -52t109 -93t75 -144t28.5 -199q0 -227 -135.5 -369.5t-355.5 -142.5q-97 0 -178 31.5t-137 86.5t-94.5 130 t-56.5 160t-18 179zM141 473q0 -203 126 -342t319 -139q126 0 230 55.5t168.5 169t64.5 266.5q0 105 -28.5 195t-82.5 158.5t-139.5 107.5t-192.5 39q-206 0 -335.5 -146.5t-129.5 -363.5z" />
<glyph unicode="7" horiz-adv-x="931" d="M61 1352v102h936l-882 -1528l-25 15l881 1491h-813q-55 0 -69 -13t-17 -67h-11z" />
<glyph unicode="8" horiz-adv-x="1214" d="M133 362q0 155 112.5 271.5t340.5 173.5q-90 -26 -163 -63t-134 -89.5t-95 -126t-34 -161.5q0 -73 25.5 -135.5t69.5 -106t102.5 -74t124 -45t134.5 -14.5q129 0 232 41t165 124t62 195q0 60 -19.5 111t-50.5 91t-85 79.5t-107.5 70t-132.5 68.5l-80 39 q-186 90 -277.5 182t-91.5 224q0 95 57.5 164t145 100.5t191.5 31.5q67 0 132.5 -17.5t123 -51t93.5 -91t36 -130.5q0 -82 -31 -152t-84.5 -118t-116 -80.5t-133.5 -51.5q69 23 126.5 57t106 82t76 115t27.5 146q0 59 -22 107.5t-58.5 80t-84 53t-96.5 30.5t-99 9 q-95 0 -175.5 -30t-133 -94.5t-52.5 -153.5q0 -130 89 -220.5t278 -179.5l65 -30q77 -38 131.5 -68t111.5 -71.5t91 -83t56 -95.5t22 -115q0 -68 -28 -133t-84 -121.5t-153.5 -91t-222.5 -34.5q-130 0 -238.5 44.5t-176.5 133t-68 204.5z" />
<glyph unicode="9" horiz-adv-x="1169" d="M102 1001q0 227 136 369.5t356 142.5q121 0 215.5 -48t152 -131t86.5 -186.5t29 -221.5q0 -420 -235.5 -683t-675.5 -315l-2 9q152 17 284.5 64.5t246 132t193 199.5t123.5 274.5t40 348.5q-31 -223 -162 -340.5t-318 -117.5q-66 0 -129 15t-126 52t-109.5 93 t-75.5 144.5t-29 198.5zM131 1010q0 -143 48 -254t150 -178.5t246 -67.5q204 0 333.5 146.5t129.5 363.5q0 203 -125.5 342t-318.5 139q-126 0 -230 -55.5t-168.5 -169t-64.5 -266.5z" />
<glyph unicode=":" horiz-adv-x="280" d="M119 18q0 17 11 29t28 12q18 0 29.5 -11.5t11.5 -29.5q0 -16 -11.5 -27t-29.5 -11q-17 0 -28 11.5t-11 26.5zM119 983q0 17 11 29t28 12q18 0 29.5 -11.5t11.5 -29.5q0 -16 -11.5 -27.5t-29.5 -11.5q-17 0 -28 11.5t-11 27.5z" />
<glyph unicode=";" horiz-adv-x="286" d="M-10 -406l180 386h-6q-17 0 -28 11.5t-11 26.5q0 17 11 29t28 12q19 0 30 -10.5t11 -25.5q0 -9 -6 -23.5t-24 -48.5t-28 -55l-145 -308zM125 983q0 17 11 29t28 12q18 0 29.5 -11.5t11.5 -29.5q0 -16 -11.5 -27.5t-29.5 -11.5q-17 0 -28 11.5t-11 27.5z" />
<glyph unicode="&#x3c;" horiz-adv-x="1034" d="M0 516l1034 479v-24l-989 -455l989 -496v-24z" />
<glyph unicode="=" horiz-adv-x="1056" d="M82 295v20h893v-20h-893zM82 705v20h893v-20h-893z" />
<glyph unicode="&#x3e;" horiz-adv-x="1034" d="M0 -4v24l989 496l-989 455v24l1034 -479z" />
<glyph unicode="?" horiz-adv-x="724" d="M82 1524q0 21 57 47q44 21 108 35t124 14q161 0 259.5 -68.5t98.5 -183.5q0 -70 -28 -133t-72 -111.5t-98 -95.5t-108 -92.5t-98 -92.5t-72 -106.5t-28 -124.5q0 -57 18 -115t32 -83t26 -41q-36 34 -67 95.5t-31 141.5q0 69 27.5 131t71 110t96.5 93.5t106.5 91t97 93 t71 108.5t27.5 129q0 110 -90 176t-239 66q-68 0 -129 -19t-90 -39q-12 -9 -23.5 -20.5t-18 -17t-14.5 -5.5q-14 0 -14 17zM268 18q0 17 11 29t28 12q18 0 29.5 -11.5t11.5 -29.5q0 -16 -11.5 -27t-29.5 -11q-17 0 -28 11.5t-11 26.5z" />
<glyph unicode="@" horiz-adv-x="1951" d="M156 741q0 248 120 450t329.5 316.5t465.5 114.5q127 0 239.5 -28t209.5 -87t167 -145t110 -209t40 -272q0 -137 -32.5 -250t-89 -187t-132 -114.5t-160.5 -40.5q-66 0 -112 20.5t-69.5 54.5t-33 84t-6.5 101.5t15 114.5l96 497q-38 38 -113 64t-145 26q-144 0 -263 -80 t-187 -218.5t-68 -305.5q0 -143 65.5 -221t185.5 -78q38 0 81 10t101.5 35.5t120.5 83.5t113 141q-80 -140 -192.5 -211t-229.5 -71q-70 0 -124.5 25.5t-86 69t-47.5 96.5t-16 114q0 111 39 221t108 200t174.5 146t227.5 56q68 0 147 -23t115 -51l6 35h27l-113 -578 q-67 -346 184 -346q79 0 148.5 37.5t123.5 108t85.5 183t31.5 251.5q0 338 -199.5 533.5t-541.5 195.5q-186 0 -349.5 -64.5t-282 -177.5t-187 -275t-68.5 -350q0 -186 64.5 -339.5t178.5 -257.5t271.5 -161t341.5 -57q110 0 215 19l2 -4q-112 -23 -221 -23 q-192 0 -354.5 58t-278.5 163t-181.5 259.5t-65.5 340.5z" />
<glyph unicode="A" horiz-adv-x="1437" d="M-10 0v10h39q45 0 61 16t43 85l576 1523h16l596 -1573q13 -37 25.5 -44t62.5 -7h39v-10h-268v10h32q66 0 79 7t3 38l-194 516h-768l-170 -452q-13 -33 -17.5 -51t-5 -31t10.5 -18t25.5 -7t43.5 -2h37v-10h-266zM338 590h754l-377 1001z" />
<glyph unicode="B" horiz-adv-x="1394" d="M174 0v10h31q51 0 63.5 7.5t12.5 39.5v1497q0 32 -12.5 40t-63.5 8h-31v10h397q274 0 400 -49q225 -85 225 -328q0 -111 -61 -199t-157 -134.5t-208 -51.5q105 -2 197 -28t165.5 -76t116.5 -133t43 -189q0 -274 -262 -371q-139 -53 -426 -53h-430zM307 18h309 q274 0 414 58q232 96 232 348q0 200 -150 308t-416 108h-389v-822zM307 858h385q129 0 234.5 41.5t172 128.5t66.5 207q0 227 -200 307q-123 51 -406 51h-252v-735z" />
<glyph unicode="C" horiz-adv-x="1601" d="M113 801q0 250 102 436.5t286 285.5t425 99q364 0 569 -168l16 -125h-10q-19 79 -47 111q-65 79 -209.5 122.5t-316.5 43.5q-125 0 -239 -29.5t-214.5 -94t-173.5 -157t-115.5 -227t-42.5 -297.5q0 -162 44 -297t119 -227.5t177 -157t216 -94t237 -29.5q399 0 537 176 q29 39 47 111h10l-17 -123q-111 -104 -253.5 -142t-319.5 -38q-242 0 -429 99t-292.5 286t-105.5 436z" />
<glyph unicode="D" horiz-adv-x="1681" d="M174 0v10h31q51 0 63.5 7.5t12.5 39.5v1497q0 32 -12.5 40t-63.5 8h-31v10h313q379 0 603 -82q479 -178 479 -725q0 -285 -134 -473.5t-405 -270.5q-198 -61 -573 -61h-283zM307 18h146q357 0 563 62q522 157 522 725q0 506 -414 688q-123 53 -282.5 76.5t-390.5 23.5 h-144v-1575z" />
<glyph unicode="E" horiz-adv-x="1300" d="M174 0v10h31q51 0 63.5 7.5t12.5 39.5v1497q0 32 -12.5 40t-63.5 8h-31v10h971v-176h-12v51t-2.5 38t-4 29t-9 18t-13 12.5t-21 5.5t-28 3h-37.5h-711v-727h770v-18h-770v-830h774q33 0 48 0.5t31.5 7t21 13t9.5 29t5 42.5v66h12v-176h-1034z" />
<glyph unicode="F" horiz-adv-x="1146" d="M174 0v10h31q51 0 63.5 7.5t12.5 39.5v1497q0 32 -12.5 40t-63.5 8h-31v10h993v-176h-12v51t-2.5 38t-4 29t-9 18t-13 12.5t-21 5.5t-28 3h-37.5h-733v-727h715v-18h-715v-791q0 -32 12.5 -39.5t63.5 -7.5h72v-10h-281z" />
<glyph unicode="G" horiz-adv-x="1685" d="M113 801q0 250 102 436.5t286 285.5t425 99q364 0 569 -168l16 -125h-10q-19 79 -47 111q-65 79 -209.5 122.5t-316.5 43.5q-125 0 -239 -29.5t-214.5 -94t-173.5 -157t-115.5 -227t-42.5 -297.5q0 -162 44 -297t119 -227.5t177 -157t216 -94t237 -29.5q198 0 344 48 t215 136v430q0 32 -12.5 39.5t-63.5 7.5h-133v17h236v-500q-172 -194 -582 -194q-242 0 -429 99t-292.5 286t-105.5 436z" />
<glyph unicode="H" horiz-adv-x="1736" d="M174 0v10h31q51 0 63.5 7.5t12.5 39.5v1497q0 32 -12.5 40t-63.5 8h-31v10h240v-10h-31q-51 0 -63.5 -8t-12.5 -40v-688h1123v688q0 32 -12.5 40t-63.5 8h-31v10h240v-10h-31q-51 0 -63.5 -8t-12.5 -40v-1497q0 -32 12.5 -39.5t63.5 -7.5h31v-10h-240v10h31 q51 0 63.5 7.5t12.5 39.5v791h-1123v-791q0 -32 12.5 -39.5t63.5 -7.5h31v-10h-240z" />
<glyph unicode="I" horiz-adv-x="585" d="M174 0v10h31q51 0 63.5 7.5t12.5 39.5v1497q0 32 -12.5 40t-63.5 8h-31v10h240v-10h-31q-51 0 -63.5 -8t-12.5 -40v-1497q0 -32 12.5 -39.5t63.5 -7.5h31v-10h-240z" />
<glyph unicode="J" horiz-adv-x="817" d="M61 76q0 12 13 12q9 0 22.5 -14.5t29 -31.5t54.5 -31.5t92 -14.5q61 0 104.5 19.5t77 66t50 130t16.5 204.5v1138q0 32 -12.5 40t-63.5 8h-30v10h239v-10h-30q-51 0 -63.5 -8t-12.5 -40v-1124q0 -234 -64 -342t-217 -108q-78 0 -141.5 33.5t-63.5 62.5z" />
<glyph unicode="K" horiz-adv-x="1423" d="M174 0v10h31q51 0 63.5 7.5t12.5 39.5v1497q0 32 -12.5 40t-63.5 8h-31v10h240v-10h-31q-51 0 -63.5 -8t-12.5 -40v-1497q0 -32 12.5 -39.5t63.5 -7.5h31v-10h-240zM311 807l848 733q41 35 33.5 47t-72.5 12h-37v13h258v-13h-38q-34 0 -52 -10.5t-75 -60.5l-832 -717 l918 -754q34 -29 53 -37t65 -8h33v-12h-268v12h59q44 0 47 8.5t-30 36.5z" />
<glyph unicode="L" horiz-adv-x="1220" d="M174 0v10h31q51 0 63.5 7.5t12.5 39.5v1497q0 32 -12.5 40t-63.5 8h-31v10h250v-10h-41q-51 0 -63.5 -8t-12.5 -40v-1536h797q33 0 48 0.5t31.5 7t21 13t9.5 29t5 42.5v66h12v-176h-1057z" />
<glyph unicode="M" horiz-adv-x="1935" d="M92 0v10h31q47 0 65 9.5t19 37.5l88 1489q3 38 -15 47t-69 9h-31v10h158l635 -1354l635 1354h157v-10h-30q-48 0 -66.5 -10.5t-17.5 -45.5l86 -1489q2 -32 13 -39.5t62 -7.5h31v-10h-241v10h30q52 0 64.5 7.5t11.5 39.5l-88 1526l-649 -1380l-652 1382l-88 -1528 q-1 -30 14 -38.5t62 -8.5h31v-10h-246z" />
<glyph unicode="N" horiz-adv-x="1687" d="M174 0v10h31q48 0 66 9.5t18 37.5v1497q0 48 -84 48h-31v10h150l1114 -1585v1527q0 30 -15.5 39t-62.5 9h-31v10h246v-10h-31q-47 0 -65.5 -10t-18.5 -38v-1605l-1149 1634v-1526q0 -30 15.5 -38.5t62.5 -8.5h31v-10h-246z" />
<glyph unicode="O" d="M113 801q0 186 62.5 341.5t171.5 260t256 162t315 57.5q227 0 409.5 -98t290.5 -286.5t108 -436.5t-108 -436.5t-290.5 -286.5t-409.5 -98q-168 0 -315 57.5t-256 162t-171.5 260t-62.5 341.5zM143 801q0 -162 45 -297t120.5 -227.5t176.5 -157t210 -94t223 -29.5 q115 0 225 29.5t211 94t176.5 157t120.5 227.5t45 297t-45 297t-120.5 227.5t-176.5 157t-211 94t-225 29.5q-114 0 -223 -29.5t-210 -94t-176.5 -157t-120.5 -227.5t-45 -297z" />
<glyph unicode="P" horiz-adv-x="1247" d="M174 0v10h31q51 0 63.5 7.5t12.5 39.5v1497q0 32 -12.5 40t-63.5 8h-31v10h385q294 0 449 -86q221 -121 221 -396q0 -95 -30.5 -173.5t-83 -133t-124.5 -92t-155 -55t-174 -17.5q-176 0 -320 58q146 -41 295 -41q87 0 166 15t152 50t126 86.5t85 129t32 173.5 q0 261 -207 379q-150 84 -450 84h-234v-1536q0 -32 12.5 -39.5t63.5 -7.5h51v-10h-260z" />
<glyph unicode="Q" d="M113 801q0 186 62.5 341.5t171.5 260t256 162t315 57.5q227 0 409.5 -98t290.5 -286.5t108 -436.5q0 -279 -134 -479t-359 -287l262 -330l-16 -14l-269 336q-136 -47 -292 -47q-168 0 -315 57.5t-256 162t-171.5 260t-62.5 341.5zM143 801q0 -162 45 -297t120.5 -227.5 t176.5 -157t210 -94t223 -29.5q152 0 280 47l-160 203l17 14l166 -209q101 39 184.5 103.5t150 156t103.5 217t37 273.5q0 162 -45 297t-120.5 227.5t-176.5 157t-211 94t-225 29.5q-114 0 -223 -29.5t-210 -94t-176.5 -157t-120.5 -227.5t-45 -297z" />
<glyph unicode="R" horiz-adv-x="1480" d="M174 0v10h31q51 0 63.5 7.5t12.5 39.5v1497q0 32 -12.5 40t-63.5 8h-31v10h377q171 0 284.5 -17t194.5 -57q191 -96 191 -334q0 -176 -108.5 -281.5t-305.5 -127.5q72 -6 127 -29t90.5 -55t63.5 -84.5t43.5 -100t33.5 -118.5l9 -33q56 -223 97.5 -302t117.5 -79 q49 0 88 22l4 -6q-45 -30 -95 -30q-38 0 -66 12.5t-50 37t-42.5 75.5t-39 112.5t-43.5 163.5l-8 33q-29 115 -64 185t-91.5 112.5t-130 57.5t-189.5 15h-355v-727q0 -32 12.5 -39.5t63.5 -7.5h51v-10h-260zM307 803h389q238 0 366 105.5t128 295.5q0 133 -58.5 216.5 t-177.5 125.5q-134 47 -440 47h-207v-790z" />
<glyph unicode="S" horiz-adv-x="1273" d="M133 242h10q16 -84 47 -119q60 -70 186.5 -98.5t244.5 -28.5q101 0 190.5 25t160 72.5t111.5 124t41 173.5q0 77 -23.5 139t-61.5 106.5t-102 83.5t-128 65.5t-156 56.5l-88 28q-95 31 -163 65.5t-124 81.5t-84 110.5t-28 142.5q0 165 129.5 258.5t331.5 93.5 q264 0 436 -123l18 -131h-10q-16 84 -47 119q-55 63 -171.5 91t-225.5 28q-121 0 -217.5 -35.5t-156.5 -112.5t-60 -186q0 -142 97 -229.5t285 -147.5l109 -35q80 -26 139.5 -50.5t124.5 -64t106.5 -84.5t69 -110t27.5 -143q0 -197 -142 -312.5t-388 -115.5q-299 0 -469 131 z" />
<glyph unicode="T" horiz-adv-x="1337" d="M10 1436v176h1317v-176h-12q0 44 -0.5 64.5t-4 42.5t-7.5 28.5t-16.5 13.5t-25 7.5t-38.5 0.5h-541v-1536q0 -32 12.5 -39.5t63.5 -7.5h71v-10h-321v10h72q51 0 63 7.5t12 39.5v1536h-540q-26 0 -38.5 -0.5t-25 -7.5t-16.5 -13.5t-7.5 -28.5t-4 -42.5t-0.5 -64.5h-13z " />
<glyph unicode="U" horiz-adv-x="1599" d="M72 1602v10h241v-10h-30q-51 0 -63.5 -8t-12.5 -40v-952q0 -281 146.5 -441.5t443.5 -160.5q153 0 268.5 46.5t186 131.5t105 198t34.5 253v915q0 32 -16.5 45t-61.5 13h-31v10h246v-10h-31q-45 0 -64.5 -14t-19.5 -44v-915q0 -314 -158.5 -481.5t-457.5 -167.5 q-295 0 -457 154.5t-162 477.5v942q0 32 -12.5 40t-63.5 8h-30z" />
<glyph unicode="V" horiz-adv-x="1374" d="M-20 1602v10h268v-10h-33q-66 0 -79.5 -7.5t-2.5 -38.5l551 -1536l539 1473q20 56 20 80q0 8 -2 12q-9 17 -76 17h-37v10h267v-10h-39q-46 0 -63 -16.5t-42 -84.5l-561 -1524h-16l-568 1573q-14 37 -26.5 44.5t-61.5 7.5h-38z" />
<glyph unicode="W" horiz-adv-x="1886" d="M-20 1602v10h268v-10h-33q-37 0 -53.5 -1t-25 -8t-7.5 -14.5t6 -28.5l373 -1521l436 1218q3 -1 430 -1218l361 1466q13 53 13 76q0 10 -2 15q-8 16 -69 16h-37v10h267v-10h-39q-53 0 -70.5 -14.5t-32.5 -74.5l-383 -1536h-18l-422 1201l-428 -1201h-18l-390 1571 q-9 37 -23 45.5t-65 8.5h-38z" />
<glyph unicode="X" horiz-adv-x="1478" d="M-8 0v10h39q51 0 72.5 15t72.5 86l539 749l-508 690q-24 33 -42.5 42.5t-66.5 9.5h-39v10h271v-10h-33q-33 0 -50.5 -2t-23 -8t-2 -13.5t14.5 -22.5l495 -673l434 610q22 31 32 47t16 30.5t-1 20t-21 8.5t-42 3h-37v10h272v-10h-38q-51 0 -73 -15t-73 -86l-457 -635 l596 -805q24 -33 42.5 -42t66.5 -9h39v-10h-270v10h32q22 0 37 1t24 3t13 5t3.5 8.5t-4.5 11.5t-11 16l-584 789l-516 -725q-22 -31 -32 -47t-16 -30.5t1 -20t21 -8.5t42 -3h37v-10h-272z" />
<glyph unicode="Y" horiz-adv-x="1316" d="M-20 1602v10h249v-10h-32q-63 0 -72 -9.5t12 -40.5l514 -931l492 872q19 34 26.5 51t11 31t-6.5 18.5t-24 6.5t-44 2h-37v10h268v-10h-39q-48 0 -66 -15.5t-58 -85.5l-512 -903v-541q0 -32 12 -39.5t63 -7.5h51v-10h-280v10h51q51 0 63.5 7.5t12.5 39.5v543l-529 950 q-19 32 -41 42t-67 10h-18z" />
<glyph unicode="Z" horiz-adv-x="1363" d="M51 0l1147 1593h-874h-48t-31.5 -7t-21 -13t-9.5 -28.5t-5 -42.5v-66h-12v176h1046l-1147 -1594h1028q33 0 48 0.5t31.5 7t21 13t9.5 29t5 42.5v66h12v-176h-1200z" />
<glyph unicode="[" horiz-adv-x="370" d="M164 -537v2149h207v-21h-185v-2107h185v-21h-207z" />
<glyph unicode="\" horiz-adv-x="1007" d="M0 1612h29l983 -1612h-29z" />
<glyph unicode="]" horiz-adv-x="370" d="M0 -516h184v2107h-184v21h207v-2149h-207v21z" />
<glyph unicode="^" horiz-adv-x="1034" d="M16 590l521 1034l479 -1034h-25l-454 989l-496 -989h-25z" />
<glyph unicode="_" horiz-adv-x="1558" d="M102 0h1354v-29h-1354v29z" />
<glyph unicode="`" horiz-adv-x="428" d="M129 1612h29l211 -381h-19z" />
<glyph unicode="a" horiz-adv-x="1005" d="M70 231q0 86 50.5 149t144 101t218.5 55q112 15 250 15h33v53v30q0 114 -14 180q-16 74 -70 122q-80 70 -221 70q-72 0 -139 -28t-112.5 -84t-45.5 -126q0 -35 -17 -35q-14 0 -14 27q0 101 95 179.5t235 78.5q181 0 264 -96q40 -46 54 -117q12 -62 12 -179v-34l-7 -389 q0 -109 9 -146q12 -57 69 -57q49 0 84 35l2 -2q-35 -47 -90 -47q-70 0 -88 65q-10 38 -10 142v10l4 334h-17q-651 0 -651 -304q0 -102 75.5 -169.5t215.5 -67.5q49 0 96.5 10t98.5 32t97.5 64t80.5 101q-36 -78 -101.5 -130t-134 -72.5t-139.5 -20.5q-156 0 -236.5 73.5 t-80.5 177.5z" />
<glyph unicode="b" horiz-adv-x="1157" d="M102 0v10h11q51 0 63 7.5t12 39.5v1497q0 32 -12 40t-63 8h-11v10h111v-1612h-111zM215 160q46 -62 118.5 -101t131 -51t113.5 -12q213 0 343 146t130 362q0 140 -56 254.5t-165 183t-252 68.5q-55 0 -115 -14.5t-130.5 -56t-117.5 -105.5q49 88 154 140t209 52 q150 0 264.5 -68t175.5 -186.5t61 -267.5q0 -228 -138 -376t-361 -148q-107 0 -211 47.5t-154 132.5z" />
<glyph unicode="c" horiz-adv-x="978" d="M78 502q0 117 38 214.5t104.5 162.5t156 101t192.5 36q131 0 242 -51q51 -24 83 -52.5t32 -46.5q0 -12 -13 -12q-7 0 -11.5 4.5t-16.5 22.5q-42 56 -130.5 89.5t-183.5 33.5q-198 0 -331.5 -138.5t-133.5 -363.5q0 -144 55 -258t161 -181t245 -67q124 0 226.5 49.5 t160.5 138.5l4 -2q-64 -101 -171 -151.5t-220 -50.5q-218 0 -353.5 141t-135.5 381z" />
<glyph unicode="d" horiz-adv-x="1187" d="M78 504q0 227 139 374.5t365 147.5q108 0 208.5 -49.5t151.5 -136.5q-68 90 -168 130t-192 40q-144 0 -253.5 -68.5t-166 -183t-56.5 -254.5q0 -216 130.5 -362t343.5 -146q42 0 85 7t93.5 24.5t99 53t84.5 85.5q-50 -89 -152 -137.5t-212 -48.5q-223 0 -361.5 148 t-138.5 376zM858 1602v10h111v-1555q0 -32 12 -39.5t63 -7.5h11v-10h-111v1554q0 32 -12.5 40t-63.5 8h-10z" />
<glyph unicode="e" horiz-adv-x="1038" d="M78 508q0 117 38 215.5t103 164.5t152 103t184 37q189 0 306 -113.5t120 -304.5h-866q-9 -50 -9 -102q0 -144 54 -259t161 -184t250 -69q122 0 227.5 49.5t166.5 138.5l4 -2q-67 -101 -175.5 -151.5t-226.5 -50.5q-218 0 -353.5 143t-135.5 385zM117 625h835 q-3 176 -111.5 283.5t-287.5 107.5q-161 0 -282.5 -107t-153.5 -284z" />
<glyph unicode="f" horiz-adv-x="583" d="M72 969v16h161v90q0 51 0.5 82.5t3.5 82t8.5 83.5t16.5 76.5t26 72t39 59.5t54 48.5t71 29t91 11.5q60 0 114 -21q27 -10 43.5 -24.5t16.5 -26.5q0 -14 -15 -14q-6 0 -11.5 5t-13 14.5t-15.5 15.5q-49 39 -125 39q-45 0 -82 -11.5t-64 -29t-48 -48t-35 -58.5t-24 -71 t-15 -76t-7.5 -82t-3 -80t-0.5 -79v-88h338v-16h-338v-912q0 -32 12.5 -39.5t63.5 -7.5h31v-10h-218v10h11q51 0 63 7.5t12 39.5v912h-161z" />
<glyph unicode="g" horiz-adv-x="1034" d="M61 -258q0 100 83.5 173.5t238.5 90.5q-142 -23 -218.5 -91t-76.5 -173q0 -116 118.5 -195t315.5 -79q128 0 233 36.5t168.5 108t63.5 166.5q0 113 -90.5 170t-288.5 57h-153q-109 0 -178 10.5t-109 46.5q-43 40 -43 103q0 73 78 118.5t207 53.5q-123 -15 -193 -59 t-70 -111q0 -60 43 -94q31 -25 90.5 -36t170.5 -11h172q389 0 389 -244q0 -84 -44 -149t-116.5 -103t-157.5 -57t-176 -19q-204 0 -330.5 83.5t-126.5 203.5zM135 672q0 153 109 248.5t262 95.5q74 0 141 -25h367v-24l-361 22q101 -38 162.5 -121t61.5 -196 q0 -153 -109 -248.5t-262 -95.5t-262 95.5t-109 248.5zM164 672q0 -151 97.5 -241.5t244.5 -90.5t244.5 90.5t97.5 241.5t-97.5 241.5t-244.5 90.5t-244.5 -90.5t-97.5 -241.5z" />
<glyph unicode="h" horiz-adv-x="1144" d="M102 0v10h11q51 0 63 7.5t12 39.5v1497q0 32 -12 40t-63 8h-11v10h111v-1555q0 -32 12.5 -39.5t63.5 -7.5h10v-10h-197zM215 676q15 89 52.5 156.5t91 106.5t115 58t130.5 19q174 0 266 -105q50 -59 69 -149t19 -236v-469q0 -32 12.5 -39.5t63.5 -7.5h10v-10h-196v10h10 q51 0 63.5 7.5t12.5 39.5v408q0 168 -13.5 260t-56.5 154q-82 120 -268 120q-150 0 -250.5 -88.5t-130.5 -234.5z" />
<glyph unicode="i" horiz-adv-x="436" d="M117 0v10h10q51 0 63.5 7.5t12.5 39.5v871q0 32 -12.5 39.5t-63.5 7.5h-10v10h110v-928q0 -32 12.5 -39.5t63.5 -7.5h10v-10h-196zM176 1513q0 17 12 29t27 12q17 0 29 -12t12 -29q0 -15 -12 -26.5t-29 -11.5q-15 0 -27 11.5t-12 26.5z" />
<glyph unicode="j" horiz-adv-x="423" d="M41 -555q48 50 82 121.5t52 139.5t28 157.5t12 151.5t2 145v768q0 32 -12.5 39.5t-63.5 7.5h-10v10h111v-825q0 -110 -7 -200.5t-26.5 -192.5t-61 -186.5t-102.5 -141.5zM190 1513q0 17 12 29t27 12q17 0 29 -12t12 -29q0 -15 -12 -26.5t-29 -11.5q-15 0 -27 11.5 t-12 26.5z" />
<glyph unicode="k" horiz-adv-x="970" d="M102 0v10h11q51 0 63 7.5t12 39.5v1497q0 32 -12 40t-63 8h-11v10h111v-1555q0 -32 12.5 -39.5t63.5 -7.5h10v-10h-197zM238 528l536 400q39 30 20 39q-16 6 -63 6h-12v12h223v-12h-22q-27 0 -47.5 -6t-31 -13.5t-34.5 -25.5l-537 -396l594 -475q41 -33 59 -39t52 -6h16 v-12h-221v12h33q53 0 57.5 8t-31.5 37z" />
<glyph unicode="l" horiz-adv-x="432" d="M102 0v10h11q51 0 63 7.5t12 39.5v1497q0 32 -12 40t-63 8h-11v10h111v-1555q0 -32 12.5 -39.5t63.5 -7.5h10v-10h-197z" />
<glyph unicode="m" horiz-adv-x="1884" d="M117 0v10h10q51 0 63.5 7.5t12.5 39.5v871q0 32 -12.5 39.5t-63.5 7.5h-10v10h110v-928q0 -32 12.5 -39.5t63.5 -7.5h10v-10h-196zM227 700q22 106 84 179.5t138 105t161 31.5q162 0 252 -90q101 -106 101 -351v-518q0 -32 12 -39.5t63 -7.5h11v-10h-197v10h10 q51 0 63.5 7.5t12.5 39.5v486q0 147 -22.5 231t-71.5 135q-84 90 -242 90q-142 0 -243 -86t-132 -213zM963 700q22 106 84 179.5t138 105t161 31.5q161 0 251 -90q101 -106 101 -351v-518q0 -32 12.5 -39.5t63.5 -7.5h10v-10h-197v10h10q51 0 63.5 7.5t12.5 39.5v486 q0 147 -22.5 231t-71.5 135q-84 90 -242 90q-142 0 -242.5 -85.5t-131.5 -213.5z" />
<glyph unicode="n" horiz-adv-x="1157" d="M117 0v10h10q51 0 63.5 7.5t12.5 39.5v871q0 32 -12.5 39.5t-63.5 7.5h-10v10h110v-928q0 -32 12.5 -39.5t63.5 -7.5h10v-10h-196zM227 676q15 89 52.5 156.5t91 106.5t115 58t130.5 19q175 0 267 -105q50 -59 69 -149t19 -236v-469q0 -32 12.5 -39.5t63.5 -7.5h10v-10 h-197v10h10q51 0 63.5 7.5t12.5 39.5v408q0 169 -13 260.5t-56 153.5q-82 120 -269 120q-150 0 -250.5 -88.5t-130.5 -234.5z" />
<glyph unicode="o" horiz-adv-x="1167" d="M78 504q0 123 44.5 224.5t117.5 165.5t162 99t182 35t182 -35t162 -99t117.5 -165.5t44.5 -224.5t-44.5 -224.5t-117.5 -165.5t-162 -99t-182 -35t-182 35t-162 99t-117.5 165.5t-44.5 224.5zM106 504q0 -100 28.5 -185t76 -144t109.5 -101t129 -62t135 -20t134.5 20 t128.5 62t109.5 101t76 144t28.5 185q0 124 -43.5 224.5t-113.5 161.5t-152.5 93.5t-167.5 32.5t-167.5 -32.5t-153 -93.5t-114 -161.5t-43.5 -224.5z" />
<glyph unicode="p" horiz-adv-x="1122" d="M68 -526h10q51 0 63.5 7.5t12.5 39.5v1407q0 32 -12.5 39.5t-63.5 7.5h-10v10h110v-1464q0 -32 12.5 -39.5t63.5 -7.5h31v-11h-217v11zM180 160q46 -62 118.5 -101t131 -51t113.5 -12q213 0 343 146t130 362q0 140 -56 254.5t-165 183t-252 68.5q-55 0 -115 -14.5 t-130.5 -56t-117.5 -105.5q49 88 154 140t209 52q150 0 264.5 -68t175.5 -186.5t61 -267.5q0 -228 -138 -376t-361 -148q-107 0 -211 47.5t-154 132.5z" />
<glyph unicode="q" horiz-adv-x="1120" d="M78 504q0 227 139 374.5t365 147.5q108 0 208.5 -49.5t151.5 -136.5q-68 90 -168 130t-192 40q-144 0 -253.5 -68.5t-166 -183t-56.5 -254.5q0 -216 130.5 -362t343.5 -146q55 0 113.5 12t130.5 51t118 101q-50 -85 -153.5 -132.5t-210.5 -47.5q-223 0 -361.5 148 t-138.5 376zM838 -526h30q51 0 63.5 7.5t12.5 39.5v1464h111v-10h-11q-51 0 -63 -7.5t-12 -39.5v-1407q0 -32 12 -39.5t63 -7.5h11v-11h-217v11z" />
<glyph unicode="r" horiz-adv-x="663" d="M117 0v10h10q51 0 63.5 7.5t12.5 39.5v871q0 32 -12.5 39.5t-63.5 7.5h-10v10h110v-928q0 -32 12.5 -39.5t63.5 -7.5h10v-10h-196zM227 686q26 160 105 240t198 80q55 0 94.5 -13t39.5 -30q0 -6 -5 -11.5t-12 -5.5q-11 0 -22 10t-37 20.5t-72 10.5q-113 0 -186 -79.5 t-103 -221.5z" />
<glyph unicode="s" horiz-adv-x="913" d="M82 160q0 14 12 14q6 0 10 -4t6.5 -9t9 -17t13.5 -23q36 -56 124 -92.5t179 -36.5q147 0 242.5 62t95.5 182q0 110 -72.5 171.5t-236.5 100.5l-59 14q-67 16 -116.5 35.5t-93.5 49t-67 72.5t-23 99q0 103 87.5 171.5t240.5 68.5q69 0 132 -17.5t103 -43t63.5 -52 t23.5 -47.5q0 -14 -11 -14q-7 0 -11 4t-11.5 19t-15.5 28q-34 53 -114.5 82t-158.5 29q-144 0 -223.5 -63.5t-79.5 -160.5q0 -93 69.5 -147t227.5 -92l35 -8q77 -18 133.5 -40.5t105 -56.5t74 -84t25.5 -114q0 -122 -98 -191t-265 -69q-73 0 -142 19.5t-114.5 48.5t-72.5 59 t-27 53z" />
<glyph unicode="t" horiz-adv-x="595" d="M45 969v16h166v311h25v-311h317v-16h-317v-733q0 -76 6 -116t24 -67q37 -57 119 -57q106 0 174 92l4 -2q-69 -106 -184 -106q-92 0 -133 63q-35 52 -35 184v742h-166z" />
<glyph unicode="u" horiz-adv-x="1099" d="M61 975v10h111v-561q0 -183 51 -274q85 -154 275 -154q139 0 244.5 92t134.5 207q-16 -77 -56.5 -138.5t-94 -99.5t-114.5 -57.5t-123 -19.5q-94 0 -168 40t-118 117q-56 98 -56 275v516q0 32 -12 39.5t-63 7.5h-11zM791 975v10h110v-928q0 -32 12.5 -39.5t63.5 -7.5h10 v-10h-110v928q0 32 -12.5 39.5t-63.5 7.5h-10z" />
<glyph unicode="v" horiz-adv-x="1032" d="M10 975v10h226v-10h-17q-57 0 -73.5 -6t-6.5 -31l379 -918l371 883q10 24 12 38t-7 21.5t-26 10t-49 2.5h-16v10h219v-10h-18q-43 0 -58.5 -13t-30.5 -51l-395 -931h-10l-395 950q-12 31 -25.5 38t-60.5 7h-19z" />
<glyph unicode="w" horiz-adv-x="1597" d="M10 975v10h226v-10h-17q-57 0 -73 -6t-7 -31l336 -913l330 981l319 -981l330 878q17 47 4 59.5t-74 12.5h-16v10h219v-10h-18q-42 0 -57.5 -13t-30.5 -51l-355 -931h-10l-315 952l-322 -952h-10l-354 950q-12 31 -25.5 38t-60.5 7h-19z" />
<glyph unicode="x" horiz-adv-x="1013" d="M0 0v10h18q44 0 67 17.5t79 85.5l330 401l-330 416q-23 28 -40.5 36.5t-66.5 8.5h-18v10h225v-10h-16q-70 0 -72 -15q0 -7 12 -22l320 -408l299 363q17 20 25.5 33t11.5 23t-3.5 15.5t-20.5 8t-38 2.5h-16v10h213v-10h-18q-44 0 -67 -17.5t-79 -85.5l-295 -356l369 -461 q16 -20 24.5 -27.5t28 -12.5t53.5 -5h19v-10h-226v10h17q70 0 71 14q0 7 -12 23l-358 451l-334 -406q-38 -46 -38 -63q0 -19 63 -19h16v-10h-213z" />
<glyph unicode="y" horiz-adv-x="1024" d="M-41 -471q0 12 12 12q8 0 14 -8.5t13.5 -21t20 -25t39.5 -21t65 -8.5q77 0 131.5 58.5t122.5 218.5l108 256l-407 940q-14 31 -26.5 38t-59.5 7h-19v10h226v-10h-17q-57 0 -73.5 -6t-6.5 -31l398 -922l381 887q10 24 12 38t-7 21.5t-26 10t-49 2.5h-16v10h219v-10h-19 q-41 0 -56 -12.5t-32 -51.5l-514 -1192q-40 -92 -75 -149t-69.5 -84t-63 -35t-68.5 -8q-62 0 -110 29t-48 57z" />
<glyph unicode="z" horiz-adv-x="870" d="M41 0l729 971h-520h-35.5t-26 -3t-20 -5t-12.5 -12t-9 -18t-3.5 -29t-2.5 -38.5v-52.5h-12v172h680l-727 -971h592h35.5t25.5 3t20 5t12.5 12t8.5 18t3.5 29t2.5 38.5v52.5h13v-172h-754z" />
<glyph unicode="{" horiz-adv-x="495" d="M0 541q240 42 240 323q0 71 -39 216t-39 233q0 67 15 118t51 93.5t103.5 65t164.5 22.5v-21q-76 0 -132 -14.5t-89.5 -39t-54 -63t-27.5 -80t-7 -96.5q0 -72 39 -216.5t39 -223.5q0 -252 -192 -317q192 -65 192 -318q0 -79 -39 -226.5t-39 -219.5q0 -54 7 -95.5t27.5 -80 t54 -63t89.5 -39.5t132 -15v-21q-97 0 -164.5 22.5t-103.5 65t-51 94t-15 119.5q0 87 39 234.5t39 218.5q0 282 -240 324z" />
<glyph unicode="|" horiz-adv-x="393" d="M184 0v1612h25v-1612h-25z" />
<glyph unicode="}" horiz-adv-x="495" d="M0 -516q76 0 132 15t89.5 39.5t53.5 63.5t27 80t7 95q0 72 -39 219.5t-39 226.5q0 252 193 318q-193 66 -193 317q0 79 39 223.5t39 216.5q0 70 -12 118.5t-44.5 90.5t-95 63t-157.5 21v21q97 0 164.5 -22.5t103.5 -65t51 -93.5t15 -118q0 -88 -39 -233t-39 -216 q0 -281 240 -323q-240 -42 -240 -324q0 -71 39 -218.5t39 -234.5q0 -68 -15 -119.5t-51 -94t-103.5 -65t-164.5 -22.5v21z" />
<glyph unicode="~" horiz-adv-x="1308" d="M82 406q31 113 101 167t165 54q71 0 160 -32.5t159 -71t153 -71t143 -32.5q184 0 243 205l21 -7q-30 -112 -100 -166.5t-156 -54.5q-72 0 -159 32.5t-155.5 71t-154.5 71t-156 32.5q-51 0 -94.5 -16.5t-85.5 -64t-64 -124.5z" />
<glyph unicode="&#xa1;" horiz-adv-x="440" d="M188 987q0 17 11 29t28 12q18 0 29.5 -11.5t11.5 -29.5q0 -16 -11.5 -27.5t-29.5 -11.5q-17 0 -28 11.5t-11 27.5zM213 -604l12 1259h6l13 -1259h-31z" />
<glyph unicode="&#xa2;" horiz-adv-x="972" d="M78 502q0 220 126 358.5t320 153.5v219h25v-217h20q131 0 242 -51q51 -24 83 -52.5t32 -46.5q0 -12 -13 -12q-7 0 -11.5 4.5t-16.5 22.5q-42 56 -130.5 89.5t-183.5 33.5h-22v-1008h18q124 0 226.5 49.5t160.5 138.5l4 -2q-64 -101 -171 -151.5t-220 -50.5h-18v-160h-25 v162q-201 14 -323.5 153.5t-122.5 366.5zM106 502q0 -208 113 -348.5t305 -155.5v1003q-182 -18 -300 -153t-118 -346z" />
<glyph unicode="&#xa3;" horiz-adv-x="1169" d="M41 -2v10h43q113 0 181.5 159t68.5 423q0 70 -8 172h-242v16h240q-2 24 -10 91.5t-11.5 117t-3.5 105.5q0 421 446 421q139 0 250 -49q62 -26 62 -49q0 -14 -15 -14q-9 0 -19.5 10.5t-36.5 29t-68 32.5q-86 28 -173 28q-201 0 -309 -96.5t-108 -292.5q0 -70 4 -125 t10.5 -111.5t9.5 -97.5h529v-16h-527q6 -67 6 -168q0 -210 -53.5 -373.5t-159.5 -210.5q42 4 132 47q75 35 104 47t73 23.5t87 11.5q66 0 126.5 -22.5t98 -49t84.5 -49t90 -22.5q72 0 115.5 33t68.5 108l4 -2q-25 -80 -69 -117.5t-117 -37.5q-50 0 -100 21.5t-86 47t-94 47 t-123 21.5q-37 0 -78.5 -9.5t-63.5 -17t-72 -29t-61 -26.5q-114 -49 -225 -37z" />
<glyph unicode="&#xa5;" horiz-adv-x="1316" d="M0 1444v10h250v-10h-33q-63 0 -72 -9t13 -40l493 -852l469 792q41 67 34.5 88t-71.5 21h-36v10h270v-10h-39q-42 0 -64.5 -19t-60.5 -82l-481 -806h381v-17h-391v-287h391v-16h-391v-160q0 -32 12 -39.5t63 -7.5h51v-10h-280v10h51q51 0 63.5 7.5t12.5 39.5v160h-393v16 h393v287h-393v17h385l-500 856q-19 32 -41.5 41.5t-67.5 9.5h-18z" />
<glyph unicode="&#xa6;" horiz-adv-x="352" d="M164 319h22v-856h-22v856zM164 756v856h22v-856h-22z" />
<glyph unicode="&#xa7;" horiz-adv-x="964" d="M88 160q0 16 12 16q6 0 10 -4t6.5 -10t9 -18t13.5 -23q36 -56 126.5 -92.5t189.5 -36.5q162 0 269 70t107 198q0 117 -85.5 188t-253.5 113l-58 14q-301 73 -301 285q0 105 99.5 180t261.5 72l-62 14q-65 15 -115 35.5t-93.5 51.5t-67 76.5t-23.5 103.5q0 101 87.5 166 t244.5 65q130 0 223.5 -56.5t93.5 -103.5q0 -18 -12 -18q-7 0 -11 5.5t-10.5 21t-15.5 28.5q-34 53 -114 82t-158 29q-144 0 -223.5 -60.5t-79.5 -156.5t72 -154t225 -94l34 -8q80 -19 133.5 -38.5t104 -51.5t75.5 -80t25 -113q0 -125 -109.5 -196.5t-291.5 -59.5l63 -14 q62 -15 111.5 -32t99 -44t83 -60.5t54.5 -81t21 -104.5q0 -129 -108 -206.5t-295 -77.5q-78 0 -149.5 19.5t-117.5 48.5t-73 59t-27 53zM158 862q0 -111 94 -180.5t227 -69.5q84 0 155 24t119 80t48 136q0 62 -27 111t-72.5 78t-101.5 44t-119 15q-145 0 -234 -69t-89 -169z " />
<glyph unicode="&#xa8;" horiz-adv-x="892" d="M203 1411q0 17 12 29t27 12q17 0 29 -12t12 -29q0 -15 -12 -27t-29 -12q-15 0 -27 12t-12 27zM700 1411q0 17 12 29t27 12q17 0 29 -12t12 -29q0 -15 -12 -27t-29 -12q-15 0 -27 12t-12 27z" />
<glyph unicode="&#xa9;" horiz-adv-x="1832" d="M102 801q0 169 65 321.5t175.5 261.5t262.5 173.5t319 64.5q168 0 320 -64.5t262.5 -173.5t175.5 -261.5t65 -321.5q0 -168 -65 -320.5t-175.5 -262t-262.5 -174t-320 -64.5q-167 0 -319 64.5t-262.5 174t-175.5 262t-65 320.5zM127 801q0 -163 63 -311.5t169.5 -256 t254 -171.5t310.5 -64t311.5 64t254.5 171.5t169 256t63 311.5q0 164 -62.5 312.5t-169.5 256t-254.5 171t-311.5 63.5q-217 0 -400.5 -107.5t-290 -292t-106.5 -403.5zM397 823q0 244 149 392.5t388 148.5q230 0 371 -117l10 -80h-12q-11 50 -31 72q-43 51 -135.5 80 t-202.5 29q-102 0 -192 -32t-162 -94t-114 -165t-42 -234q0 -132 43.5 -235t117 -164.5t164 -93t191.5 -31.5q255 0 342 113q20 28 33 73h12l-12 -79q-133 -125 -373 -125q-241 0 -393 148t-152 394z" />
<glyph unicode="&#xaa;" horiz-adv-x="686" d="M82 1128q0 105 115.5 154.5t316.5 46.5v57q0 69 -9.5 111.5t-41.5 69.5q-48 43 -137 43q-71 0 -127 -39.5t-56 -104.5q0 -20 -10 -20q-12 0 -12 16q0 62 59.5 111t145.5 49q114 0 166 -59q45 -53 45 -189l-2 -260q0 -76 4 -90q9 -37 43 -37q30 0 53 23v-2 q-23 -29 -55 -29q-50 0 -62 41q-6 21 -6 88l2 211q-90 1 -159.5 -7t-128.5 -28t-90.5 -58t-31.5 -93q0 -64 45 -105t132 -41q158 0 231 127q-33 -71 -97.5 -105t-135.5 -34q-96 0 -146.5 45t-50.5 108z" />
<glyph unicode="&#xab;" horiz-adv-x="903" d="M20 502l435 430h20l-424 -430l424 -430h-20zM397 502l434 430h21l-424 -430l424 -430h-21z" />
<glyph unicode="&#xac;" horiz-adv-x="1196" d="M78 514v21h975v-535h-25v514h-950z" />
<glyph unicode="&#xad;" horiz-adv-x="806" d="M102 516v29h603v-29h-603z" />
<glyph unicode="&#xae;" horiz-adv-x="1849" d="M102 801q0 169 65 321.5t175.5 261.5t262.5 173.5t319 64.5q168 0 320 -64.5t262.5 -173.5t175.5 -261.5t65 -321.5q0 -168 -65 -320.5t-175.5 -262t-262.5 -174t-320 -64.5q-167 0 -319 64.5t-262.5 174t-175.5 262t-65 320.5zM127 801q0 -163 63 -311.5t169.5 -256 t254 -171.5t310.5 -64t311.5 64t254.5 171.5t169 256t63 311.5q0 164 -62.5 312.5t-169.5 256t-254.5 171t-311.5 63.5q-217 0 -400.5 -107.5t-290 -292t-106.5 -403.5zM532 315v11h11q51 0 63 7.5t12 39.5v938q0 32 -12 39.5t-63 7.5h-11v10h310q86 0 153.5 -12t126 -40.5 t90 -83t31.5 -132.5q0 -114 -73.5 -184t-200.5 -82q110 -8 159 -67t80 -185l9 -33q35 -142 61.5 -189t77.5 -47q25 0 55 15l2 -6q-25 -21 -61 -21q-62 0 -91 47.5t-71 206.5l-8 31q-20 77 -42 122t-59 71.5t-83.5 35t-123.5 8.5h-231v-450q0 -32 12.5 -39.5t63.5 -7.5h10 v-11h-197zM643 842h254q155 0 237.5 68t82.5 190q0 135 -95.5 193.5t-294.5 58.5h-184v-510z" />
<glyph unicode="&#xaf;" horiz-adv-x="888" d="M164 1366v18h561v-18h-561z" />
<glyph unicode="&#xb0;" horiz-adv-x="540" d="M61 1399q0 85 61 142.5t148 57.5t148 -57.5t61 -142.5t-61 -143t-148 -58t-148 58t-61 143zM80 1399q0 -78 55 -131.5t135 -53.5t135.5 53.5t55.5 131.5t-55.5 131t-135.5 53t-135 -53t-55 -131z" />
<glyph unicode="&#xb1;" horiz-adv-x="1056" d="M41 0v20h975v-20h-975zM41 549v20h475v416h25v-416h475v-20h-475v-385h-25v385h-475z" />
<glyph unicode="&#xb4;" horiz-adv-x="428" d="M109 1231l210 381h29l-221 -381h-18z" />
<glyph unicode="&#xb5;" horiz-adv-x="1163" d="M195 -537v1522h24v-627q0 -77 22 -139t58 -102t84 -67t97.5 -38.5t101.5 -11.5q67 0 128 19.5t115 59t86.5 112t32.5 167.5v627h25v-985h-25v227q-31 -114 -127 -180.5t-235 -66.5t-235.5 66.5t-127.5 180.5v-764h-24z" />
<glyph unicode="&#xb6;" horiz-adv-x="1146" d="M61 1204q0 60 14 115t50 109.5t92 94.5t147 64.5t207 24.5h433v-19h-175v-1833h-24v1833h-275v-1833h-24v1039q-186 0 -315.5 111.5t-129.5 293.5z" />
<glyph unicode="&#xb7;" horiz-adv-x="399" d="M143 532q0 26 16 42t40 16q26 0 41.5 -16t15.5 -42q0 -24 -15.5 -39.5t-41.5 -15.5q-23 0 -39.5 16t-16.5 39z" />
<glyph unicode="&#xb8;" horiz-adv-x="573" d="M82 -498q125 14 215 87t90 163q0 45 -26.5 75t-86.5 30q-68 0 -104 -45l-20 16l104 156h25l-105 -152q43 43 107 43q53 0 92 -29.5t39 -91.5q0 -101 -98.5 -173t-229.5 -83z" />
<glyph unicode="&#xba;" horiz-adv-x="749" d="M61 1298q0 101 47.5 176.5t117.5 111.5t149 36t149 -36t117 -111.5t47 -176.5t-47.5 -176.5t-117 -111t-148.5 -35.5q-58 0 -113.5 21.5t-100.5 60.5t-72.5 102t-27.5 139zM84 1298q0 -77 26 -138t68.5 -98t93 -56t103.5 -19t103.5 19t93 56t68.5 98t26 138t-26 138.5 t-68.5 98t-93 56t-103.5 19.5t-103.5 -19.5t-93 -56t-68.5 -98t-26 -138.5z" />
<glyph unicode="&#xbb;" horiz-adv-x="903" d="M51 72l424 430l-424 430h21l434 -430l-434 -430h-21zM428 72l424 430l-424 430h21l434 -430l-434 -430h-21z" />
<glyph unicode="&#xbf;" horiz-adv-x="759" d="M117 -360q0 70 28 133t72 111.5t98 95t108 92t98 92.5t72 106.5t28 124.5q0 57 -18 115t-32 84t-26 41q36 -34 67 -96t31 -142q0 -69 -27.5 -131t-71.5 -110t-97 -93.5t-106 -90.5t-97 -92.5t-71.5 -108.5t-27.5 -129q0 -110 90 -176t240 -66q68 0 129.5 18.5t89.5 38.5 q12 9 23.5 20.5t18 17t14.5 5.5q14 0 14 -16q0 -21 -57 -47q-44 -21 -108 -35t-124 -14q-161 0 -259.5 68.5t-98.5 183.5zM498 987q0 17 11 29t28 12q18 0 29.5 -11.5t11.5 -29.5q0 -16 -11.5 -27.5t-29.5 -11.5q-17 0 -28 11.5t-11 27.5z" />
<glyph unicode="&#xc0;" horiz-adv-x="1437" d="M-10 0v10h39q45 0 61 16t43 85l576 1523h16l596 -1573q13 -37 25.5 -44t62.5 -7h39v-10h-268v10h32q66 0 79 7t3 38l-194 516h-768l-170 -452q-13 -33 -17.5 -51t-5 -31t10.5 -18t25.5 -7t43.5 -2h37v-10h-266zM338 590h754l-377 1001zM514 1935h41l334 -221h-25z" />
<glyph unicode="&#xc1;" horiz-adv-x="1437" d="M-10 0v10h39q45 0 61 16t43 85l576 1523h16l596 -1573q13 -37 25.5 -44t62.5 -7h39v-10h-268v10h32q66 0 79 7t3 38l-194 516h-768l-170 -452q-13 -33 -17.5 -51t-5 -31t10.5 -18t25.5 -7t43.5 -2h37v-10h-266zM338 590h754l-377 1001zM514 1714l334 221h41l-350 -221 h-25z" />
<glyph unicode="&#xc2;" horiz-adv-x="1437" d="M-10 0v10h39q45 0 61 16t43 85l576 1523h16l596 -1573q13 -37 25.5 -44t62.5 -7h39v-10h-268v10h32q66 0 79 7t3 38l-194 516h-768l-170 -452q-13 -33 -17.5 -51t-5 -31t10.5 -18t25.5 -7t43.5 -2h37v-10h-266zM338 590h754l-377 1001zM401 1714l301 221h5l301 -221h-19 l-284 193l-285 -193h-19z" />
<glyph unicode="&#xc3;" horiz-adv-x="1437" d="M-10 0v10h39q45 0 61 16t43 85l576 1523h16l596 -1573q13 -37 25.5 -44t62.5 -7h39v-10h-268v10h32q66 0 79 7t3 38l-194 516h-768l-170 -452q-13 -33 -17.5 -51t-5 -31t10.5 -18t25.5 -7t43.5 -2h37v-10h-266zM338 590h754l-377 1001zM373 1726l76 107h530l70 96l14 -8 l-76 -106h-530l-70 -97z" />
<glyph unicode="&#xc4;" horiz-adv-x="1437" d="M-10 0v10h39q45 0 61 16t43 85l576 1523h16l596 -1573q13 -37 25.5 -44t62.5 -7h39v-10h-268v10h32q66 0 79 7t3 38l-194 516h-768l-170 -452q-13 -33 -17.5 -51t-5 -31t10.5 -18t25.5 -7t43.5 -2h37v-10h-266zM338 590h754l-377 1001zM430 1823q0 17 12 29t27 12 q17 0 29 -12t12 -29q0 -15 -12 -27t-29 -12q-15 0 -27 12t-12 27zM928 1823q0 17 12 29t27 12q17 0 29 -12t12 -29q0 -15 -12 -27t-29 -12q-15 0 -27 12t-12 27z" />
<glyph unicode="&#xc5;" horiz-adv-x="1437" d="M-10 0v10h39q45 0 61 16t43 85l576 1523h16l596 -1573q13 -37 25.5 -44t62.5 -7h39v-10h-268v10h32q66 0 79 7t3 38l-194 516h-768l-170 -452q-13 -33 -17.5 -51t-5 -31t10.5 -18t25.5 -7t43.5 -2h37v-10h-266zM338 590h754l-377 1001zM567 1825q0 62 44 103.5t108 41.5 t107.5 -41.5t43.5 -103.5q0 -63 -43.5 -104.5t-107.5 -41.5t-108 42t-44 104zM586 1825q0 -55 38 -92t95 -37t95 37t38 92t-38 92t-95 37t-95 -37t-38 -92z" />
<glyph unicode="&#xc6;" horiz-adv-x="2205" d="M-10 0v10h22q60 0 91 17.5t63 66.5l993 1518h891v-176h-12v51t-2.5 38t-4 29t-9 18t-13 12.5t-21 5.5t-28 3h-37.5h-737v-727h796v-18h-796v-830h801h48t31 7.5t20.5 13t9.5 28.5t5 43v66h13v-176h-1061v10h30q51 0 63.5 7.5t12.5 39.5v514h-653l-295 -452 q-46 -72 -47.5 -87t18.5 -19q13 -3 41 -3h37v-10h-270zM518 590h641v985z" />
<glyph unicode="&#xc7;" horiz-adv-x="1601" d="M113 801q0 250 102 436.5t286 285.5t425 99q364 0 569 -168l16 -125h-10q-19 79 -47 111q-65 79 -209.5 122.5t-316.5 43.5q-125 0 -239 -29.5t-214.5 -94t-173.5 -157t-115.5 -227t-42.5 -297.5q0 -162 44 -297t119 -227.5t177 -157t216 -94t237 -29.5q399 0 537 176 q29 39 47 111h10l-17 -123q-111 -104 -253.5 -142t-319.5 -38h-45l-102 -148q43 43 106 43q53 0 92 -29.5t39 -91.5q0 -101 -98.5 -173t-229.5 -83l-2 4q125 14 215.5 87t90.5 163q0 45 -26.5 75t-86.5 30q-69 0 -105 -45l-20 16l102 154q-341 22 -549 242.5t-208 576.5z " />
<glyph unicode="&#xc8;" horiz-adv-x="1300" d="M174 0v10h31q51 0 63.5 7.5t12.5 39.5v1497q0 32 -12.5 40t-63.5 8h-31v10h971v-176h-12v51t-2.5 38t-4 29t-9 18t-13 12.5t-21 5.5t-28 3h-37.5h-711v-727h770v-18h-770v-830h774q33 0 48 0.5t31.5 7t21 13t9.5 29t5 42.5v66h12v-176h-1034zM494 1935h41l333 -221h-24z " />
<glyph unicode="&#xc9;" horiz-adv-x="1300" d="M174 0v10h31q51 0 63.5 7.5t12.5 39.5v1497q0 32 -12.5 40t-63.5 8h-31v10h971v-176h-12v51t-2.5 38t-4 29t-9 18t-13 12.5t-21 5.5t-28 3h-37.5h-711v-727h770v-18h-770v-830h774q33 0 48 0.5t31.5 7t21 13t9.5 29t5 42.5v66h12v-176h-1034zM514 1714l334 221h41 l-350 -221h-25z" />
<glyph unicode="&#xca;" horiz-adv-x="1300" d="M174 0v10h31q51 0 63.5 7.5t12.5 39.5v1497q0 32 -12.5 40t-63.5 8h-31v10h971v-176h-12v51t-2.5 38t-4 29t-9 18t-13 12.5t-21 5.5t-28 3h-37.5h-711v-727h770v-18h-770v-830h774q33 0 48 0.5t31.5 7t21 13t9.5 29t5 42.5v66h12v-176h-1034zM401 1714l301 221h5 l301 -221h-19l-284 193l-285 -193h-19z" />
<glyph unicode="&#xcb;" horiz-adv-x="1300" d="M174 0v10h31q51 0 63.5 7.5t12.5 39.5v1497q0 32 -12.5 40t-63.5 8h-31v10h971v-176h-12v51t-2.5 38t-4 29t-9 18t-13 12.5t-21 5.5t-28 3h-37.5h-711v-727h770v-18h-770v-830h774q33 0 48 0.5t31.5 7t21 13t9.5 29t5 42.5v66h12v-176h-1034zM406 1823q0 17 11.5 29 t26.5 12q17 0 29 -12t12 -29q0 -15 -12 -27t-29 -12q-15 0 -26.5 12t-11.5 27zM903 1823q0 17 12 29t27 12q17 0 29 -12t12 -29q0 -15 -12 -27t-29 -12q-15 0 -27 12t-12 27z" />
<glyph unicode="&#xcc;" horiz-adv-x="585" d="M111 1935h41l333 -221h-24zM174 0v10h31q51 0 63.5 7.5t12.5 39.5v1497q0 32 -12.5 40t-63.5 8h-31v10h240v-10h-31q-51 0 -63.5 -8t-12.5 -40v-1497q0 -32 12.5 -39.5t63.5 -7.5h31v-10h-240z" />
<glyph unicode="&#xcd;" horiz-adv-x="585" d="M111 1714l333 221h41l-350 -221h-24zM174 0v10h31q51 0 63.5 7.5t12.5 39.5v1497q0 32 -12.5 40t-63.5 8h-31v10h240v-10h-31q-51 0 -63.5 -8t-12.5 -40v-1497q0 -32 12.5 -39.5t63.5 -7.5h31v-10h-240z" />
<glyph unicode="&#xce;" horiz-adv-x="585" d="M47 1714l260 221h4l260 -221h-18l-244 193l-243 -193h-19zM174 0v10h31q51 0 63.5 7.5t12.5 39.5v1497q0 32 -12.5 40t-63.5 8h-31v10h240v-10h-31q-51 0 -63.5 -8t-12.5 -40v-1497q0 -32 12.5 -39.5t63.5 -7.5h31v-10h-240z" />
<glyph unicode="&#xcf;" horiz-adv-x="585" d="M109 1823q0 17 11.5 29t26.5 12q17 0 29 -12t12 -29q0 -15 -12 -27t-29 -12q-15 0 -26.5 12t-11.5 27zM174 0v10h31q51 0 63.5 7.5t12.5 39.5v1497q0 32 -12.5 40t-63.5 8h-31v10h240v-10h-31q-51 0 -63.5 -8t-12.5 -40v-1497q0 -32 12.5 -39.5t63.5 -7.5h31v-10h-240z M401 1823q0 17 12 29t27 12q17 0 29 -12t12 -29q0 -15 -12 -27t-29 -12q-15 0 -27 12t-12 27z" />
<glyph unicode="&#xd0;" horiz-adv-x="1681" d="M20 807v18h261v729q0 32 -12.5 40t-63.5 8h-31v10h313q379 0 603 -82q479 -178 479 -725q0 -285 -134 -473.5t-405 -270.5q-198 -61 -573 -61h-283v10h31q51 0 63.5 7.5t12.5 39.5v750h-261zM307 18h146q357 0 563 62q522 157 522 725q0 506 -414 688 q-123 53 -282.5 76.5t-390.5 23.5h-144v-768h428v-18h-428v-789z" />
<glyph unicode="&#xd1;" horiz-adv-x="1687" d="M174 0v10h31q48 0 66 9.5t18 37.5v1497q0 48 -84 48h-31v10h150l1114 -1585v1527q0 30 -15.5 39t-62.5 9h-31v10h246v-10h-31q-47 0 -65.5 -10t-18.5 -38v-1605l-1149 1634v-1526q0 -30 15.5 -38.5t62.5 -8.5h31v-10h-246zM578 1726l75 107h531l69 96l15 -8l-76 -106 h-530l-70 -97z" />
<glyph unicode="&#xd2;" d="M113 801q0 186 62.5 341.5t171.5 260t256 162t315 57.5q227 0 409.5 -98t290.5 -286.5t108 -436.5t-108 -436.5t-290.5 -286.5t-409.5 -98q-168 0 -315 57.5t-256 162t-171.5 260t-62.5 341.5zM143 801q0 -162 45 -297t120.5 -227.5t176.5 -157t210 -94t223 -29.5 q115 0 225 29.5t211 94t176.5 157t120.5 227.5t45 297t-45 297t-120.5 227.5t-176.5 157t-211 94t-225 29.5q-114 0 -223 -29.5t-210 -94t-176.5 -157t-120.5 -227.5t-45 -297zM700 1935h41l334 -221h-24z" />
<glyph unicode="&#xd3;" d="M113 801q0 186 62.5 341.5t171.5 260t256 162t315 57.5q227 0 409.5 -98t290.5 -286.5t108 -436.5t-108 -436.5t-290.5 -286.5t-409.5 -98q-168 0 -315 57.5t-256 162t-171.5 260t-62.5 341.5zM143 801q0 -162 45 -297t120.5 -227.5t176.5 -157t210 -94t223 -29.5 q115 0 225 29.5t211 94t176.5 157t120.5 227.5t45 297t-45 297t-120.5 227.5t-176.5 157t-211 94t-225 29.5q-114 0 -223 -29.5t-210 -94t-176.5 -157t-120.5 -227.5t-45 -297zM754 1714l333 221h41l-350 -221h-24z" />
<glyph unicode="&#xd4;" d="M113 801q0 186 62.5 341.5t171.5 260t256 162t315 57.5q227 0 409.5 -98t290.5 -286.5t108 -436.5t-108 -436.5t-290.5 -286.5t-409.5 -98q-168 0 -315 57.5t-256 162t-171.5 260t-62.5 341.5zM143 801q0 -162 45 -297t120.5 -227.5t176.5 -157t210 -94t223 -29.5 q115 0 225 29.5t211 94t176.5 157t120.5 227.5t45 297t-45 297t-120.5 227.5t-176.5 157t-211 94t-225 29.5q-114 0 -223 -29.5t-210 -94t-176.5 -157t-120.5 -227.5t-45 -297zM618 1714l302 221h4l301 -221h-19l-284 193l-285 -193h-19z" />
<glyph unicode="&#xd5;" d="M113 801q0 186 62.5 341.5t171.5 260t256 162t315 57.5q227 0 409.5 -98t290.5 -286.5t108 -436.5t-108 -436.5t-290.5 -286.5t-409.5 -98q-168 0 -315 57.5t-256 162t-171.5 260t-62.5 341.5zM143 801q0 -162 45 -297t120.5 -227.5t176.5 -157t210 -94t223 -29.5 q115 0 225 29.5t211 94t176.5 157t120.5 227.5t45 297t-45 297t-120.5 227.5t-176.5 157t-211 94t-225 29.5q-114 0 -223 -29.5t-210 -94t-176.5 -157t-120.5 -227.5t-45 -297zM573 1726l76 107h531l69 96l15 -8l-76 -106h-531l-69 -97z" />
<glyph unicode="&#xd6;" d="M113 801q0 186 62.5 341.5t171.5 260t256 162t315 57.5q227 0 409.5 -98t290.5 -286.5t108 -436.5t-108 -436.5t-290.5 -286.5t-409.5 -98q-168 0 -315 57.5t-256 162t-171.5 260t-62.5 341.5zM143 801q0 -162 45 -297t120.5 -227.5t176.5 -157t210 -94t223 -29.5 q115 0 225 29.5t211 94t176.5 157t120.5 227.5t45 297t-45 297t-120.5 227.5t-176.5 157t-211 94t-225 29.5q-114 0 -223 -29.5t-210 -94t-176.5 -157t-120.5 -227.5t-45 -297zM623 1823q0 17 12 29t27 12q17 0 28.5 -12t11.5 -29q0 -15 -11.5 -27t-28.5 -12q-15 0 -27 12 t-12 27zM1120 1823q0 17 12 29t27 12q17 0 29 -12t12 -29q0 -15 -12 -27t-29 -12q-15 0 -27 12t-12 27z" />
<glyph unicode="&#xd7;" horiz-adv-x="835" d="M61 834l15 14l342 -342l336 336l14 -15l-336 -335l342 -340l-14 -15l-342 340l-336 -336l-14 15l335 336z" />
<glyph unicode="&#xd8;" d="M113 801q0 186 62.5 341.5t171.5 260t256 162t315 57.5q279 0 489 -149l141 188l21 -12l-142 -191q141 -109 220 -277t79 -380q0 -248 -108 -436.5t-290.5 -286.5t-409.5 -98q-280 0 -484 147l-127 -170l-18 14l127 170q-143 108 -223 277.5t-80 382.5zM143 801 q0 -216 76.5 -377.5t208.5 -265.5l967 1296q-102 75 -226 113.5t-251 38.5q-114 0 -223 -29.5t-210 -94t-176.5 -157t-120.5 -227.5t-45 -297zM446 145q203 -149 472 -149q115 0 225 29.5t211 94t176.5 157t120.5 227.5t45 297q0 215 -76 376t-207 263z" />
<glyph unicode="&#xd9;" horiz-adv-x="1599" d="M72 1602v10h241v-10h-30q-51 0 -63.5 -8t-12.5 -40v-952q0 -281 146.5 -441.5t443.5 -160.5q153 0 268.5 46.5t186 131.5t105 198t34.5 253v915q0 32 -16.5 45t-61.5 13h-31v10h246v-10h-31q-45 0 -64.5 -14t-19.5 -44v-915q0 -314 -158.5 -481.5t-457.5 -167.5 q-295 0 -457 154.5t-162 477.5v942q0 32 -12.5 40t-63.5 8h-30zM606 1935h41l334 -221h-25z" />
<glyph unicode="&#xda;" horiz-adv-x="1599" d="M72 1602v10h241v-10h-30q-51 0 -63.5 -8t-12.5 -40v-952q0 -281 146.5 -441.5t443.5 -160.5q153 0 268.5 46.5t186 131.5t105 198t34.5 253v915q0 32 -16.5 45t-61.5 13h-31v10h246v-10h-31q-45 0 -64.5 -14t-19.5 -44v-915q0 -314 -158.5 -481.5t-457.5 -167.5 q-295 0 -457 154.5t-162 477.5v942q0 32 -12.5 40t-63.5 8h-30zM655 1714l334 221h41l-350 -221h-25z" />
<glyph unicode="&#xdb;" horiz-adv-x="1599" d="M72 1602v10h241v-10h-30q-51 0 -63.5 -8t-12.5 -40v-952q0 -281 146.5 -441.5t443.5 -160.5q153 0 268.5 46.5t186 131.5t105 198t34.5 253v915q0 32 -16.5 45t-61.5 13h-31v10h246v-10h-31q-45 0 -64.5 -14t-19.5 -44v-915q0 -314 -158.5 -481.5t-457.5 -167.5 q-295 0 -457 154.5t-162 477.5v942q0 32 -12.5 40t-63.5 8h-30zM508 1714l301 221h4l301 -221h-18l-285 193l-285 -193h-18z" />
<glyph unicode="&#xdc;" horiz-adv-x="1599" d="M72 1602v10h241v-10h-30q-51 0 -63.5 -8t-12.5 -40v-952q0 -281 146.5 -441.5t443.5 -160.5q153 0 268.5 46.5t186 131.5t105 198t34.5 253v915q0 32 -16.5 45t-61.5 13h-31v10h246v-10h-31q-45 0 -64.5 -14t-19.5 -44v-915q0 -314 -158.5 -481.5t-457.5 -167.5 q-295 0 -457 154.5t-162 477.5v942q0 32 -12.5 40t-63.5 8h-30zM510 1823q0 17 12 29t27 12q17 0 29 -12t12 -29q0 -15 -12 -27t-29 -12q-15 0 -27 12t-12 27zM1008 1823q0 17 12 29t27 12q17 0 28.5 -12t11.5 -29q0 -15 -11.5 -27t-28.5 -12q-15 0 -27 12t-12 27z" />
<glyph unicode="&#xdd;" horiz-adv-x="1316" d="M-20 1602v10h249v-10h-32q-63 0 -72 -9.5t12 -40.5l514 -931l492 872q19 34 26.5 51t11 31t-6.5 18.5t-24 6.5t-44 2h-37v10h268v-10h-39q-48 0 -66 -15.5t-58 -85.5l-512 -903v-541q0 -32 12 -39.5t63 -7.5h51v-10h-280v10h51q51 0 63.5 7.5t12.5 39.5v543l-529 950 q-19 32 -41 42t-67 10h-18zM528 1714l334 221h41l-350 -221h-25z" />
<glyph unicode="&#xde;" horiz-adv-x="1247" d="M174 0v10h31q51 0 63.5 7.5t12.5 39.5v1497q0 32 -12.5 40t-63.5 8h-31v10h240v-10h-31q-51 0 -63.5 -8t-12.5 -40v-282h305q133 0 240 -23.5t194 -75t135 -143t48 -217.5q0 -95 -30.5 -172.5t-83 -130.5t-125 -89t-154.5 -52.5t-174 -16.5q-176 0 -320 58 q146 -41 295 -41q87 0 165.5 14t152 47.5t126.5 83.5t85 126.5t32 172.5q0 440 -600 440h-291v-1196q0 -32 12.5 -39.5t63.5 -7.5h31v-10h-240z" />
<glyph unicode="&#xdf;" horiz-adv-x="1206" d="M117 0v10h10q51 0 63.5 7.5t12.5 39.5v871q0 32 -12.5 39.5t-63.5 7.5h-10v10h86v152q0 54 3 99t13 96.5t26.5 91t45 78t66.5 63.5t93.5 40t124.5 15q130 0 221 -59.5t91 -159.5q0 -44 -18.5 -83.5t-42.5 -65.5t-61.5 -51t-61 -36.5t-54.5 -25.5q-69 -30 -97 -67.5 t-28 -92.5q0 -42 17 -77.5t52 -66.5t71.5 -54.5t93.5 -53.5l102 -53q143 -74 205.5 -159t62.5 -208q0 -83 -33.5 -147.5t-89.5 -102.5t-124 -57.5t-144 -19.5q-90 0 -166 19t-119.5 47t-67.5 56.5t-24 49.5q0 16 13 16q6 0 10 -4t6.5 -10t9 -18t13.5 -23q39 -61 127 -91 t198 -30q160 0 263.5 83t103.5 226q0 111 -53 193t-199 157l-102 54q-124 64 -187 127.5t-63 138.5q0 56 29 99t106 77q45 21 70 34t59.5 36.5t52 46.5t30.5 58t13 77q0 98 -80.5 153.5t-206.5 55.5q-75 0 -133.5 -19.5t-95 -56t-61 -79t-36 -99t-16 -104t-4.5 -105.5v-1145 h-110z" />
<glyph unicode="&#xe0;" horiz-adv-x="1005" d="M70 231q0 86 50.5 149t144 101t218.5 55t283 15v53q2 136 -13.5 210.5t-70.5 121.5q-80 70 -221 70q-72 0 -139 -28t-112.5 -84t-45.5 -126q0 -35 -17 -35q-14 0 -14 27q0 101 95 179.5t235 78.5q181 0 264 -96q40 -46 54 -117t12 -213l-7 -389q0 -109 9 -146 q12 -57 69 -57q49 0 84 35l2 -2q-35 -47 -90 -47q-70 0 -88 65q-10 38 -10 142v10l4 334q-668 4 -668 -304q0 -102 75.5 -169.5t215.5 -67.5q49 0 96.5 10t98.5 32t97.5 64t80.5 101q-36 -78 -101.5 -130t-134 -72.5t-139.5 -20.5q-156 0 -236.5 73.5t-80.5 177.5zM317 1612 h29l211 -381h-18z" />
<glyph unicode="&#xe1;" horiz-adv-x="1005" d="M70 231q0 86 50.5 149t144 101t218.5 55t283 15v53q2 136 -13.5 210.5t-70.5 121.5q-80 70 -221 70q-72 0 -139 -28t-112.5 -84t-45.5 -126q0 -35 -17 -35q-14 0 -14 27q0 101 95 179.5t235 78.5q181 0 264 -96q40 -46 54 -117t12 -213l-7 -389q0 -109 9 -146 q12 -57 69 -57q49 0 84 35l2 -2q-35 -47 -90 -47q-70 0 -88 65q-10 38 -10 142v10l4 334q-668 4 -668 -304q0 -102 75.5 -169.5t215.5 -67.5q49 0 96.5 10t98.5 32t97.5 64t80.5 101q-36 -78 -101.5 -130t-134 -72.5t-139.5 -20.5q-156 0 -236.5 73.5t-80.5 177.5zM408 1231 l210 381h29l-221 -381h-18z" />
<glyph unicode="&#xe2;" horiz-adv-x="1005" d="M70 231q0 86 50.5 149t144 101t218.5 55t283 15v53q2 136 -13.5 210.5t-70.5 121.5q-80 70 -221 70q-72 0 -139 -28t-112.5 -84t-45.5 -126q0 -35 -17 -35q-14 0 -14 27q0 101 95 179.5t235 78.5q181 0 264 -96q40 -46 54 -117t12 -213l-7 -389q0 -109 9 -146 q12 -57 69 -57q49 0 84 35l2 -2q-35 -47 -90 -47q-70 0 -88 65q-10 38 -10 142v10l4 334q-668 4 -668 -304q0 -102 75.5 -169.5t215.5 -67.5q49 0 96.5 10t98.5 32t97.5 64t80.5 101q-36 -78 -101.5 -130t-134 -72.5t-139.5 -20.5q-156 0 -236.5 73.5t-80.5 177.5zM170 1231 l301 381h4l301 -381h-18l-285 344l-285 -344h-18z" />
<glyph unicode="&#xe3;" horiz-adv-x="1005" d="M70 231q0 86 50.5 149t144 101t218.5 55t283 15v53q2 136 -13.5 210.5t-70.5 121.5q-80 70 -221 70q-72 0 -139 -28t-112.5 -84t-45.5 -126q0 -35 -17 -35q-14 0 -14 27q0 101 95 179.5t235 78.5q181 0 264 -96q40 -46 54 -117t12 -213l-7 -389q0 -109 9 -146 q12 -57 69 -57q49 0 84 35l2 -2q-35 -47 -90 -47q-70 0 -88 65q-10 38 -10 142v10l4 334q-668 4 -668 -304q0 -102 75.5 -169.5t215.5 -67.5q49 0 96.5 10t98.5 32t97.5 64t80.5 101q-36 -78 -101.5 -130t-134 -72.5t-139.5 -20.5q-156 0 -236.5 73.5t-80.5 177.5zM150 1317 l75 106h531l69 97l15 -9l-76 -106h-531l-69 -96z" />
<glyph unicode="&#xe4;" horiz-adv-x="1005" d="M70 231q0 86 50.5 149t144 101t218.5 55t283 15v53q2 136 -13.5 210.5t-70.5 121.5q-80 70 -221 70q-72 0 -139 -28t-112.5 -84t-45.5 -126q0 -35 -17 -35q-14 0 -14 27q0 101 95 179.5t235 78.5q181 0 264 -96q40 -46 54 -117t12 -213l-7 -389q0 -109 9 -146 q12 -57 69 -57q49 0 84 35l2 -2q-35 -47 -90 -47q-70 0 -88 65q-10 38 -10 142v10l4 334q-668 4 -668 -304q0 -102 75.5 -169.5t215.5 -67.5q49 0 96.5 10t98.5 32t97.5 64t80.5 101q-36 -78 -101.5 -130t-134 -72.5t-139.5 -20.5q-156 0 -236.5 73.5t-80.5 177.5zM188 1411 q0 17 12 29t27 12q17 0 29 -12t12 -29q0 -15 -12 -27t-29 -12q-15 0 -27 12t-12 27zM686 1411q0 17 12 29t27 12q17 0 29 -12t12 -29q0 -15 -12 -27t-29 -12q-15 0 -27 12t-12 27z" />
<glyph unicode="&#xe5;" horiz-adv-x="1005" d="M70 231q0 86 50.5 149t144 101t218.5 55t283 15v53q2 136 -13.5 210.5t-70.5 121.5q-80 70 -221 70q-72 0 -139 -28t-112.5 -84t-45.5 -126q0 -35 -17 -35q-14 0 -14 27q0 101 95 179.5t235 78.5q181 0 264 -96q40 -46 54 -117t12 -213l-7 -389q0 -109 9 -146 q12 -57 69 -57q49 0 84 35l2 -2q-35 -47 -90 -47q-70 0 -88 65q-10 38 -10 142v10l4 334q-668 4 -668 -304q0 -102 75.5 -169.5t215.5 -67.5q49 0 96.5 10t98.5 32t97.5 64t80.5 101q-36 -78 -101.5 -130t-134 -72.5t-139.5 -20.5q-156 0 -236.5 73.5t-80.5 177.5zM285 1399 q0 85 61 142.5t148 57.5t147.5 -57.5t60.5 -142.5q0 -86 -60.5 -143.5t-147.5 -57.5t-148 58t-61 143zM303 1399q0 -78 55.5 -131.5t135.5 -53.5t135 53.5t55 131.5t-55 131t-135 53t-135.5 -53t-55.5 -131z" />
<glyph unicode="&#xe6;" horiz-adv-x="1722" d="M70 231q0 86 50 149t143 101t218 55t283 15l2 108q3 182 -69 267.5t-238 85.5q-71 0 -137 -26t-112 -80t-46 -124q0 -34 -17 -34q-14 0 -14 26q0 100 94.5 175t233.5 75q175 0 251 -82t79 -252q49 155 171 244.5t277 89.5q189 0 306 -112.5t120 -303.5h-866 q-8 -44 -8 -102q0 -144 54 -258.5t160.5 -183t249.5 -68.5q116 0 218 49.5t163 138.5l4 -2q-67 -101 -172.5 -151.5t-216.5 -50.5q-218 0 -352.5 142t-134.5 384v29v2q-666 4 -666 -304q0 -103 76 -170t219 -67q134 0 233.5 56t172.5 179q-125 -251 -412 -251 q-156 0 -236.5 73.5t-80.5 177.5zM801 623h835q-3 176 -111.5 282.5t-287.5 106.5q-162 0 -282.5 -105.5t-153.5 -283.5z" />
<glyph unicode="&#xe7;" horiz-adv-x="978" d="M78 502q0 117 38 214.5t104.5 162.5t156 101t192.5 36q131 0 242 -51q51 -24 83 -52.5t32 -46.5q0 -12 -13 -12q-7 0 -11.5 4.5t-16.5 22.5q-42 56 -130.5 89.5t-183.5 33.5q-198 0 -331.5 -138.5t-133.5 -363.5q0 -144 55 -258t161 -181t245 -67q124 0 226.5 49.5 t160.5 138.5l4 -2q-64 -101 -171 -151.5t-220 -50.5h-10l-102 -148q43 43 106 43q53 0 92 -29.5t39 -91.5q0 -68 -47.5 -125t-121.5 -90.5t-158 -40.5l-3 4q125 14 215.5 87t90.5 163q0 45 -26.5 75t-86.5 30q-68 0 -104 -45l-21 16l102 152q-204 12 -329 152t-125 370z" />
<glyph unicode="&#xe8;" horiz-adv-x="1038" d="M78 508q0 117 38 215.5t103 164.5t152 103t184 37q189 0 306 -113.5t120 -304.5h-866q-9 -50 -9 -102q0 -144 54 -259t161 -184t250 -69q122 0 227.5 49.5t166.5 138.5l4 -2q-67 -101 -175.5 -151.5t-226.5 -50.5q-218 0 -353.5 143t-135.5 385zM117 625h835 q-3 176 -111.5 283.5t-287.5 107.5q-161 0 -282.5 -107t-153.5 -284zM397 1612h29l211 -381h-19z" />
<glyph unicode="&#xe9;" horiz-adv-x="1038" d="M78 508q0 117 38 215.5t103 164.5t152 103t184 37q189 0 306 -113.5t120 -304.5h-866q-9 -50 -9 -102q0 -144 54 -259t161 -184t250 -69q122 0 227.5 49.5t166.5 138.5l4 -2q-67 -101 -175.5 -151.5t-226.5 -50.5q-218 0 -353.5 143t-135.5 385zM117 625h835 q-3 176 -111.5 283.5t-287.5 107.5q-161 0 -282.5 -107t-153.5 -284zM455 1231l211 381h28l-221 -381h-18z" />
<glyph unicode="&#xea;" horiz-adv-x="1038" d="M78 508q0 117 38 215.5t103 164.5t152 103t184 37q189 0 306 -113.5t120 -304.5h-866q-9 -50 -9 -102q0 -144 54 -259t161 -184t250 -69q122 0 227.5 49.5t166.5 138.5l4 -2q-67 -101 -175.5 -151.5t-226.5 -50.5q-218 0 -353.5 143t-135.5 385zM117 625h835 q-3 176 -111.5 283.5t-287.5 107.5q-161 0 -282.5 -107t-153.5 -284zM236 1231l301 381h4l301 -381h-19l-284 344l-285 -344h-18z" />
<glyph unicode="&#xeb;" horiz-adv-x="1038" d="M78 508q0 117 38 215.5t103 164.5t152 103t184 37q189 0 306 -113.5t120 -304.5h-866q-9 -50 -9 -102q0 -144 54 -259t161 -184t250 -69q122 0 227.5 49.5t166.5 138.5l4 -2q-67 -101 -175.5 -151.5t-226.5 -50.5q-218 0 -353.5 143t-135.5 385zM117 625h835 q-3 176 -111.5 283.5t-287.5 107.5q-161 0 -282.5 -107t-153.5 -284zM260 1411q0 17 12 29t27 12q17 0 29 -12t12 -29q0 -15 -12 -27t-29 -12q-15 0 -27 12t-12 27zM758 1411q0 17 12 29t27 12q17 0 29 -12t12 -29q0 -15 -12 -27t-29 -12q-15 0 -27 12t-12 27z" />
<glyph unicode="&#xec;" horiz-adv-x="446" d="M96 1612h29l211 -381h-19zM117 0v10h10q51 0 63.5 7.5t12.5 39.5v871q0 32 -12.5 39.5t-63.5 7.5h-10v10h110v-928q0 -32 12.5 -39.5t63.5 -7.5h10v-10h-196z" />
<glyph unicode="&#xed;" horiz-adv-x="446" d="M70 1231l211 381h28l-221 -381h-18zM117 0v10h10q51 0 63.5 7.5t12.5 39.5v871q0 32 -12.5 39.5t-63.5 7.5h-10v10h110v-928q0 -32 12.5 -39.5t63.5 -7.5h10v-10h-196z" />
<glyph unicode="&#xee;" horiz-adv-x="446" d="M-23 1231l240 381h4l240 -381h-19l-223 344l-223 -344h-19zM117 0v10h10q51 0 63.5 7.5t12.5 39.5v871q0 32 -12.5 39.5t-63.5 7.5h-10v10h110v-928q0 -32 12.5 -39.5t63.5 -7.5h10v-10h-196z" />
<glyph unicode="&#xef;" horiz-adv-x="446" d="M23 1411q0 17 11.5 29t26.5 12q17 0 29 -12t12 -29q0 -15 -12 -27t-29 -12q-15 0 -26.5 12t-11.5 27zM117 0v10h10q51 0 63.5 7.5t12.5 39.5v871q0 32 -12.5 39.5t-63.5 7.5h-10v10h110v-928q0 -32 12.5 -39.5t63.5 -7.5h10v-10h-196zM315 1411q0 17 12 29t27 12 q17 0 29 -12t12 -29q0 -15 -12 -27t-29 -12q-15 0 -27 12t-12 27z" />
<glyph unicode="&#xf0;" horiz-adv-x="1169" d="M102 518q0 116 31 209.5t81 152t116 98t132.5 55.5t135.5 16q127 0 231.5 -52.5t177 -163.5t93.5 -268q6 311 -103 530.5t-309 348.5l-184 -189l-12 13l180 186q-212 131 -504 160l2 8q300 -34 510 -158l156 162l14 -14l-152 -158q212 -130 321 -347.5t109 -508.5 q0 -125 -30.5 -234t-91 -196t-159.5 -137.5t-226 -50.5q-232 0 -375.5 149.5t-143.5 388.5zM133 510q0 -122 39.5 -221.5t106.5 -163.5t155 -98.5t187 -34.5q133 0 240.5 68t166.5 184t59 256q0 149 -61 271t-173.5 193.5t-254.5 71.5q-114 0 -204 -41t-146.5 -113 t-85.5 -166.5t-29 -205.5z" />
<glyph unicode="&#xf1;" horiz-adv-x="1148" d="M117 0v10h10q51 0 63.5 7.5t12.5 39.5v871q0 32 -12.5 39.5t-63.5 7.5h-10v10h110v-928q0 -32 12.5 -39.5t63.5 -7.5h10v-10h-196zM227 676q15 89 52.5 156.5t91 106.5t115 58t130.5 19q175 0 267 -105q50 -59 69 -149t19 -236v-469q0 -32 12.5 -39.5t63.5 -7.5h10v-10 h-197v10h10q51 0 63.5 7.5t12.5 39.5v408q0 169 -13 260.5t-56 153.5q-82 120 -269 120q-150 0 -250.5 -88.5t-130.5 -234.5zM242 1317l75 106h531l70 97l14 -9l-76 -106h-530l-70 -96z" />
<glyph unicode="&#xf2;" horiz-adv-x="1167" d="M78 504q0 123 44.5 224.5t117.5 165.5t162 99t182 35t182 -35t162 -99t117.5 -165.5t44.5 -224.5t-44.5 -224.5t-117.5 -165.5t-162 -99t-182 -35t-182 35t-162 99t-117.5 165.5t-44.5 224.5zM106 504q0 -100 28.5 -185t76 -144t109.5 -101t129 -62t135 -20t134.5 20 t128.5 62t109.5 101t76 144t28.5 185q0 124 -43.5 224.5t-113.5 161.5t-152.5 93.5t-167.5 32.5t-167.5 -32.5t-153 -93.5t-114 -161.5t-43.5 -224.5zM481 1612h29l211 -381h-19z" />
<glyph unicode="&#xf3;" horiz-adv-x="1167" d="M78 504q0 123 44.5 224.5t117.5 165.5t162 99t182 35t182 -35t162 -99t117.5 -165.5t44.5 -224.5t-44.5 -224.5t-117.5 -165.5t-162 -99t-182 -35t-182 35t-162 99t-117.5 165.5t-44.5 224.5zM106 504q0 -100 28.5 -185t76 -144t109.5 -101t129 -62t135 -20t134.5 20 t128.5 62t109.5 101t76 144t28.5 185q0 124 -43.5 224.5t-113.5 161.5t-152.5 93.5t-167.5 32.5t-167.5 -32.5t-153 -93.5t-114 -161.5t-43.5 -224.5zM455 1231l211 381h28l-221 -381h-18z" />
<glyph unicode="&#xf4;" horiz-adv-x="1167" d="M78 504q0 123 44.5 224.5t117.5 165.5t162 99t182 35t182 -35t162 -99t117.5 -165.5t44.5 -224.5t-44.5 -224.5t-117.5 -165.5t-162 -99t-182 -35t-182 35t-162 99t-117.5 165.5t-44.5 224.5zM106 504q0 -100 28.5 -185t76 -144t109.5 -101t129 -62t135 -20t134.5 20 t128.5 62t109.5 101t76 144t28.5 185q0 124 -43.5 224.5t-113.5 161.5t-152.5 93.5t-167.5 32.5t-167.5 -32.5t-153 -93.5t-114 -161.5t-43.5 -224.5zM281 1231l301 381h4l301 -381h-19l-284 344l-285 -344h-18z" />
<glyph unicode="&#xf5;" horiz-adv-x="1167" d="M78 504q0 123 44.5 224.5t117.5 165.5t162 99t182 35t182 -35t162 -99t117.5 -165.5t44.5 -224.5t-44.5 -224.5t-117.5 -165.5t-162 -99t-182 -35t-182 35t-162 99t-117.5 165.5t-44.5 224.5zM106 504q0 -100 28.5 -185t76 -144t109.5 -101t129 -62t135 -20t134.5 20 t128.5 62t109.5 101t76 144t28.5 185q0 124 -43.5 224.5t-113.5 161.5t-152.5 93.5t-167.5 32.5t-167.5 -32.5t-153 -93.5t-114 -161.5t-43.5 -224.5zM238 1317l75 106h531l69 97l15 -9l-76 -106h-530l-70 -96z" />
<glyph unicode="&#xf6;" horiz-adv-x="1167" d="M78 504q0 123 44.5 224.5t117.5 165.5t162 99t182 35t182 -35t162 -99t117.5 -165.5t44.5 -224.5t-44.5 -224.5t-117.5 -165.5t-162 -99t-182 -35t-182 35t-162 99t-117.5 165.5t-44.5 224.5zM106 504q0 -100 28.5 -185t76 -144t109.5 -101t129 -62t135 -20t134.5 20 t128.5 62t109.5 101t76 144t28.5 185q0 124 -43.5 224.5t-113.5 161.5t-152.5 93.5t-167.5 32.5t-167.5 -32.5t-153 -93.5t-114 -161.5t-43.5 -224.5zM297 1411q0 17 12 29t27 12q17 0 29 -12t12 -29q0 -15 -12 -27t-29 -12q-15 0 -27 12t-12 27zM795 1411q0 17 12 29t27 12 q17 0 28.5 -12t11.5 -29q0 -15 -11.5 -27t-28.5 -12q-15 0 -27 12t-12 27z" />
<glyph unicode="&#xf7;" horiz-adv-x="1056" d="M41 487v21h975v-21h-975zM489 242q0 17 11 29t28 12q18 0 29.5 -11.5t11.5 -29.5q0 -16 -11.5 -27.5t-29.5 -11.5q-17 0 -28 11.5t-11 27.5zM489 752q0 17 11 29t28 12q18 0 29.5 -11.5t11.5 -29.5q0 -16 -11.5 -27.5t-29.5 -11.5q-17 0 -28 11.5t-11 27.5z" />
<glyph unicode="&#xf8;" horiz-adv-x="1167" d="M78 504q0 123 44.5 224.5t117.5 165.5t162 99t182 35q156 0 284 -88l121 164l21 -12l-123 -164q94 -69 148.5 -177t54.5 -247q0 -123 -44.5 -224.5t-117.5 -165.5t-162 -99t-182 -35q-181 0 -320 112l-100 -135l-19 14l103 135q-170 153 -170 398zM106 504 q0 -239 152 -381l600 805q-125 88 -274 88q-85 0 -167.5 -32.5t-153 -93.5t-114 -161.5t-43.5 -224.5zM276 106q64 -55 146 -84.5t162 -29.5q68 0 134.5 20t128.5 62t109.5 101t76 144t28.5 185q0 135 -50 238.5t-134 170.5z" />
<glyph unicode="&#xf9;" horiz-adv-x="1099" d="M61 975v10h111v-561q0 -183 51 -274q85 -154 275 -154q139 0 244.5 92t134.5 207q-16 -77 -56.5 -138.5t-94 -99.5t-114.5 -57.5t-123 -19.5q-94 0 -168 40t-118 117q-56 98 -56 275v516q0 32 -12 39.5t-63 7.5h-11zM367 1612h28l211 -381h-18zM791 975v10h110v-928 q0 -32 12.5 -39.5t63.5 -7.5h10v-10h-110v928q0 32 -12.5 39.5t-63.5 7.5h-10z" />
<glyph unicode="&#xfa;" horiz-adv-x="1099" d="M61 975v10h111v-561q0 -183 51 -274q85 -154 275 -154q139 0 244.5 92t134.5 207q-16 -77 -56.5 -138.5t-94 -99.5t-114.5 -57.5t-123 -19.5q-94 0 -168 40t-118 117q-56 98 -56 275v516q0 32 -12 39.5t-63 7.5h-11zM422 1231l211 381h29l-222 -381h-18zM791 975v10h110 v-928q0 -32 12.5 -39.5t63.5 -7.5h10v-10h-110v928q0 32 -12.5 39.5t-63.5 7.5h-10z" />
<glyph unicode="&#xfb;" horiz-adv-x="1099" d="M61 975v10h111v-561q0 -183 51 -274q85 -154 275 -154q139 0 244.5 92t134.5 207q-16 -77 -56.5 -138.5t-94 -99.5t-114.5 -57.5t-123 -19.5q-94 0 -168 40t-118 117q-56 98 -56 275v516q0 32 -12 39.5t-63 7.5h-11zM209 1231l301 381h4l301 -381h-18l-285 344l-285 -344 h-18zM791 975v10h110v-928q0 -32 12.5 -39.5t63.5 -7.5h10v-10h-110v928q0 32 -12.5 39.5t-63.5 7.5h-10z" />
<glyph unicode="&#xfc;" horiz-adv-x="1099" d="M61 975v10h111v-561q0 -183 51 -274q85 -154 275 -154q139 0 244.5 92t134.5 207q-16 -77 -56.5 -138.5t-94 -99.5t-114.5 -57.5t-123 -19.5q-94 0 -168 40t-118 117q-56 98 -56 275v516q0 32 -12 39.5t-63 7.5h-11zM238 1411q0 17 11.5 29t26.5 12q17 0 29 -12t12 -29 q0 -15 -12 -27t-29 -12q-15 0 -26.5 12t-11.5 27zM735 1411q0 17 12 29t27 12q17 0 29 -12t12 -29q0 -15 -12 -27t-29 -12q-15 0 -27 12t-12 27zM791 975v10h110v-928q0 -32 12.5 -39.5t63.5 -7.5h10v-10h-110v928q0 32 -12.5 39.5t-63.5 7.5h-10z" />
<glyph unicode="&#xfd;" horiz-adv-x="1024" d="M-41 -471q0 12 12 12q8 0 14 -8.5t13.5 -21t20 -25t39.5 -21t65 -8.5q77 0 131.5 58.5t122.5 218.5l108 256l-407 940q-14 31 -26.5 38t-59.5 7h-19v10h226v-10h-17q-57 0 -73.5 -6t-6.5 -31l398 -922l381 887q10 24 12 38t-7 21.5t-26 10t-49 2.5h-16v10h219v-10h-19 q-41 0 -56 -12.5t-32 -51.5l-514 -1192q-40 -92 -75 -149t-69.5 -84t-63 -35t-68.5 -8q-62 0 -110 29t-48 57zM455 1231l211 381h28l-221 -381h-18z" />
<glyph unicode="&#xfe;" horiz-adv-x="1122" d="M68 -526h10q51 0 63.5 7.5t12.5 39.5v2033q0 32 -12.5 40t-63.5 8h-10v10h110v-2091q0 -32 12.5 -39.5t63.5 -7.5h31v-11h-217v11zM180 160q46 -62 118.5 -101t131 -51t113.5 -12q142 0 251 68.5t165.5 183t56.5 254.5t-56 254.5t-165 183t-252 68.5q-89 0 -192 -42 t-171 -135q49 88 154 140.5t209 52.5q150 0 264.5 -68t175.5 -186.5t61 -267.5q0 -227 -138 -374.5t-361 -147.5q-107 0 -211 47.5t-154 132.5z" />
<glyph unicode="&#xff;" horiz-adv-x="1024" d="M-41 -471q0 12 12 12q8 0 14 -8.5t13.5 -21t20 -25t39.5 -21t65 -8.5q77 0 131.5 58.5t122.5 218.5l108 256l-407 940q-14 31 -26.5 38t-59.5 7h-19v10h226v-10h-17q-57 0 -73.5 -6t-6.5 -31l398 -922l381 887q10 24 12 38t-7 21.5t-26 10t-49 2.5h-16v10h219v-10h-19 q-41 0 -56 -12.5t-32 -51.5l-514 -1192q-40 -92 -75 -149t-69.5 -84t-63 -35t-68.5 -8q-62 0 -110 29t-48 57zM223 1411q0 17 12 29t27 12q17 0 29 -12t12 -29q0 -15 -12 -27t-29 -12q-15 0 -27 12t-12 27zM721 1411q0 17 12 29t27 12q17 0 29 -12t12 -29q0 -15 -12 -27 t-29 -12q-15 0 -27 12t-12 27z" />
<glyph unicode="&#x152;" horiz-adv-x="2742" d="M113 801q0 186 62.5 341.5t171.5 260t256 162t315 57.5q193 0 355 -72.5t273 -213t150 -330.5v606h891v-176h-13v65.5t-5 42.5t-9.5 29t-20.5 13t-31 7h-48h-738v-727h797v-18h-797v-830h801q33 0 48 0.5t31.5 7t21 13t9.5 29t5 42.5v66h12v-176h-954v596 q-39 -190 -150 -330.5t-273 -213t-355 -72.5q-168 0 -315 57.5t-256 162t-171.5 260t-62.5 341.5zM143 801q0 -162 45 -297t120.5 -227.5t176.5 -157t210 -94t223 -29.5q115 0 225 29.5t211 94t176.5 157t120.5 227.5t45 297t-45 297t-120.5 227.5t-176.5 157t-211 94 t-225 29.5q-114 0 -223 -29.5t-210 -94t-176.5 -157t-120.5 -227.5t-45 -297z" />
<glyph unicode="&#x153;" horiz-adv-x="2017" d="M78 502q0 123 44.5 224.5t117.5 165t162 98t182 34.5q108 0 207.5 -44t177 -135.5t104.5 -215.5q35 183 162 289t299 106q189 0 306 -112.5t120 -303.5h-866q-9 -50 -9 -102q0 -144 54 -258.5t161 -183t250 -68.5q116 0 218 49.5t163 138.5l4 -2q-67 -101 -172.5 -151.5 t-216.5 -50.5q-186 0 -312.5 105t-160.5 290q-26 -124 -103.5 -215.5t-177.5 -135.5t-208 -44q-93 0 -182 34.5t-162 98t-117.5 165t-44.5 224.5zM106 502q0 -100 28.5 -185t76 -143.5t109.5 -100.5t129 -61.5t135 -19.5t134.5 19.5t128.5 61.5t109.5 100.5t76 143.5 t28.5 185q0 124 -43.5 224t-113.5 161t-152.5 93t-167.5 32t-167.5 -32t-153 -93t-114 -161t-43.5 -224zM1096 623h835q-3 176 -111.5 282.5t-287.5 106.5q-162 0 -282.5 -105.5t-153.5 -283.5z" />
<glyph unicode="&#x178;" horiz-adv-x="1316" d="M-20 1602v10h249v-10h-32q-63 0 -72 -9.5t12 -40.5l514 -931l492 872q19 34 26.5 51t11 31t-6.5 18.5t-24 6.5t-44 2h-37v10h268v-10h-39q-48 0 -66 -15.5t-58 -85.5l-512 -903v-541q0 -32 12 -39.5t63 -7.5h51v-10h-280v10h51q51 0 63.5 7.5t12.5 39.5v543l-529 950 q-19 32 -41 42t-67 10h-18zM362 1823q0 17 12 29t27 12q17 0 29 -12t12 -29q0 -15 -12 -27t-29 -12q-15 0 -27 12t-12 27zM860 1823q0 17 12 29t27 12q17 0 29 -12t12 -29q0 -15 -12 -27t-29 -12q-15 0 -27 12t-12 27z" />
<glyph unicode="&#x2c6;" horiz-adv-x="790" d="M106 1231l302 381h4l301 -381h-19l-284 344l-285 -344h-19z" />
<glyph unicode="&#x2dc;" horiz-adv-x="854" d="M82 1317l76 106h530l70 97l14 -9l-76 -106h-530l-70 -96z" />
<glyph unicode="&#x2000;" horiz-adv-x="985" />
<glyph unicode="&#x2001;" horiz-adv-x="1970" />
<glyph unicode="&#x2002;" horiz-adv-x="985" />
<glyph unicode="&#x2003;" horiz-adv-x="1970" />
<glyph unicode="&#x2004;" horiz-adv-x="656" />
<glyph unicode="&#x2005;" horiz-adv-x="492" />
<glyph unicode="&#x2006;" horiz-adv-x="328" />
<glyph unicode="&#x2007;" horiz-adv-x="328" />
<glyph unicode="&#x2008;" horiz-adv-x="246" />
<glyph unicode="&#x2009;" horiz-adv-x="394" />
<glyph unicode="&#x200a;" horiz-adv-x="109" />
<glyph unicode="&#x2010;" horiz-adv-x="806" d="M102 516v29h603v-29h-603z" />
<glyph unicode="&#x2011;" horiz-adv-x="806" d="M102 516v29h603v-29h-603z" />
<glyph unicode="&#x2012;" horiz-adv-x="806" d="M102 516v29h603v-29h-603z" />
<glyph unicode="&#x2013;" horiz-adv-x="1052" d="M102 516v29h848v-29h-848z" />
<glyph unicode="&#x2014;" horiz-adv-x="1558" d="M102 516v29h1354v-29h-1354z" />
<glyph unicode="&#x2018;" horiz-adv-x="194" d="M-61 1188q0 6 2.5 14t8.5 20.5t11.5 24t16 31.5t18.5 37l145 307l13 -6l-181 -385h7q17 0 27.5 -11.5t10.5 -27.5q0 -18 -10.5 -29.5t-27.5 -11.5q-19 0 -30 11t-11 26z" />
<glyph unicode="&#x2019;" horiz-adv-x="215" d="M-20 1157l180 385h-6q-17 0 -28 11.5t-11 27.5q0 17 11 29t28 12q19 0 30 -11t11 -26q0 -9 -6 -23.5t-24 -48.5t-28 -55l-145 -307z" />
<glyph unicode="&#x201a;" horiz-adv-x="286" d="M-10 -406l180 386h-6q-17 0 -28 11.5t-11 26.5q0 17 11 29t28 12q19 0 30 -10.5t11 -25.5q0 -9 -6 -23.5t-24 -48.5t-28 -55l-145 -308z" />
<glyph unicode="&#x201c;" horiz-adv-x="428" d="M-61 1188q0 6 2.5 14t8.5 20.5t11.5 24t16 31.5t18.5 37l145 307l13 -6l-181 -385h7q17 0 27.5 -11.5t10.5 -27.5q0 -18 -10.5 -29.5t-27.5 -11.5q-19 0 -30 11t-11 26zM172 1188q0 6 2.5 14t8.5 20.5t11.5 24t16 31.5t18.5 37l146 307l12 -6l-180 -385h6q17 0 28 -11.5 t11 -27.5q0 -17 -11 -29t-28 -12q-19 0 -30 11t-11 26z" />
<glyph unicode="&#x201d;" horiz-adv-x="366" d="M-20 1157l180 385h-6q-17 0 -28 11.5t-11 27.5q0 17 11 29t28 12q19 0 30 -11t11 -26q0 -9 -6 -23.5t-24 -48.5t-28 -55l-145 -307zM213 1157l180 385h-6q-17 0 -28 11.5t-11 27.5q0 17 11 29t28 12q19 0 30 -11t11 -26q0 -6 -2.5 -14t-8.5 -20.5t-11.5 -24t-16 -31.5 t-18.5 -37l-146 -307z" />
<glyph unicode="&#x201e;" horiz-adv-x="520" d="M-10 -406l180 386h-6q-17 0 -28 11.5t-11 26.5q0 17 11 29t28 12q19 0 30 -10.5t11 -25.5q0 -9 -6 -23.5t-24 -48.5t-28 -55l-145 -308zM223 -406l180 386h-6q-17 0 -28 11.5t-11 26.5q0 17 11 29t28 12q19 0 30 -10.5t11 -25.5q0 -6 -2.5 -14t-8.5 -20.5t-11.5 -24 t-16 -31.5t-18.5 -37l-145 -308z" />
<glyph unicode="&#x2022;" horiz-adv-x="813" d="M164 512q0 101 70.5 172.5t171.5 71.5t172 -71.5t71 -172.5t-71 -171.5t-172 -70.5t-171.5 70.5t-70.5 171.5z" />
<glyph unicode="&#x2026;" horiz-adv-x="1038" d="M119 18q0 17 11 29t28 12q18 0 29.5 -11.5t11.5 -29.5q0 -16 -11.5 -27t-29.5 -11q-17 0 -28 11.5t-11 26.5zM487 18q0 17 11 29t28 12q18 0 29.5 -11.5t11.5 -29.5q0 -16 -11.5 -27t-29.5 -11q-17 0 -28 11.5t-11 26.5zM856 18q0 17 11 29t28 12q18 0 29.5 -11.5 t11.5 -29.5q0 -16 -11.5 -27t-29.5 -11q-17 0 -28 11.5t-11 26.5z" />
<glyph unicode="&#x202f;" horiz-adv-x="394" />
<glyph unicode="&#x2039;" horiz-adv-x="526" d="M20 502l435 430h20l-424 -430l424 -430h-20z" />
<glyph unicode="&#x203a;" horiz-adv-x="526" d="M51 72l424 430l-424 430h21l434 -430l-434 -430h-21z" />
<glyph unicode="&#x205f;" horiz-adv-x="492" />
<glyph unicode="&#x20ac;" horiz-adv-x="1404" d="M0 567v17h231q-10 85 -10 164q0 100 12 188h-233v16h238q42 265 198 413t408 148q311 0 477 -145l14 -117h-10q-18 69 -43 103q-54 68 -167.5 107.5t-274.5 39.5q-226 0 -379.5 -139t-196.5 -410h553v-16h-555q-12 -86 -12 -188q0 -79 10 -164h557v-17h-555 q39 -284 196.5 -429.5t393.5 -145.5q320 0 432 145q36 49 49 111h10l-14 -115q-88 -81 -197 -117t-280 -36q-266 0 -423.5 155t-195.5 432h-233z" />
<glyph unicode="&#x2122;" horiz-adv-x="1689" d="M0 1509v103h709v-103h-11v11q0 51 -7.5 63t-39.5 12h-284v-782q0 -32 12 -39.5t63 -7.5h11v-10h-197v10h10q51 0 63.5 7.5t12.5 39.5v782h-285q-32 0 -39.5 -12t-7.5 -63v-11h-10zM717 756v10h10q51 0 62.5 7.5t13.5 39.5l41 743q1 31 -12 38.5t-66 7.5v10h108l330 -817 l320 817h116v-10q-52 0 -65 -7t-12 -34l39 -748q2 -32 13 -39.5t62 -7.5h11v-10h-195v10h10q52 0 64.5 7.5t11.5 39.5l-41 784l-332 -841h-8l-336 823l-41 -766q-1 -32 11.5 -39.5t64.5 -7.5h10v-10h-190z" />
<glyph unicode="&#x25fc;" horiz-adv-x="983" d="M0 0v983h983v-983h-983z" />
<glyph unicode="&#xfb03;" horiz-adv-x="1503" d="M72 969v16h161v14q0 51 0.5 82.5t3.5 82t8.5 83.5t16.5 76.5t26 72t39 59.5t54 48.5t71 29t91 11.5q62 0 114 -20q27 -10 43.5 -24.5t16.5 -26.5q0 -6 -4.5 -10.5t-10.5 -4.5t-11.5 5t-13 14.5t-15.5 15.5q-49 39 -125 39q-45 0 -82 -11.5t-64 -29t-48 -48t-35 -58.5 t-24 -71t-15 -76t-7.5 -82t-3 -80t-0.5 -79v-12h487v68q0 58 0.5 89t3 86.5t8 88t16.5 79t26 74.5t39 60t54.5 49t72 29t92.5 12q113 0 196 -68q50 -40 50 -73q0 -13 -8.5 -22t-20.5 -9t-19.5 7t-9.5 14.5t-4.5 23t-3.5 20.5q-11 42 -61 68.5t-121 26.5q-60 0 -105.5 -18.5 t-75.5 -43.5t-50.5 -75.5t-31 -89.5t-16 -112.5t-6 -116.5t-0.5 -128v-39h514v-928q0 -32 12.5 -39.5t63.5 -7.5h10v-10h-196v10h10q51 0 63.5 7.5t12.5 39.5v912h-490v-912q0 -32 12.5 -39.5t63.5 -7.5h31v-10h-218v10h11q51 0 63 7.5t12 39.5v912h-487v-912 q0 -32 12.5 -39.5t63.5 -7.5h31v-10h-218v10h11q51 0 63 7.5t12 39.5v912h-161z" />
<glyph unicode="&#xfb04;" horiz-adv-x="1507" d="M72 969v16h161v14q0 51 0.5 82.5t3.5 82t8.5 83.5t16.5 76.5t26 72t39 59.5t54 48.5t71 29t91 11.5q62 0 114 -20q27 -10 43.5 -24.5t16.5 -26.5q0 -6 -4.5 -10.5t-10.5 -4.5t-11.5 5t-13 14.5t-15.5 15.5q-49 39 -125 39q-45 0 -82 -11.5t-64 -29t-48 -48t-35 -58.5 t-24 -71t-15 -76t-7.5 -82t-3 -80t-0.5 -79v-12h487v68q0 53 0.5 88.5t4 87.5t9.5 87.5t17.5 79.5t27.5 73.5t40.5 60.5t55.5 49t73.5 29.5t93.5 11.5q134 0 221 -70v-1493q0 -32 12.5 -39.5t63.5 -7.5h10v-10h-196v10h10q51 0 63.5 7.5t12.5 39.5v1428q0 58 -53.5 90.5 t-145.5 32.5q-70 0 -121.5 -20.5t-83 -66t-50.5 -91.5t-27.5 -123.5t-10.5 -133.5t-2 -149v-39h338v-16h-338v-912q0 -32 12.5 -39.5t63.5 -7.5h31v-10h-218v10h11q51 0 63 7.5t12 39.5v912h-487v-912q0 -32 12.5 -39.5t63.5 -7.5h31v-10h-218v10h11q51 0 63 7.5t12 39.5 v912h-161z" />
</font>
</defs>
</svg>
