<?xml version="1.0" standalone="no"?>
<!DOCTYPE svg PUBLIC "-//W3C//DTD SVG 1.1//EN" "http://www.w3.org/Graphics/SVG/1.1/DTD/svg11.dtd" >
<svg xmlns="http://www.w3.org/2000/svg">
<metadata></metadata>
<defs>
<font id="sangbleu_seriflight_italic" horiz-adv-x="1878" >
<font-face units-per-em="2048" ascent="1483" descent="-565" />
<missing-glyph horiz-adv-x="442" />
<glyph unicode="&#xfb01;" horiz-adv-x="1173" d="M-408 -451q0 66 60 66q27 0 45 -13.5t28 -32.5t21.5 -38.5t35.5 -33t60 -13.5q61 0 111.5 24t98.5 81t86 164t63 261l147 926h-198l6 41h198l17 98q20 126 61 225.5t91 160.5t111.5 100.5t117.5 55t114 15.5q92 0 155.5 -30t63.5 -74q0 -66 -59 -66q-23 0 -39.5 9.5 t-25 24.5t-19 31.5t-21 31.5t-32.5 24.5t-53 9.5q-61 0 -111.5 -24t-98.5 -81t-86 -164t-63 -261l-14 -86h534l-151 -842q-11 -59 -8.5 -82.5t20.5 -23.5q41 0 174 170l19 -13q-10 -13 -40.5 -57t-46.5 -63t-43 -47t-52 -40t-52 -12q-57 0 -76 37.5t-4 124.5l144 807h-424 l-150 -938q-20 -126 -61 -225.5t-91 -160.5t-111.5 -100.5t-117.5 -55t-114 -15.5q-93 0 -156.5 30t-63.5 74z" />
<glyph unicode="&#xfb02;" horiz-adv-x="1181" d="M-408 -451q0 66 60 66q27 0 45 -13.5t28 -32.5t21.5 -38.5t35.5 -33t60 -13.5q61 0 111.5 24t98.5 81t86 164t63 261l147 926h-198l6 41h198l17 98q20 126 61 225.5t91 160.5t111.5 100.5t117.5 55t114 15.5q93 0 165 -26t85 -66l-219 -1405q-10 -59 -8.5 -82.5 t18.5 -23.5q43 0 176 170l19 -13q-11 -15 -34.5 -48t-37 -51.5t-36.5 -44.5t-41 -40t-41.5 -24.5t-47.5 -10.5q-54 0 -71.5 37.5t-4.5 124.5l213 1352q-10 9 -28 31.5t-32 38t-42 29t-63 13.5q-61 0 -111.5 -24t-98.5 -81t-86 -164t-63 -261l-14 -86h373l-7 -41h-372 l-150 -938q-20 -126 -61 -225.5t-91 -160.5t-111.5 -100.5t-117.5 -55t-114 -15.5q-93 0 -156.5 30t-63.5 74z" />
<glyph horiz-adv-x="0" />
<glyph horiz-adv-x="682" />
<glyph unicode=" "  horiz-adv-x="442" />
<glyph unicode="&#x09;" horiz-adv-x="442" />
<glyph unicode="&#xa0;" horiz-adv-x="442" />
<glyph unicode="!" horiz-adv-x="458" d="M2 74q0 43 29.5 72.5t72.5 29.5t73 -29.5t30 -72.5t-30 -73t-73 -30t-72.5 30t-29.5 73zM135 352q11 91 73 553t81 707q37 24 88 24q52 0 86 -24q-52 -188 -103.5 -392t-118.5 -478.5t-96 -389.5h-10z" />
<glyph unicode="&#x22;" horiz-adv-x="657" d="M156 1612h149l-135 -451h-8zM414 1612h149l-135 -451h-8z" />
<glyph unicode="#" horiz-adv-x="1714" d="M88 487l41 76h344l195 492h-392l41 75h379l191 482h84l-191 -482h453l190 482h84l-190 -482h381l-41 -75h-369l-194 -492h415l-41 -76h-405l-193 -487h-84l193 487h-453l-192 -487h-84l192 487h-354zM557 563h453l194 492h-452z" />
<glyph unicode="$" horiz-adv-x="1136" d="M37 133l37 293h18q3 -87 24.5 -154.5t54.5 -110.5t78.5 -72t91 -42t97.5 -18l103 723l-45 30q-52 33 -91.5 62t-80 67t-66 75t-41.5 83.5t-16 95.5q0 71 25.5 130t68.5 98.5t101.5 67.5t121 41.5t129.5 15.5l27 182h69l-26 -182q113 -6 207.5 -38.5t154.5 -78.5l-39 -287 h-16q-3 329 -313 348l-90 -635l49 -32q90 -60 145 -102t106.5 -95t75 -107.5t23.5 -117.5q0 -85 -31 -154t-82 -114.5t-119 -76t-139 -44t-145 -13.5h-4l-25 -168h-69l24 172q-113 10 -218 53t-175 105zM305 1200q0 -48 16 -91.5t37 -74t59.5 -64.5t65.5 -53t74 -49l84 596 q-147 -7 -241.5 -72t-94.5 -192zM506 27q113 2 202.5 35t146 103.5t56.5 170.5q0 47 -15.5 89.5t-39 76t-66.5 71t-82.5 66t-101.5 68.5l-2 2z" />
<glyph unicode="%" horiz-adv-x="1689" d="M160 1180q0 76 25 149.5t71 133.5t118 97t158 37q138 0 222 -88.5t84 -234.5q0 -76 -25.5 -149.5t-72 -134t-119 -97.5t-158.5 -37q-138 0 -220.5 88.5t-82.5 235.5zM252 1176q0 -114 60 -185t155 -71q86 0 151 54.5t96 134.5t31 169q0 114 -60 185t-155 71 q-86 0 -151 -54.5t-96 -134.5t-31 -169zM272 0l1065 1612h95l-1070 -1612h-90zM872 295q0 76 25.5 149.5t71.5 134t118 97.5t158 37q138 0 221.5 -89t83.5 -235q0 -76 -25.5 -149.5t-71.5 -134t-118.5 -97.5t-158.5 -37q-138 0 -221 89t-83 235zM965 291q0 -114 60 -185 t155 -71q86 0 151 54.5t96 134.5t31 169q0 114 -60 185t-155 71q-86 0 -151 -54.5t-96 -134.5t-31 -169z" />
<glyph unicode="&#x26;" horiz-adv-x="1533" d="M57 381q0 96 30 175t80.5 135.5t125.5 102t155 75t179 53.5q-453 -142 -453 -504q0 -104 36.5 -186.5t116 -134.5t191.5 -52q144 0 281.5 84t220.5 252l-369 508q-194 266 -194 438q0 143 98.5 226t245.5 83q141 0 226 -74t85 -200q0 -75 -31.5 -141t-86.5 -114 t-119 -83.5t-140 -60.5l334 -461v2l31 100q34 110 79.5 186.5t98 116t104 56t111.5 16.5q47 0 85 -19t38 -55q0 -30 -22 -46.5t-52 -16.5q-40 0 -72 20.5t-69 20.5q-28 0 -58.5 -13.5t-67.5 -45.5t-76.5 -97t-74.5 -156l-37 -96l50 -67q111 -153 148.5 -224.5t37.5 -126.5 q0 -62 -58.5 -124t-156.5 -109l-4 4q129 99 129 184q0 45 -36 112t-146 216l-13 16q-89 -189 -229.5 -287t-319.5 -98q-108 0 -193 34t-136 92t-77 130.5t-26 153.5zM567 1354q0 -158 138 -348l30 -43q130 51 209.5 149t79.5 240q0 111 -59.5 178t-171.5 67 q-104 0 -165 -61.5t-61 -181.5z" />
<glyph unicode="'" horiz-adv-x="401" d="M158 1612h149l-135 -451h-8z" />
<glyph unicode="(" horiz-adv-x="641" d="M150 322q0 377 150.5 722.5t418.5 567.5h90q-275 -222 -427.5 -567t-152.5 -715q0 -246 69.5 -479.5t209.5 -389.5h-90q-130 153 -199 384.5t-69 476.5z" />
<glyph unicode=")" horiz-adv-x="649" d="M-178 -539q274 221 426.5 566.5t152.5 715.5q0 247 -69 480t-209 389h90q130 -153 199 -384t69 -476q0 -377 -150.5 -723t-418.5 -568h-90z" />
<glyph unicode="*" horiz-adv-x="755" d="M72 1176l225 118l-199 121l54 72l188 -123l35 248h80l-35 -248l229 131l33 -72l-229 -129l200 -110l-51 -72l-201 119l-34 -242h-80l35 242l-218 -127z" />
<glyph unicode="+" horiz-adv-x="1146" d="M70 489l14 76h434l70 434h94l-70 -434h443l-15 -76h-440l-72 -454h-94l72 454h-436z" />
<glyph unicode="," horiz-adv-x="372" d="M14 -393q101 93 155 198t54 164q-41 3 -68.5 33t-27.5 70q0 44 28 74t76 30q49 0 75 -33t26 -86q0 -99 -91.5 -233.5t-222.5 -222.5z" />
<glyph unicode="-" horiz-adv-x="860" d="M129 481v84h602v-84h-602z" />
<glyph unicode="." horiz-adv-x="327" d="M82 74q0 43 29.5 72.5t72.5 29.5t73 -29.5t30 -72.5t-30 -73t-73 -30t-72.5 30t-29.5 73z" />
<glyph unicode="/" horiz-adv-x="888" d="M-113 -68l1096 1772h94l-1095 -1772h-95z" />
<glyph unicode="0" horiz-adv-x="1312" d="M106 535q0 140 23.5 275.5t76.5 264.5t129.5 226t191 156t253.5 59q213 0 326 -149.5t113 -412.5q0 -112 -17.5 -224.5t-51.5 -224t-90.5 -207t-129.5 -169t-173 -116t-216 -42.5q-211 0 -323 150.5t-112 413.5zM219 504q0 -243 88.5 -365.5t239.5 -122.5q91 0 169.5 37 t134 98t101 143.5t73.5 170.5t47 183t26.5 176t7.5 153q0 247 -89.5 370t-242.5 123q-92 0 -171 -37t-134.5 -98.5t-100 -145t-72 -172t-45.5 -184t-25 -176t-7 -153.5z" />
<glyph unicode="1" horiz-adv-x="757" d="M31 0l2 25h88q84 0 114.5 16.5t36.5 58.5l195 1248q-193 -9 -307 6v6q321 21 422 158h16l-217 -1418q-8 -41 20.5 -58t122.5 -17h11l-3 -25h-501z" />
<glyph unicode="2" horiz-adv-x="1183" d="M-90 12q59 49 145.5 119t152 122.5t147.5 121t143.5 126.5t127.5 126.5t112 133t84.5 133.5t57.5 141.5t19 144.5q0 127 -76 196.5t-207 69.5q-151 0 -252 -95t-131 -276h-8q24 208 136.5 324.5t304.5 116.5q88 0 156.5 -26t110.5 -71t63.5 -101.5t21.5 -121.5 q0 -93 -33.5 -188.5t-86 -177t-134.5 -169t-159 -155t-180.5 -144.5t-179 -128.5t-172.5 -116.5q-36 -24 -53 -35h541q61 0 97 1t76.5 5t62.5 11t47.5 21.5t39.5 33t30.5 48.5t28.5 65.5t26 86.5h22l-55 -354h-1020z" />
<glyph unicode="3" horiz-adv-x="1122" d="M-23 188q0 28 18.5 47t47.5 19q16 0 28.5 -5t22 -19t13.5 -21t12.5 -30t9.5 -27q26 -61 92 -100.5t174 -39.5q194 0 307 113t113 303q0 148 -106 238t-277 90q-86 0 -168 -21l4 15q14 6 62.5 26t71 30t70.5 32.5t74 37.5t67.5 41t65 48t53 53t44.5 61t26 67.5t11 76.5 q0 101 -65 158t-179 57q-134 0 -234 -61.5t-155 -180.5l-8 2q51 153 167 235.5t277 82.5q148 0 233 -74.5t85 -179.5q0 -68 -28 -128.5t-69.5 -103.5t-104.5 -82.5t-119 -65t-126 -51.5q87 2 166 -20.5t143 -67t102 -119t38 -169.5q0 -213 -157.5 -348.5t-397.5 -135.5 q-83 0 -160.5 22.5t-129.5 55.5t-83 70.5t-31 68.5z" />
<glyph unicode="4" horiz-adv-x="1310" d="M8 465l953 1091h16l-158 -1024h31q52 0 82.5 1t65.5 5t53.5 10.5t41 20.5t35 31.5t27.5 46.5t26 63t25 83h23l-53 -342h-367l-53 -351q-6 -42 19.5 -58.5t111.5 -16.5l-4 -25h-432l4 25h39q84 0 115.5 16.5t37.5 58.5l53 351h-686zM127 532h584l125 805z" />
<glyph unicode="5" horiz-adv-x="1202" d="M29 231q9 60 71 60q23 0 40 -17t22 -30.5t15 -46.5l3 -9q25 -78 99 -126t190 -48q105 0 190.5 40t139 108t82 153t28.5 179q0 166 -93.5 260t-242.5 94q-235 0 -395 -199l-8 4l274 822h492q94 0 143 18.5t78 81.5h14l-59 -197h-635l-184 -540q141 110 336 110 q179 0 290 -114.5t111 -296.5q0 -253 -157 -409.5t-408 -156.5q-98 0 -185 29t-141 70.5t-84 85t-26 75.5z" />
<glyph unicode="6" horiz-adv-x="1214" d="M90 459q0 210 78.5 396.5t218 326t329 238.5t412.5 145l2 -9q-762 -224 -903 -909q65 156 182.5 252t278.5 96q68 0 130.5 -26t114.5 -76.5t83 -135t31 -190.5q0 -111 -38.5 -217t-107.5 -190.5t-175.5 -136.5t-231.5 -52q-105 0 -184.5 38t-126.5 106t-70 154t-23 190z M199 391q0 -166 80 -269.5t227 -103.5q96 0 177.5 46.5t134 123t81.5 173.5t29 200q0 77 -14.5 141t-45 117t-85.5 83t-130 30q-122 0 -228 -78t-166 -202.5t-60 -260.5z" />
<glyph unicode="7" horiz-adv-x="1056" d="M-66 -45l1151 1423h-673q-104 0 -150.5 -28.5t-73.5 -112.5h-14l35 238h969l6 -9l-1161 -1572z" />
<glyph unicode="8" horiz-adv-x="1239" d="M80 354q0 304 467 422q-187 -66 -282 -170t-95 -270q0 -145 99.5 -231.5t260.5 -86.5q178 0 287 80t109 226q0 106 -66 193.5t-233 207.5l-111 80q-223 162 -223 362q0 88 37 157t98 109.5t132.5 61.5t148.5 21q171 0 270.5 -85.5t99.5 -201.5q0 -281 -407 -404 q147 65 235 165.5t88 234.5q0 106 -83.5 175.5t-204.5 69.5q-137 0 -224.5 -72t-87.5 -198q0 -101 54.5 -179t168.5 -161l91 -65q79 -57 132 -102.5t99.5 -99.5t69 -111t22.5 -120q0 -81 -28 -147.5t-76 -111t-113 -75t-137 -44t-150 -13.5q-194 0 -321 105.5t-127 277.5z " />
<glyph unicode="9" horiz-adv-x="1214" d="M68 -72q761 224 903 910q-65 -156 -182.5 -252.5t-278.5 -96.5q-68 0 -130.5 26t-114 77t-82.5 135.5t-31 190.5q0 88 24 174t71.5 162t113 134t154.5 91.5t190 33.5q105 0 184.5 -38t126 -105.5t69.5 -153.5t23 -190q0 -210 -78.5 -396.5t-218 -326t-329 -238.5 t-412.5 -145zM270 924q0 -77 14.5 -141t45 -117t85.5 -83t130 -30q122 0 228 78t166 202.5t60 260.5q0 166 -80 269t-227 103q-96 0 -177.5 -46.5t-134 -123t-81.5 -173t-29 -199.5z" />
<glyph unicode=":" horiz-adv-x="512" d="M82 74q0 43 29.5 72.5t72.5 29.5t73 -29.5t30 -72.5t-30 -73t-73 -30t-72.5 30t-29.5 73zM266 930q0 43 30 72.5t73 29.5t72.5 -29.5t29.5 -72.5t-29.5 -73t-72.5 -30t-73 30t-30 73z" />
<glyph unicode=";" horiz-adv-x="532" d="M14 -393q101 93 155 198t54 164q-41 3 -68.5 33t-27.5 70q0 44 28 74t76 30q49 0 75 -33t26 -86q0 -99 -91.5 -233.5t-222.5 -222.5zM287 930q0 43 29.5 72.5t72.5 29.5t73 -29.5t30 -72.5t-30 -73t-73 -30t-72.5 30t-29.5 73z" />
<glyph unicode="&#x3c;" horiz-adv-x="1189" d="M27 475l14 88l1100 467l-15 -94l-1005 -418l889 -420l-15 -90z" />
<glyph unicode="=" horiz-adv-x="1187" d="M92 303l14 76h930l-14 -76h-930zM150 672l14 76h930l-15 -76h-929z" />
<glyph unicode="&#x3e;" horiz-adv-x="1189" d="M27 8l14 96l1006 418l-889 420l14 88l969 -467l-15 -88z" />
<glyph unicode="?" horiz-adv-x="813" d="M129 74q0 43 29.5 72.5t72.5 29.5t73 -29.5t30 -72.5t-30 -73t-73 -30t-72.5 30t-29.5 73zM180 1501q0 56 109.5 95.5t240.5 39.5q135 0 222.5 -60.5t87.5 -180.5q0 -74 -31.5 -147t-82.5 -134t-112 -122.5t-122 -124t-112 -126t-82.5 -140t-31.5 -155.5q0 -43 25 -73 l-4 -4q-25 18 -45.5 61t-20.5 111q0 75 28 145.5t73 126t99 110l108 109t99 110t73 126t28 145.5q0 94 -56 141.5t-141 47.5q-55 0 -95.5 -16t-63.5 -39t-42 -46t-41 -39t-50 -16q-25 0 -42.5 14t-17.5 41z" />
<glyph unicode="@" horiz-adv-x="1869" d="M135 631q0 197 75 372t204.5 301.5t313 200.5t390.5 74q144 0 266 -35.5t217 -105.5t149 -185.5t54 -265.5q0 -90 -18.5 -186t-59.5 -191.5t-98.5 -170.5t-144 -122t-187.5 -47q-76 0 -125 23t-68 62.5t-22.5 92.5t11.5 113l10 53q-40 -85 -88 -146t-96.5 -93t-92.5 -46 t-88 -14q-126 0 -193 88.5t-67 221.5q0 160 72.5 304.5t195.5 232t261 87.5q61 0 129 -18.5t114 -59.5l74 74h14l-102 -526q-4 -22 -14 -66q-32 -157 -28 -214q7 -96 97 -109q15 -2 33 -2q68 0 128.5 30t104.5 81.5t79 117.5t56.5 140t32.5 146.5t11 139.5q0 262 -166 402.5 t-471 140.5q-183 0 -348.5 -68t-285.5 -185t-190.5 -282.5t-70.5 -351.5q0 -143 48 -265t136.5 -210.5t219.5 -138.5t290 -50q118 0 229 27l9 -47q-119 -29 -265 -29q-162 0 -299.5 52.5t-233 145t-149 223.5t-53.5 284zM598 635q0 -111 49.5 -170t138.5 -59q169 0 316 210 l72 355q11 71 3 117.5t-37 74t-60.5 38.5t-67.5 11q-68 0 -141.5 -44.5t-134 -119.5t-99.5 -184.5t-39 -228.5z" />
<glyph unicode="A" horiz-adv-x="1468" d="M-147 0l4 33q69 0 113.5 24.5t98 98t140.5 233.5l680 1247h22l314 -1472q13 -66 52.5 -98.5t129.5 -32.5l-4 -33h-461l4 33q98 1 138 27q29 20 30 65q0 16 -4 35l-86 418h-631l-82 -150q-48 -89 -77.5 -151t-42.5 -107q-12 -40 -12 -65q1 -3 1 -6q2 -26 21 -41t47 -20 t76 -5l-5 -33h-466zM446 676h560l-154 749z" />
<glyph unicode="B" horiz-adv-x="1431" d="M49 0l4 33q116 0 159 27t54 96l199 1300q2 17 2 31q-1 25 -7 41q-10 25 -50.5 38t-120.5 13l4 33h440q194 0 301 -14.5t174 -51.5q66 -36 104 -102t38 -154q0 -91 -37 -168.5t-101 -131.5t-147 -88.5t-176 -45.5q196 -6 314 -107t118 -262q0 -107 -35.5 -192t-96 -139.5 t-145.5 -90t-177.5 -50.5t-198.5 -15h-619zM389 193q-5 -32 -5 -55q0 -43 16 -59q24 -24 120 -24h137q90 0 166 12.5t144.5 43.5t116.5 79.5t76 124.5t28 174q0 332 -465 332h-236zM494 864h180q85 0 159.5 12t145.5 41.5t121.5 75.5t81 118t30.5 165q0 163 -110 227 q-45 28 -127.5 40.5t-241.5 12.5h-135z" />
<glyph unicode="C" horiz-adv-x="1646" d="M123 698q0 150 39 289.5t116 257t183 205t247.5 137t301.5 49.5q398 0 626 -209l-43 -284h-22v12q1 95 -29 167q-32 78 -85 125t-129 77t-152.5 41.5t-163.5 11.5q-137 0 -258 -46t-212 -128.5t-157 -192.5t-99.5 -241t-33.5 -271q0 -147 41.5 -269t119.5 -211 t197.5 -138t268.5 -49q89 0 162.5 10.5t149 39t134 74.5t108.5 121.5t80 176.5h19l-51 -299q-256 -183 -600 -183q-343 0 -550.5 199.5t-207.5 527.5z" />
<glyph unicode="D" horiz-adv-x="1714" d="M49 0l2 33q120 0 160.5 21t50.5 91l199 1311q3 18 3 32q0 46 -26 65q-34 24 -153 24l6 35h432q219 0 360 -21t244 -65q356 -153 356 -580q0 -211 -71 -386t-202.5 -299t-326.5 -192.5t-434 -68.5h-600zM387 193q-5 -32 -5 -56q0 -43 16 -58q24 -24 116 -24h135 q421 0 661 237t240 650q0 384 -280 526q-96 48 -227 68t-334 20h-113z" />
<glyph unicode="E" horiz-adv-x="1380" d="M49 0l4 33q117 0 157.5 22.5t51.5 89.5l205 1321q3 16 3 29q0 43 -28 61q-36 23 -155 23l4 33h1089l-43 -367h-20q4 41 4 74t-3.5 61.5t-9.5 50.5t-18 40t-26.5 31t-36 22.5t-45.5 15.5t-56.5 9.5t-67 5t-79.5 1.5h-383l-100 -661h335q60 0 91 5t60.5 26.5t48 62 t40.5 115.5h21l-74 -492h-21q0 99 -16.5 147.5t-51 64.5t-106.5 16h-338l-98 -647q-5 -32 -5 -55q0 -43 16 -59q24 -24 120 -24h334q101 0 160.5 11.5t105.5 49.5t73.5 98t55.5 167h17l-56 -381h-1159z" />
<glyph unicode="F" horiz-adv-x="1298" d="M49 0l4 33q116 0 158 22.5t53 89.5l201 1321q3 16 3 30q0 43 -27 60q-35 23 -152 23l4 33h1128l-51 -348h-20q2 36 2 65q0 27 -2 47q-4 44 -18 78t-36 53t-63.5 30.5t-90 15t-124.5 3.5h-420l-102 -661h356q60 0 91 5t60.5 26.5t48 62t40.5 115.5h20l-74 -492h-20 q0 99 -16.5 147.5t-51 64.5t-106.5 16h-357l-108 -695q-2 -14 -2 -26q0 -27 11 -43q16 -23 68 -33t160 -10l-4 -33h-563z" />
<glyph unicode="G" horiz-adv-x="1722" d="M123 698q0 150 39 289.5t116 257t183 205t247.5 137t301.5 49.5q398 0 626 -209l-43 -284h-22v12q0 94 -29 167q-32 77 -85 124.5t-129 77.5t-152.5 41.5t-163.5 11.5q-137 0 -258 -46t-212 -128.5t-157 -192.5t-99.5 -241t-33.5 -271q0 -147 41.5 -269t119.5 -211 t197.5 -138t268.5 -49q162 0 290 47.5t199 124.5l55 350q1 9 1 17q0 36 -24 49q-31 16 -128 16l4 33h446l-4 -33q-97 0 -133 -16t-43 -68l-55 -356q-92 -102 -249 -163t-359 -61q-230 0 -401.5 90.5t-263 255t-91.5 381.5z" />
<glyph unicode="H" horiz-adv-x="1873" d="M49 0l4 33q114 0 158 27.5t55 95.5l199 1310q3 16 3 30q0 43 -27 60q-35 23 -152 23l4 33h508l-4 -33q-82 0 -125 -10.5t-62 -33.5t-26 -69l-88 -565h954l86 565q3 16 3 30q0 42 -26 60q-34 23 -153 23l4 33h508l-4 -33q-117 0 -159.5 -23t-53.5 -90l-199 -1310 q-3 -16 -3 -31q0 -45 27 -65q35 -27 150 -27l-4 -33h-508l4 33q117 0 160.5 27t54.5 96l103 682h-953l-104 -682q-2 -17 -2 -31q1 -25 7 -41q10 -25 50.5 -38t120.5 -13l-4 -33h-506z" />
<glyph unicode="I" horiz-adv-x="798" d="M49 0l4 33q113 0 155.5 27t53.5 96l203 1310q3 16 3 29q0 43 -28 61q-36 23 -153 23l2 33h508l-4 -33q-117 0 -158.5 -23t-52.5 -90l-201 -1310q-3 -16 -3 -30q0 -45 28 -66q36 -27 151 -27l-2 -33h-506z" />
<glyph unicode="J" horiz-adv-x="911" d="M-31 117q0 33 18 57.5t54 24.5q30 0 50.5 -20.5t31.5 -74.5q11 -58 36 -79t70 -21q37 0 64.5 11.5t51 42t41 71t34.5 109.5t31 146.5t32 193.5l133 888q2 15 2 27q0 48 -30 65q-38 21 -168 21l2 33h528l-4 -33q-121 0 -162 -20.5t-51 -92.5l-131 -888q-11 -77 -21 -132.5 t-26.5 -123t-35.5 -114.5t-48.5 -95t-64.5 -77t-84 -47t-107 -18q-113 0 -179.5 43t-66.5 103z" />
<glyph unicode="K" horiz-adv-x="1548" d="M49 0l4 33q114 0 158 27.5t55 95.5l199 1310q3 16 3 30q0 43 -27 60q-35 23 -152 23l4 33h508l-4 -33q-82 0 -125 -10.5t-62 -33.5t-26 -69l-201 -1310q-2 -17 -2 -31q1 -25 7 -41q10 -25 50.5 -38t120.5 -13l-4 -33h-506zM489 834l592 509q147 126 174 169q9 15 9 27 q0 23 -37 32q-32 8 -97 8l5 33h495l-4 -33q-100 0 -201 -56.5t-266 -197.5l-545 -463l643 -753q27 -35 86.5 -55.5t122.5 -20.5l-2 -33h-501l4 33q154 0 154 45q0 14 -17 35z" />
<glyph unicode="L" horiz-adv-x="1286" d="M49 0l4 33q116 0 158 22.5t53 89.5l201 1321q3 16 3 30q0 43 -27 60q-35 23 -152 23l4 33h508l-4 -33q-82 0 -125 -10.5t-62 -33.5t-26 -69l-199 -1302q-3 -17 -3 -30q0 -39 21 -56q28 -23 91 -23h337q81 0 133.5 8t95.5 27.5t71.5 58t50.5 93t43 139.5h20l-57 -381 h-1139z" />
<glyph unicode="M" horiz-adv-x="2041" d="M-51 0l4 33q127 0 176 42t74 169l229 1163q5 29 5 53q0 54 -28 80q-41 38 -145 37l6 35h316l354 -1391l772 1391h320l-7 -35q-102 0 -152.5 -37.5t-60.5 -132.5l-141 -1262q-2 -13 -2 -24q0 -47 28 -65q34 -22 150 -23l-4 -33h-506l4 33q121 0 163 22.5t50 89.5l148 1289 l-803 -1434h-8l-377 1438l-231 -1196q-13 -56 -13 -95q0 -17 2 -31q8 -46 50 -64.5t139 -18.5l-4 -33h-508z" />
<glyph unicode="N" horiz-adv-x="1865" d="M31 0l4 33q122 0 175 50.5t71 164.5l174 1149q3 20 3 37q0 66 -40 100q-52 44 -150 43l8 35h308l841 -1415l179 1167q7 47 7 83q0 21 -2 37q-6 48 -51 71.5t-139 23.5l8 33h510l-6 -33q-125 0 -177.5 -50t-70.5 -165l-217 -1415h-18l-905 1501l-183 -1202q-7 -48 -7 -85 q-1 -19 1 -35q6 -48 50.5 -71.5t138.5 -23.5l-4 -33h-508z" />
<glyph unicode="O" d="M154 743q0 196 68.5 363.5t188 283t284 181t352.5 65.5q170 0 313.5 -58.5t241.5 -160.5t153 -243.5t55 -303.5q0 -199 -69.5 -368.5t-189.5 -285t-283 -180.5t-346 -65q-173 0 -317.5 58t-243 160.5t-153 245t-54.5 308.5zM283 733q0 -137 30.5 -248.5t77 -182.5 t111 -124.5t123 -80.5t123.5 -43t102 -19.5t68 -3.5q229 0 402 110t265 306t92 450q0 302 -175 491t-453 189q-144 0 -268.5 -45t-215 -124.5t-155 -186t-96 -231t-31.5 -257.5z" />
<glyph unicode="P" horiz-adv-x="1323" d="M49 0l4 33q117 0 158.5 25t52.5 98l201 1298q3 22 3 39q0 48 -24 64q-33 22 -157 22l4 33h450q170 0 278.5 -18.5t184.5 -61.5q180 -102 180 -326q0 -152 -76.5 -272t-205.5 -185t-285 -65q-88 0 -182 20t-160 60l-90 -592q-3 -20 -3 -36q0 -55 33 -76q43 -27 185 -27 l-4 -33h-547zM475 764q115 -27 242 -27q242 0 389 123.5t147 351.5q0 179 -129 269q-63 42 -157 58.5t-236 16.5h-135z" />
<glyph unicode="Q" d="M154 743q0 196 68.5 363.5t188 283t284 181t352.5 65.5q170 0 313.5 -58.5t241.5 -160.5t153 -243.5t55 -303.5q0 -313 -162.5 -539t-428.5 -313l278 -378l-12 -11l-459 348q-52 -6 -104 -6q-173 0 -317.5 58t-243 160.5t-153 245t-54.5 308.5zM283 733 q0 -137 30.5 -248.5t77 -182.5t111 -124.5t123 -80.5t123.5 -43t102 -19.5t68 -3.5q229 0 402 110t265 306t92 450q0 302 -175 491t-453 189q-144 0 -268.5 -45t-215 -124.5t-155 -186t-96 -231t-31.5 -257.5z" />
<glyph unicode="R" horiz-adv-x="1519" d="M49 0l4 33q118 0 160 25.5t53 97.5l199 1312q3 18 3 33q0 25 -8 39q-12 23 -50 32t-121 9l4 31h395q183 0 298 -16.5t196 -55.5q180 -88 180 -291q0 -109 -40 -195.5t-111.5 -142.5t-166 -88t-208.5 -39q102 -3 169.5 -27.5t110 -76t63 -122.5t29.5 -179q6 -80 16 -136.5 t32 -108.5t55 -81t85 -43q32 -8 70 -8q25 0 54 4v-4q-78 -31 -144 -31t-112 16.5t-78 47.5t-52.5 88t-32.5 125t-22 172q-6 69 -18.5 119t-28 85.5t-46 58.5t-57 36.5t-79 19.5t-94.5 7.5t-119 1.5h-164l-86 -578q-3 -20 -3 -36q0 -56 34 -76q44 -26 184 -25l-4 -33h-549z M483 793h140q101 0 185 11.5t164 41.5t134.5 78t87.5 126t33 181q0 191 -154 270q-113 55 -375 55h-100z" />
<glyph unicode="S" horiz-adv-x="1243" d="M41 145l45 316h20q1 -75 17 -137.5t41.5 -106t62 -77.5t75.5 -54t85 -33t86.5 -17.5t83.5 -4.5q89 0 163.5 16.5t136 51.5t96 95t34.5 140q0 67 -22.5 125.5t-70 111.5t-99.5 96t-131 97l-117 80q-68 47 -119 90.5t-97 98.5t-70.5 118t-24.5 131q0 91 42 161t112 111 t152 61.5t171 20.5q138 0 277 -46.5t192 -100.5l-47 -309h-19q1 19 1 38q0 80 -24 144q-30 78 -88.5 124.5t-135 69.5t-167.5 23q-149 0 -250.5 -72t-101.5 -200q0 -62 22 -117.5t64.5 -102t82 -79.5t95.5 -70l123 -84q178 -122 272.5 -238t94.5 -243q0 -99 -45.5 -177 t-123.5 -126.5t-175.5 -73.5t-206.5 -25q-135 0 -270.5 45.5t-241.5 128.5z" />
<glyph unicode="T" horiz-adv-x="1402" d="M111 1108l75 504h1340l-76 -504h-20q17 111 17 192q0 42 -4 74q-13 100 -77 141t-205 41h-254l-211 -1380q-4 -24 -4 -43q0 -53 30 -73q40 -26 187 -27l-4 -33h-586l5 33q103 0 152 11.5t71 40t31 89.5l210 1382h-249q-107 0 -175 -21.5t-114.5 -77.5t-72 -136 t-46.5 -213h-20z" />
<glyph unicode="U" horiz-adv-x="1669" d="M180 1579l4 33h508l-4 -33q-117 0 -159.5 -23t-53.5 -90l-106 -692q-2 -14 -10.5 -67t-12 -76.5t-7 -62t-3.5 -68.5q0 -428 422 -428q83 0 153.5 13t123 32.5t97 56.5t74.5 68.5t56 86t40.5 92.5t29 104t21 105t17.5 109l96 635q8 47 8 83q0 17 -2 33q-6 46 -49.5 67.5 t-138.5 21.5l4 33h520l-4 -33q-124 0 -178 -46.5t-72 -158.5l-96 -635q-32 -210 -68 -318q-119 -360 -449 -432q-85 -18 -183 -18q-97 0 -177 18t-134.5 47.5t-95.5 72.5t-65 88.5t-38.5 101t-19.5 103.5t-5 102q0 92 29 287l104 675q3 16 3 30q0 42 -26 60q-34 23 -153 23z " />
<glyph unicode="V" horiz-adv-x="1417" d="M61 1579l7 33h464l-6 -33q-97 0 -133 -26q-26 -19 -26 -63q0 -17 4 -38l252 -1268l548 1033q43 82 69 138q24 55 36 97q9 34 10 57v9q-2 24 -21.5 38t-48 18.5t-75.5 4.5l6 33h477l-6 -33q-53 0 -87.5 -11t-74.5 -48t-81 -101.5t-101 -177.5l-696 -1288h-17l-317 1495 q-13 65 -53 98t-130 33z" />
<glyph unicode="W" horiz-adv-x="2091" d="M55 1579l6 33h480l-6 -33q-101 -1 -138 -25q-30 -20 -30 -74q0 -13 2 -28l143 -1253l621 1210h4l260 -1208l475 1085q32 71 48.5 112t25 78t4.5 54t-23 30t-47.5 16t-77.5 3l6 33h488l-6 -33q-56 0 -94.5 -9t-78 -36.5t-74.5 -80.5t-73 -138l-618 -1393l-275 1211 l-635 -1211h-10l-186 1526q-8 65 -52.5 98t-138.5 33z" />
<glyph unicode="X" horiz-adv-x="1679" d="M-76 0l4 33q49 0 87.5 11t82 42.5t84.5 71.5t109 114l524 570l-377 594q-19 29 -30 44.5t-32 37.5t-41 33t-50.5 19.5t-67.5 8.5l4 33h467l-4 -33q-101 1 -133 -23q-16 -11 -16 -32t18 -51l342 -545l383 418q80 88 99 140q7 20 7 35q0 25 -19 37q-31 20 -108 21l5 33h485 l-4 -33q-97 0 -172.5 -50t-204.5 -192l-432 -471l440 -702q38 -61 88.5 -96t136.5 -35l-4 -33h-501l4 33q78 0 122.5 14t51.5 37.5t-10 54.5l-408 641l-475 -518q-50 -55 -75.5 -92t-33 -62.5t8.5 -40.5t46 -22.5t83 -11.5l-5 -33h-479z" />
<glyph unicode="Y" horiz-adv-x="1411" d="M106 1579l5 33h467l-5 -33q-99 0 -143 -24q-30 -17 -30 -46q0 -14 6 -30l299 -799l528 747q39 55 39 89q0 17 -10 28q-29 35 -156 35l4 33h477l-4 -33q-52 0 -86 -7t-64.5 -28.5t-51.5 -45.5t-58 -75l-584 -802l-67 -455q-4 -27 -4.5 -45t2.5 -33.5t13.5 -24t24 -15.5 t38.5 -10t53 -4t71 -1v-33h-569l4 33q143 0 188.5 23.5t57.5 107.5l67 442l-329 852q-13 32 -23.5 50t-30.5 36.5t-51.5 26.5t-77.5 8z" />
<glyph unicode="Z" horiz-adv-x="1380" d="M-76 0l1352 1556h-514q-76 0 -127 -3t-99.5 -10.5t-80 -23.5t-60 -38.5t-48.5 -59.5t-37.5 -83t-33.5 -111h-24l61 385h1135l-1346 -1557h695q74 0 125.5 7t103 27.5t87 57t64.5 98t48 148.5h20l-57 -393h-1264z" />
<glyph unicode="[" horiz-adv-x="645" d="M57 -537l301 2149h394l-9 -66h-313l-285 -2017h314l-8 -66h-394z" />
<glyph unicode="\" horiz-adv-x="835" d="M59 1612h82l666 -1680h-82z" />
<glyph unicode="]" horiz-adv-x="645" d="M-106 -537l8 66h311l285 2017h-314l9 66h393l-301 -2149h-391z" />
<glyph unicode="^" horiz-adv-x="1142" d="M63 825l502 850h97l294 -850h-108l-252 738l-428 -738h-105z" />
<glyph unicode="_" horiz-adv-x="1644" d="M139 -84l11 84h1353l-10 -84h-1354z" />
<glyph unicode="`" horiz-adv-x="473" d="M88 1612h164l174 -398h-10z" />
<glyph unicode="a" horiz-adv-x="1081" d="M61 301q0 142 52 278.5t135.5 234.5t191.5 158t215 60q60 0 104.5 -21t65.5 -55l11 62h108l-156 -871q-9 -43 -9 -67q-1 -8 1 -14q4 -22 33 -23q46 0 121.5 94t128.5 209l20 -10q-26 -64 -58 -123t-73 -116t-91 -91.5t-99 -34.5q-91 0 -91 96q0 22 5 50l129 731 q-8 58 -53.5 95.5t-110.5 37.5q-128 0 -236.5 -98t-167.5 -247.5t-59 -307.5q0 -146 48.5 -213.5t129.5 -67.5q40 0 76.5 13t81.5 46.5t96 100t105 164.5q-137 -400 -398 -400q-71 0 -122.5 28.5t-79.5 78t-41 105t-13 118.5z" />
<glyph unicode="b" horiz-adv-x="1038" d="M117 142q-7 33 -7 72t7 85l190 1212q1 8 1 15q0 30 -21 44q-26 18 -107 17h-26l4 25h270l-205 -1327q-5 -45 -7 -80t7 -61.5t17.5 -46t25.5 -33t31.5 -21.5t35 -12.5t36 -6t34.5 -1.5q97 0 184.5 59.5t146 153.5t92.5 208.5t34 225.5q0 147 -56 216.5t-147 69.5 q-49 0 -89.5 -12t-88 -44.5t-97 -100t-99.5 -168.5q132 401 413 401q78 0 135 -30t87.5 -80.5t44.5 -106.5t14 -119q0 -98 -30 -202t-85 -196.5t-126.5 -166t-161.5 -117t-183 -43.5q-73 0 -126.5 16t-93.5 52.5t-54 102.5z" />
<glyph unicode="c" horiz-adv-x="800" d="M61 297q0 147 52.5 285.5t134.5 235.5t184.5 155.5t200.5 58.5q93 0 166 -40.5t73 -104.5q0 -32 -16.5 -51t-42.5 -19q-34 0 -50.5 17t-22.5 41t-14.5 48t-36 41t-77.5 17q-78 0 -149.5 -47.5t-122 -121t-88 -161t-56 -170t-18.5 -145.5q0 -87 16.5 -146.5t47 -89.5 t65 -41.5t80.5 -11.5q87 0 177 51.5t169 165.5l4 -2q-91 -164 -186.5 -227.5t-208.5 -63.5q-131 0 -206 80.5t-75 245.5z" />
<glyph unicode="d" horiz-adv-x="1126" d="M61 307q0 142 54.5 278t139.5 232.5t189.5 155.5t202.5 59q62 0 117.5 -22t83.5 -56l84 557q1 8 1 15q0 30 -20 44q-25 18 -104 17h-49l4 25h289l-222 -1469q-3 -22 -4.5 -33.5t-2 -25t1.5 -19.5t5.5 -12t10 -8t16.5 -2q46 0 121.5 94t128.5 209l20 -10q-26 -64 -58 -123 t-73 -116t-91 -91.5t-99 -34.5q-55 -1 -76 35q-14 23 -14 64q0 21 4 47l110 731q-47 133 -196 133q-97 0 -184.5 -59.5t-146 -153.5t-92.5 -208.5t-34 -225.5q0 -146 55 -216.5t142 -70.5q216 0 381 326q-31 -94 -72.5 -166.5t-83.5 -116t-89 -71.5t-87.5 -38t-81.5 -10 q-78 0 -135 30t-87.5 80.5t-44.5 106.5t-14 119z" />
<glyph unicode="e" horiz-adv-x="835" d="M61 297q0 147 52.5 285.5t134.5 235.5t184.5 155.5t200.5 58.5t152.5 -39t54.5 -108q0 -55 -18 -101t-68.5 -86t-85 -65.5t-124.5 -60.5t-126.5 -48t-148.5 -49q-53 -17 -79 -26q-12 -61 -12 -113q0 -87 16.5 -146.5t47 -89.5t65 -41.5t80.5 -11.5q87 0 177 51.5 t169 165.5l4 -2q-91 -164 -186.5 -227.5t-208.5 -63.5q-131 0 -206 80.5t-75 245.5zM197 479q116 41 204 81t164.5 89.5t117 107t40.5 120.5q0 53 -35.5 78.5t-89.5 25.5q-60 0 -117 -31.5t-100.5 -82.5t-81 -118t-62.5 -134.5t-40 -135.5z" />
<glyph unicode="f" horiz-adv-x="729" d="M-408 -442q0 22 15 39.5t43 17.5t46 -13.5t28.5 -32.5t22 -38.5t35.5 -33t60 -13.5q61 0 111.5 24t98.5 81t86 164t63 261l147 926h-198l6 41h198l17 98q20 126 61 225.5t91 160.5t111.5 100.5t117.5 55t114 15.5q93 0 156 -30.5t63 -77.5q0 -62 -59 -62q-23 0 -39.5 9.5 t-25 24.5t-19 31.5t-21 31.5t-32.5 24.5t-53 9.5q-61 0 -111.5 -24t-98.5 -81t-86 -164t-63 -261l-14 -86h346l-6 -41h-346l-150 -938q-20 -126 -61 -225.5t-91 -160.5t-111.5 -100.5t-117.5 -55t-114 -15.5q-94 0 -157 31.5t-63 81.5z" />
<glyph unicode="g" horiz-adv-x="1052" d="M-55 -289q0 63 32.5 114.5t88 84.5t113 53t122.5 31q-101 0 -161 45t-60 113q0 39 19.5 70.5t49.5 51.5t71.5 35t78.5 22.5t78 12.5q-189 -42 -189 -154q0 -46 44.5 -70t127.5 -24h166q189 0 297.5 -56t108.5 -177q0 -94 -51.5 -173t-134 -128.5t-181.5 -77t-198 -27.5 q-202 0 -312 71.5t-110 182.5zM47 -289q0 -100 85 -159.5t235 -59.5q74 0 151.5 19t148 55.5t115.5 100.5t45 143q0 90 -72.5 137t-244.5 47h-209q-254 -92 -254 -283zM150 662q0 169 117 269.5t292 100.5q98 0 176 -37l400 6l-11 -86l-381 76q83 -40 133 -115.5t50 -177.5 q0 -112 -55.5 -197.5t-148 -129t-206.5 -43.5q-154 0 -260 89.5t-106 244.5zM264 662q0 -136 72.5 -215.5t181.5 -79.5q126 0 209.5 97t83.5 234q0 136 -72.5 215.5t-181.5 79.5q-126 0 -209.5 -97t-83.5 -234z" />
<glyph unicode="h" horiz-adv-x="1083" d="M86 0l233 1511q1 8 1 15q0 30 -20 44q-26 18 -107 17h-27l4 25h270l-245 -1612h-109zM289 600q74 200 192 314t246 114q85 0 132 -44.5t55 -122.5q2 -21 1 -45q0 -62 -14 -140l-110 -529q-10 -44 -10 -68q-1 -7 1 -13q4 -22 33 -23q46 0 121.5 94t128.5 209l20 -10 q-26 -64 -58 -123t-73 -116t-91 -91.5t-99 -34.5q-92 0 -92 93q0 23 6 53l119 577q13 63 13 110q0 56 -19 89q-35 59 -105 59q-75 0 -153 -53.5t-137.5 -130t-106.5 -168.5z" />
<glyph unicode="i" horiz-adv-x="559" d="M47 741q25 61 47.5 105.5t55 90.5t71.5 70.5t84 24.5q63 0 83 -44q11 -24 11 -63q0 -34 -8 -79l-125 -694q-9 -45 -9 -70q-1 -10 1 -16q4 -24 33 -23q46 0 121.5 94t128.5 209l20 -10q-26 -64 -58 -123t-73 -116t-91 -91.5t-99 -34.5q-91 0 -91 97q0 23 5 51l131 733 q7 44 7.5 66.5t-8 34.5t-28.5 12q-77 0 -188 -234zM309 1464q0 38 26 65t62 27q39 0 65.5 -26.5t26.5 -65.5q0 -37 -26.5 -62.5t-65.5 -25.5q-36 0 -62 26t-26 62z" />
<glyph unicode="j" horiz-adv-x="538" d="M-137 -551q136 126 200.5 280.5t110.5 436.5l113 686q7 44 7.5 66.5t-8 34.5t-28.5 12q-77 0 -188 -234l-21 10q25 61 47.5 105.5t55 90.5t71.5 70.5t84 24.5q63 0 83 -44q11 -24 11 -63q0 -34 -8 -79l-112 -686q-43 -262 -137 -425.5t-279 -289.5zM309 1464q0 38 26 65 t62 27q39 0 65.5 -26.5t26.5 -65.5q0 -37 -26.5 -62.5t-65.5 -25.5q-36 0 -62 26t-26 62z" />
<glyph unicode="k" horiz-adv-x="983" d="M90 0l234 1511q1 8 1 15q0 30 -21 44q-26 18 -107 17h-27l4 25h270l-161 -1055q202 0 332.5 100t138.5 248q3 67 18 97t59 30q30 0 44.5 -22t11.5 -54q-3 -60 -41.5 -129t-101 -129.5t-154 -103t-189.5 -47.5q120 -11 176.5 -79t79.5 -204q25 -139 65.5 -197.5 t131.5 -58.5q51 0 121 25l2 -4q-82 -58 -172 -58q-52 0 -90 10.5t-73.5 37.5t-59 79.5t-35.5 130.5q-6 42 -11 68t-14.5 63t-21.5 60t-32 49t-45 40q-25 13 -61 23q-33 9 -73 9h-8l-82 -541h-109z" />
<glyph unicode="l" horiz-adv-x="518" d="M113 117l219 1394q1 8 1 15q0 30 -21 44q-26 18 -107 17h-27l4 25h271l-230 -1469q-7 -38 -7 -60q0 -9 2 -17q4 -22 32 -23q46 0 121.5 94t128.5 209l20 -10q-26 -64 -58 -123t-73 -116t-91 -91.5t-99 -34.5q-56 -1 -77 35q-13 23 -13 62q0 22 4 49z" />
<glyph unicode="m" horiz-adv-x="1716" d="M47 741q25 61 47.5 105.5t55 90.5t71.5 70.5t84 24.5q63 0 83 -44q11 -24 11 -63q0 -34 -8 -79l-43 -240l-2 -6l2 2v4q75 199 188 310.5t238 111.5q186 0 186 -217q0 -59 -14 -135l-12 -72q75 201 187.5 312.5t238.5 111.5q85 0 131.5 -44.5t53.5 -122.5q2 -20 2 -42 q0 -63 -15 -143l-109 -529q-9 -43 -10 -66q0 -9 2 -15q5 -22 33 -23q46 0 121.5 94t128.5 209l20 -10q-26 -64 -58 -123t-73 -116t-91 -91.5t-99 -34.5q-92 0 -92 93q0 23 6 53l116 577q12 60 12 107q0 151 -130 151q-97 0 -200 -104t-175 -246l-109 -602h-108l125 694 q10 56 10 100q0 158 -129 158q-97 0 -200 -104t-175 -246l-108 -602h-109l154 852q7 44 7.5 66.5t-8 34.5t-28.5 12q-77 0 -188 -234z" />
<glyph unicode="n" horiz-adv-x="1142" d="M47 741q25 61 47.5 105.5t55 90.5t71.5 70.5t84 24.5q63 0 83 -44q11 -24 11 -63q0 -34 -8 -79l-151 -846h-109l154 852q7 44 7.5 66.5t-8 34.5t-28.5 12q-77 0 -188 -234zM348 600q74 200 192 314t246 114q126 0 168 -94q23 -51 22 -124q0 -60 -15 -134l-111 -529 q-10 -44 -10 -68q0 -7 2 -13q4 -22 32 -23q46 0 121.5 94t128.5 209l21 -10q-26 -64 -58 -123t-73.5 -116t-91.5 -91.5t-99 -34.5q-92 0 -92 93q0 23 6 53l119 577q13 63 13 110q0 56 -19 89q-35 59 -105 59q-75 0 -153 -53.5t-137.5 -130t-106.5 -168.5z" />
<glyph unicode="o" horiz-adv-x="956" d="M51 297q0 151 54 290.5t137.5 235t185 152.5t195.5 57q133 0 212.5 -81t79.5 -244q0 -121 -35 -236.5t-94 -204t-133 -156t-155 -103.5t-156 -36q-133 0 -212 81.5t-79 244.5zM168 328q0 -163 56.5 -234t148.5 -71q65 0 125.5 32.5t106 87t83 123t61.5 141.5t37 142.5 t13 126.5q0 163 -57 234t-150 71q-78 0 -148 -46t-119 -119t-85.5 -161t-54 -173t-17.5 -154z" />
<glyph unicode="p" horiz-adv-x="1142" d="M-43 -537l4 25q88 0 120 17t38 59l194 1288q8 43 8 68q0 12 -2 20q-5 25 -34 25q-78 0 -189 -234l-20 10q25 61 47.5 105.5t55 90.5t71.5 70.5t84 24.5q62 0 82 -44q11 -24 11 -66q0 -33 -7 -76l-33 -215q132 401 414 401q78 0 135 -30t87 -80.5t44 -106.5t14 -119 q0 -123 -46.5 -253t-122.5 -234t-182.5 -171t-217.5 -67q-139 0 -215 68l-72 -475q-1 -8 -1 -15q0 -29 20 -43q24 -18 100 -18h49l-4 -25h-432zM311 133q29 -51 83 -80.5t114 -29.5q97 0 184.5 59.5t146 153.5t92.5 208.5t34 225.5q0 148 -57.5 217t-155.5 69 q-45 0 -83.5 -12t-85.5 -44.5t-96.5 -100t-99.5 -168.5z" />
<glyph unicode="q" horiz-adv-x="1044" d="M76 307q0 142 54.5 278t139.5 232.5t189.5 155.5t202.5 59q65 0 121 -22.5t79 -57.5l10 66h109l-223 -1454q-1 -8 -1 -14q0 -31 22 -45q27 -17 116 -17l-4 -25h-426l4 25h35q82 0 111.5 17.5t35.5 58.5l193 1272v-5q-1 61 -61.5 105.5t-133.5 44.5q-97 0 -184.5 -59.5 t-145.5 -153.5t-92 -208.5t-34 -225.5q0 -148 57.5 -217.5t157.5 -69.5q195 0 354 260q-49 -103 -102.5 -173t-106.5 -103.5t-97.5 -46.5t-93.5 -13q-80 0 -138 30t-89 80.5t-45 106.5t-14 119z" />
<glyph unicode="r" horiz-adv-x="731" d="M47 741q25 61 47.5 105.5t55 90.5t71.5 70.5t84 24.5q63 0 83 -44q11 -24 11 -63q0 -34 -8 -79l-41 -225v-3v3q39 106 88.5 184.5t91 117.5t86.5 62.5t69 28t44 4.5q78 0 78 -51q0 -23 -11.5 -37.5t-34.5 -19.5t-36 -6t-39 -1q-203 0 -336 -285l-110 -618h-109l154 852 q7 44 7.5 66.5t-8 34.5t-28.5 12q-77 0 -188 -234z" />
<glyph unicode="s" horiz-adv-x="823" d="M20 139q0 26 16 44t44 18q27 0 47 -19.5t36 -47.5t37 -56.5t62 -48t98 -19.5q55 0 106.5 18.5t89.5 62t38 104.5q0 135 -176 268l-90 69q-40 31 -64.5 52.5t-55.5 56t-46 73.5t-15 83q0 77 50 132t120.5 79t149.5 24q77 0 149 -23.5t114 -58t42 -67.5q0 -62 -57 -62 q-28 0 -46 17.5t-31 42t-30.5 49t-56 42t-96.5 17.5q-49 0 -94 -15t-79 -53t-34 -92q0 -34 12 -64.5t39.5 -60.5t46.5 -47t57 -47l97 -73q42 -34 67.5 -57.5t59 -62.5t50.5 -82t17 -89q0 -133 -96.5 -204t-249.5 -71q-149 0 -238.5 56t-89.5 112z" />
<glyph unicode="t" horiz-adv-x="671" d="M117 940l6 41h162l114 264h25l-43 -264h293l-6 -41h-295l-123 -743q-13 -78 -13 -112q0 -9 1 -15q5 -26 45 -26.5t109 31t145 103.5l12 -14q-78 -97 -168 -145t-152 -48q-56 0 -80 27q-22 24 -22 68q1 5 1 9q2 50 13 120l127 745h-151z" />
<glyph unicode="u" horiz-adv-x="1144" d="M59 741q25 61 47.5 105.5t55 90.5t71.5 70.5t84 24.5q65 0 85 -45q10 -22 10 -59q0 -38 -11 -90l-102 -504q-14 -69 -15 -121v-10q0 -45 8 -73q9 -32 28 -51.5t41.5 -26.5t50.5 -7q105 0 200.5 71t161.5 199l119 666h108l-149 -829q-9 -45 -9 -70q-1 -10 1 -16 q4 -24 33 -23q46 0 121 94t128 209l21 -10q-26 -64 -58 -123t-73.5 -116t-91.5 -91.5t-99 -34.5q-91 0 -91 99q0 23 5 51l35 194q-62 -166 -172 -255t-227 -89q-203 0 -203 215q0 60 16 136l109 530q9 42 9 68q0 12 -2 20q-6 26 -36 25q-77 0 -188 -234z" />
<glyph unicode="v" horiz-adv-x="946" d="M23 723q28 149 82 229t128 80q46 0 80 -30t53.5 -77t31 -119t15 -140t3.5 -156q0 -248 -41 -471q96 50 175 116t142.5 149.5t99 188t35.5 218.5q0 55 -11.5 94t-28 59t-33 34.5t-28 32.5t-11.5 42q0 26 18 42.5t55 16.5q56 0 95 -62t39 -149q0 -154 -53.5 -305.5 t-157.5 -277.5q-178 -214 -435 -293l-4 2q12 57 24.5 203.5t12.5 293.5q0 72 -1.5 127.5t-5.5 117.5t-12 106.5t-20.5 82.5t-32 57t-44.5 19q-47 0 -86.5 -68t-65.5 -169z" />
<glyph unicode="w" horiz-adv-x="1499" d="M23 723q28 149 82 229t128 80q46 0 80 -30t53.5 -77t31 -119t15 -140t3.5 -156q0 -248 -41 -471q176 93 297 239t149 334q-15 228 -110 369h149q72 -138 72 -471q0 -248 -41 -471q96 50 175 116t142.5 149.5t99 188t35.5 218.5q0 55 -11.5 94t-28 59t-33 34.5t-28 32.5 t-11.5 42q0 25 18.5 42t55.5 17q56 0 94.5 -62t38.5 -149q0 -154 -53.5 -305.5t-157.5 -277.5q-179 -215 -434 -293l-5 2q12 57 24.5 203.5t12.5 293.5q-41 -116 -125 -219q-168 -201 -424 -280l-4 2q12 57 24.5 203.5t12.5 293.5q0 72 -1.5 127.5t-5.5 117.5t-12 106.5 t-20.5 82.5t-32 57t-44.5 19q-47 0 -86.5 -68t-65.5 -169z" />
<glyph unicode="x" horiz-adv-x="1126" d="M10 82q2 50 23.5 112.5t58.5 131.5l21 -11q-18 -39 -32 -83q-13 -44 -21 -90q-3 -18 -4 -33q0 -25 8 -43q12 -30 45 -29q28 0 61 25t58 54t75 93l232 297l-80 182q-11 25 -29.5 72t-31 75t-29.5 59.5t-36 46.5t-40 15q-33 0 -57 -36q-24 -34 -36 -88q-11 -49 -10 -105 v-10h-22q-1 24 -1 46q0 113 38 185q46 86 121 86q48 0 84 -29t73 -112l129 -293l217 279q122 155 211 155q46 0 68 -30q20 -26 19 -68q1 -5 1 -10q-2 -49 -23.5 -112t-58.5 -132l-20 10q18 39 32 84q14 44 22 90q3 18 2 33q0 25 -7 43q-12 30 -45 29q-40 0 -81 -39.5 t-114 -132.5l-198 -256l98 -224q11 -26 29.5 -72.5t31 -74.5t29.5 -59.5t36.5 -46.5t41.5 -15q48 0 76 72q26 67 26 155v13h23q1 -24 1 -46q0 -113 -38 -185q-46 -86 -121 -87q-47 0 -83.5 29.5t-73.5 112.5l-150 336l-250 -322q-122 -156 -211 -156q-46 -1 -68 29 q-20 26 -20 70v10z" />
<glyph unicode="y" horiz-adv-x="1019" d="M-383 -432q0 33 22.5 55.5t59.5 22.5q34 0 57 -22.5t33.5 -49.5t32.5 -49.5t55 -22.5q74 0 205.5 95.5t265.5 236.5q1 22 1 62q0 82 -3 238q-4 236 -4 310q0 71 -1.5 127t-5.5 118t-12.5 106.5t-21 82t-32 57t-44.5 19.5q-85 0 -145 -206l-19 6q29 142 79.5 210t125.5 68 q46 0 80 -30t53.5 -77t31 -119t15 -140t3.5 -156q0 -69 1.5 -201t1.5 -201q1 -14 1 -28q0 -58 -2 -127q176 211 299.5 428.5t123.5 339.5q0 52 -11.5 89t-28 55.5t-33 33t-28 32.5t-11.5 42q0 25 18.5 42t55.5 17q56 0 94.5 -62t38.5 -149q0 -155 -130 -403t-325 -481 q-180 -215 -365.5 -355.5t-308.5 -140.5q-101 0 -162 38.5t-61 88.5z" />
<glyph unicode="z" horiz-adv-x="952" d="M-35 18l875 879h-437q-84 0 -129 -36.5t-92 -145.5l-26 -62h-9l78 328h754l8 -18l-874 -877h477q85 0 129.5 35.5t91.5 144.5l27 62h8l-78 -328h-795z" />
<glyph unicode="{" horiz-adv-x="643" d="M61 539v8q141 20 221 129t80 262q0 45 -13 136.5t-13 139.5q0 191 106.5 294.5t305.5 103.5h38l-10 -66h-47q-150 0 -229.5 -84t-79.5 -241q0 -46 10 -138t10 -139q0 -291 -231 -401q131 -79 131 -244q0 -65 -16.5 -129t-39.5 -117t-46 -105t-39.5 -112t-16.5 -119 q0 -95 48.5 -142.5t168.5 -47.5h56l-11 -66h-38q-166 0 -238 62t-72 184q0 65 25.5 143.5t55.5 140.5t55.5 144.5t25.5 155.5q0 100 -48.5 165t-148.5 83z" />
<glyph unicode="|" horiz-adv-x="600" d="M119 0l264 1673h94l-264 -1673h-94z" />
<glyph unicode="}" horiz-adv-x="538" d="M-211 -539l10 66h56q145 0 223 84.5t78 241.5q0 46 -10.5 137.5t-10.5 138.5q0 290 232 401q-131 79 -131 244q0 79 24.5 160.5t54 138.5t54 134.5t24.5 148.5q0 96 -48 143t-169 47h-55l10 66h39q166 0 237.5 -62t71.5 -184q0 -65 -25.5 -143.5t-55.5 -140.5 t-55.5 -144.5t-25.5 -155.5q0 -100 48.5 -164.5t148.5 -82.5v-9q-141 -20 -221 -129t-80 -262q0 -46 13.5 -136.5t13.5 -139.5q0 -191 -106.5 -294.5t-305.5 -103.5h-39z" />
<glyph unicode="~" horiz-adv-x="1402" d="M106 426q56 114 140 170.5t178 56.5q57 0 119.5 -21t118 -50.5t109.5 -59t111.5 -50.5t106.5 -21q132 0 228 163l75 -32q-56 -113 -138 -167.5t-177 -54.5q-71 0 -153.5 31.5t-144 69t-135.5 69t-132 31.5q-132 0 -230 -172z" />
<glyph unicode="&#xa1;" horiz-adv-x="458" d="M-57 -608q51 188 103.5 394t117.5 474t96 391h10q-10 -84 -72 -548.5t-81 -710.5q-39 -25 -88 -25q-50 0 -86 25zM199 930q0 43 29.5 72.5t72.5 29.5t72.5 -29.5t29.5 -72.5t-29.5 -73t-72.5 -30t-72.5 30t-29.5 73z" />
<glyph unicode="&#xa2;" horiz-adv-x="894" d="M88 297q0 129 40 251.5t106 215.5t150 159.5t173 92.5l33 211h72l-31 -197q10 2 28 2q94 0 167 -40.5t73 -104.5q0 -32 -16.5 -51t-42.5 -19q-34 0 -50.5 17t-22.5 41t-14.5 48t-36 41t-77.5 17h-16l-148 -928q159 31 285 211l4 -2q-127 -234 -301 -280l-31 -193h-72 l29 182h-20q-131 0 -206 80.5t-75 245.5zM205 336q0 -84 15.5 -142.5t44 -88.5t61 -43t75.5 -15l148 918q-78 -29 -145.5 -107t-109.5 -171.5t-65.5 -187t-23.5 -163.5z" />
<glyph unicode="&#xa3;" horiz-adv-x="1241" d="M-6 -14l4 26h55q103 0 191.5 159t124.5 419q4 23 14 155h-242l6 50h236q9 208 18 278q11 81 35 147.5t53.5 111.5t69 79t78 53.5t84.5 31.5t84.5 16t81.5 4q72 0 148 -18t130 -51t54 -71q0 -26 -16.5 -40.5t-43.5 -14.5q-33 0 -54.5 16t-37 39t-36.5 46t-65.5 39 t-111.5 16q-292 0 -338 -340q-9 -65 -11 -184t-5 -158h444l-6 -50h-442q0 -12 -4 -36q-37 -265 -123 -424.5t-222 -266.5q249 166 398 166q59 0 116 -19.5t94 -43t84 -43t89 -19.5q50 0 100 27.5t86 81.5l4 -2q-56 -104 -113 -149.5t-126 -45.5q-41 0 -75.5 11.5t-60.5 28 t-55.5 33.5t-76 28.5t-105.5 11.5q-62 0 -118.5 -12t-99.5 -28t-86 -31.5t-96.5 -23.5t-111.5 -3z" />
<glyph unicode="&#xa5;" horiz-adv-x="1382" d="M119 1444l4 31h448l-4 -31q-95 0 -136 -22t-21 -68l280 -688l469 641q54 72 23.5 104.5t-150.5 32.5l4 31h453l-4 -31q-49 0 -81 -6.5t-61 -26.5t-48 -41t-54 -67l-496 -656h275l-8 -69h-291l-27 -183h291l-10 -69h-291l-25 -174q-3 -21 -3.5 -36.5t3 -28.5t9 -21.5 t17.5 -15t25.5 -10t37 -6t48 -3t60.5 -0.5l-4 -31h-541l4 31q135 0 177.5 21.5t52.5 97.5l24 176h-290l10 69h291l26 183h-291l9 69h266l-295 686q-25 59 -59.5 85t-116.5 26z" />
<glyph unicode="&#xa6;" horiz-adv-x="591" d="M96 -537l121 856h80l-121 -856h-80zM276 756l121 856h80l-121 -856h-80z" />
<glyph unicode="&#xa7;" horiz-adv-x="937" d="M12 150q0 25 16.5 41t47.5 16q18 0 31.5 -6t22 -18.5t14 -23t12 -28.5t10.5 -27q49 -94 225 -94q55 0 106.5 14.5t95.5 42.5t70.5 76.5t26.5 110.5q0 89 -57.5 142t-175.5 89l-86 27q-115 36 -177.5 108.5t-62.5 159.5q0 73 33.5 129t89.5 87.5t120.5 47.5t135.5 17 l-74 20q-112 31 -168.5 102t-56.5 163q0 95 51 162t132 97.5t184 30.5q139 0 229 -51.5t90 -111.5q0 -23 -12.5 -39.5t-38.5 -16.5q-15 0 -26.5 4.5t-20.5 15t-13.5 18t-13 25.5t-12.5 25q-24 46 -76 69t-121 23q-109 0 -180.5 -54t-71.5 -165q0 -142 213 -211l84 -26 q132 -42 193 -104.5t61 -147.5q0 -140 -96.5 -220.5t-251.5 -88.5l14 -5q134 -38 200.5 -110.5t66.5 -165.5q0 -103 -60 -179.5t-151.5 -112.5t-200.5 -36q-150 0 -260.5 56.5t-110.5 122.5zM233 817q0 -156 211 -217l70 -20q96 9 170 83t74 175q0 83 -59.5 135.5 t-174.5 83.5l-12 4q-54 -5 -102 -21t-88.5 -44.5t-64.5 -74.5t-24 -104z" />
<glyph unicode="&#xa8;" horiz-adv-x="937" d="M170 1415q0 38 26 65t62 27q39 0 65.5 -26.5t26.5 -65.5q0 -37 -26.5 -62.5t-65.5 -25.5q-36 0 -62 26t-26 62zM606 1415q0 38 26 65t62 27q39 0 65.5 -26.5t26.5 -65.5q0 -37 -26.5 -62.5t-65.5 -25.5q-36 0 -62 26t-26 62z" />
<glyph unicode="&#xa9;" d="M125 784q0 222 109 409.5t296 296.5t408 109q166 0 317 -64.5t260 -173.5t173.5 -260t64.5 -317q0 -221 -109 -408t-296.5 -296t-409.5 -109q-221 0 -408 109t-296 296t-109 408zM199 784q0 -152 58 -290.5t156.5 -239t235.5 -160t289 -59.5t289.5 59.5t236 160t156 239 t57.5 290.5q0 122 -36.5 236.5t-104.5 207.5t-158.5 162.5t-204 107.5t-235.5 38q-152 0 -289 -59.5t-235.5 -160.5t-156.5 -240t-58 -292zM426 801q0 234 146.5 375t381.5 141q205 0 373 -94v-179h-14q-35 82 -98 136t-128.5 75t-134.5 21q-78 0 -149 -28t-130.5 -83.5 t-94.5 -150t-35 -217.5q0 -92 23 -169t62 -131t91 -91.5t110.5 -55.5t120.5 -18q58 0 106 9.5t99.5 34t94 75t71.5 124.5h14v-176q-144 -108 -381 -108q-133 0 -236.5 42t-166 114.5t-94 162t-31.5 191.5z" />
<glyph unicode="&#xaa;" horiz-adv-x="587" d="M129 1167q0 90 32.5 175t84.5 147t120 99.5t136 37.5q81 0 106 -49l6 41h68l-115 -637h-65l94 530q-5 35 -33.5 58.5t-68.5 23.5q-81 0 -149 -61t-105 -154.5t-37 -193.5q0 -174 110 -174q52 0 107 43t119 159q-83 -249 -250 -249q-44 0 -76.5 17.5t-50 48t-25.5 65 t-8 73.5z" />
<glyph unicode="&#xab;" horiz-adv-x="909" d="M41 498l2 8l494 426h24l-366 -430l245 -432h-22zM365 498l2 8l493 426h25l-367 -430l246 -432h-23z" />
<glyph unicode="&#xac;" horiz-adv-x="1249" d="M133 459l14 76h973l-84 -535h-94l72 459h-881z" />
<glyph unicode="&#xad;" horiz-adv-x="860" d="M129 481v84h602v-84h-602z" />
<glyph unicode="&#xae;" d="M125 784q0 222 109 409.5t296 296.5t408 109q166 0 317 -64.5t260 -173.5t173.5 -260t64.5 -317q0 -221 -109 -408t-296.5 -296t-409.5 -109q-221 0 -408 109t-296 296t-109 408zM199 784q0 -152 58 -290.5t156.5 -239t235.5 -160t289 -59.5t289.5 59.5t236 160t156 239 t57.5 290.5q0 122 -36.5 236.5t-104.5 207.5t-158.5 162.5t-204 107.5t-235.5 38q-152 0 -289 -59.5t-235.5 -160.5t-156.5 -240t-58 -292zM541 348v23h41q40 0 56.5 14.5t16.5 50.5v772q0 36 -16.5 50t-56.5 14h-41v24h305q68 0 118 -4t103 -18.5t86 -39.5t54.5 -68.5 t21.5 -104.5q0 -93 -67 -159t-183 -83q99 -20 157.5 -73.5t86.5 -147.5q13 -45 20 -69t18.5 -55t21.5 -45.5t25.5 -31.5t33.5 -23.5t41.5 -10.5t54.5 -3l2 -16q-44 -12 -103 -12q-99 0 -147 60t-82 194q-30 117 -106.5 165t-190.5 48h-55v-355q0 -43 18 -58t68 -15h41v-23 h-342zM756 829h63q66 0 116 9.5t94 32.5t67.5 69t23.5 113q0 222 -297 209l-67 -2v-431z" />
<glyph unicode="&#xaf;" horiz-adv-x="933" d="M121 1348l10 65h643l-10 -65h-643z" />
<glyph unicode="&#xb0;" horiz-adv-x="761" d="M88 1413q0 121 85.5 206t207.5 85t207.5 -85t85.5 -206t-85.5 -206t-207.5 -85t-207.5 85t-85.5 206zM182 1413q0 -82 55 -145.5t144 -63.5q91 0 145 61.5t54 147.5q0 88 -56.5 148.5t-142.5 60.5q-80 0 -139.5 -60.5t-59.5 -148.5z" />
<glyph unicode="&#xb1;" horiz-adv-x="1179" d="M33 0l12 76h973l-12 -76h-973zM109 547l12 76h438l53 378h95l-54 -378h441l-13 -76h-438l-53 -369h-94l53 369h-440z" />
<glyph unicode="&#xb4;" horiz-adv-x="473" d="M100 1214l238 398h164l-391 -398h-11z" />
<glyph unicode="&#xb5;" horiz-adv-x="1208" d="M115 -537l241 1520h95l-107 -657q-18 -112 43.5 -189.5t181.5 -77.5q87 0 171.5 60t142.5 160l112 704h95l-156 -983h-90l24 160q-61 -91 -144 -140t-171 -49q-74 0 -142 31t-102 96l-100 -635h-94z" />
<glyph unicode="&#xb6;" horiz-adv-x="1191" d="M152 1163q0 121 56.5 212t156.5 149q154 88 440 88h350l-8 -66h-174l-252 -1786h-82l252 1786h-160l-252 -1786h-82l146 1039q-180 0 -285.5 99.5t-105.5 264.5z" />
<glyph unicode="&#xb7;" horiz-adv-x="512" d="M154 526q0 43 29.5 73t72.5 30t72.5 -30t29.5 -73t-29.5 -72.5t-72.5 -29.5t-72.5 29.5t-29.5 72.5z" />
<glyph unicode="&#xb8;" horiz-adv-x="618" d="M98 -489q48 6 97 24t93.5 46.5t72.5 72.5t28 94q0 39 -22 58.5t-72 19.5q-43 0 -88 -29l-45 39l123 156h61l-125 -152q61 41 123 41q69 0 109.5 -31.5t40.5 -93.5t-40.5 -113t-102.5 -80.5t-126.5 -46t-122.5 -18.5z" />
<glyph unicode="&#xba;" horiz-adv-x="552" d="M129 1165q0 91 32.5 176t83.5 143t112 93t118 35q81 0 129.5 -49t48.5 -148q0 -91 -32.5 -176t-83.5 -143t-112.5 -92.5t-119.5 -34.5q-81 0 -128.5 48.5t-47.5 147.5zM201 1184q0 -185 123 -185q59 0 110 42.5t82 105.5t48.5 129t17.5 119q0 186 -125 186 q-59 0 -109.5 -42.5t-81.5 -105t-48 -129t-17 -120.5z" />
<glyph unicode="&#xbb;" horiz-adv-x="909" d="M25 70l366 432l-248 430h25l375 -426l-2 -8l-496 -428h-20zM348 70l367 432l-248 430h25l374 -426l-2 -8l-495 -428h-21z" />
<glyph unicode="&#xbf;" horiz-adv-x="813" d="M-84 -391q0 74 31.5 146.5t82 134t111.5 123t122.5 123.5t112 125.5t82 140t31.5 155.5q0 45 -24 74l4 4q25 -18 45.5 -61t20.5 -111q0 -75 -28 -145.5t-73 -126.5t-99 -110.5t-108 -108.5t-99 -110t-73 -126.5t-28 -145.5q0 -94 55.5 -141t140.5 -47q55 0 95.5 16t64 39 t42.5 46t41 39t50 16q25 0 42 -14t17 -42q0 -43 -54.5 -74.5t-132 -46t-163.5 -14.5q-135 0 -222 61t-87 181zM422 930q0 43 29.5 72.5t72.5 29.5t73 -29.5t30 -72.5t-30 -73t-73 -30t-72.5 30t-29.5 73z" />
<glyph unicode="&#xc0;" horiz-adv-x="1468" d="M-147 0l4 33q69 0 113.5 24.5t98 98t140.5 233.5l680 1247h22l314 -1472q13 -66 52.5 -98.5t129.5 -32.5l-4 -33h-461l4 33q99 0 138.5 26.5t25.5 100.5l-86 418h-631l-82 -150q-48 -89 -77.5 -151t-42.5 -107t-11.5 -71t21 -41t47.5 -20t76 -5l-5 -33h-466zM446 676h560 l-154 749zM649 1935h191l166 -223h-11z" />
<glyph unicode="&#xc1;" horiz-adv-x="1468" d="M-147 0l4 33q69 0 113.5 24.5t98 98t140.5 233.5l680 1247h22l314 -1472q13 -66 52.5 -98.5t129.5 -32.5l-4 -33h-461l4 33q99 0 138.5 26.5t25.5 100.5l-86 418h-631l-82 -150q-48 -89 -77.5 -151t-42.5 -107t-11.5 -71t21 -41t47.5 -20t76 -5l-5 -33h-466zM446 676h560 l-154 749zM752 1712l166 223h190l-346 -223h-10z" />
<glyph unicode="&#xc2;" horiz-adv-x="1468" d="M-147 0l4 33q69 0 113.5 24.5t98 98t140.5 233.5l680 1247h22l314 -1472q13 -66 52.5 -98.5t129.5 -32.5l-4 -33h-461l4 33q99 0 138.5 26.5t25.5 100.5l-86 418h-631l-82 -150q-48 -89 -77.5 -151t-42.5 -107t-11.5 -71t21 -41t47.5 -20t76 -5l-5 -33h-466zM446 676h560 l-154 749zM571 1714l334 230h6l267 -230h-13l-274 117l-309 -117h-11z" />
<glyph unicode="&#xc3;" horiz-adv-x="1468" d="M-147 0l4 33q69 0 113.5 24.5t98 98t140.5 233.5l680 1247h22l314 -1472q13 -66 52.5 -98.5t129.5 -32.5l-4 -33h-461l4 33q99 0 138.5 26.5t25.5 100.5l-86 418h-631l-82 -150q-48 -89 -77.5 -151t-42.5 -107t-11.5 -71t21 -41t47.5 -20t76 -5l-5 -33h-466zM446 676h560 l-154 749zM567 1724l76 179h508l72 96l10 -6l-72 -181h-508l-75 -94z" />
<glyph unicode="&#xc4;" horiz-adv-x="1468" d="M-147 0l4 33q69 0 113.5 24.5t98 98t140.5 233.5l680 1247h22l314 -1472q13 -66 52.5 -98.5t129.5 -32.5l-4 -33h-461l4 33q99 0 138.5 26.5t25.5 100.5l-86 418h-631l-82 -150q-48 -89 -77.5 -151t-42.5 -107t-11.5 -71t21 -41t47.5 -20t76 -5l-5 -33h-466zM446 676h560 l-154 749zM592 1843q0 38 26 65t62 27q39 0 65.5 -26.5t26.5 -65.5q0 -37 -26.5 -62.5t-65.5 -25.5q-36 0 -62 26t-26 62zM1090 1843q0 38 26 65t62 27q39 0 65.5 -26.5t26.5 -65.5q0 -37 -26.5 -62.5t-65.5 -25.5q-36 0 -62 26t-26 62z" />
<glyph unicode="&#xc5;" horiz-adv-x="1468" d="M-147 0l4 33q69 0 113.5 24.5t98 98t140.5 233.5l678 1243q-74 11 -125 67t-51 132q0 84 61 142.5t148 58.5t147.5 -58.5t60.5 -142.5t-60.5 -142.5t-147.5 -58.5h-7l312 -1466q13 -66 52.5 -98.5t129.5 -32.5l-4 -33h-461l4 33q99 0 138.5 26.5t25.5 100.5l-86 418h-631 l-82 -150q-48 -89 -77.5 -151t-42.5 -107t-11.5 -71t21 -41t47.5 -20t76 -5l-5 -33h-466zM446 676h560l-154 749zM776 1831q0 -61 41 -104.5t103 -43.5q66 0 105.5 43t39.5 105q0 64 -43 105.5t-102 41.5q-62 0 -103 -43t-41 -104z" />
<glyph unicode="&#xc6;" horiz-adv-x="2367" d="M-168 0l6 33q55 0 95 11t98 50t129.5 107t185.5 188l1155 1223h866l-40 -367h-21q4 69 0 117t-20.5 83.5t-41 56.5t-69.5 33.5t-96.5 16.5t-130.5 4h-398l-94 -661h350q43 0 68 2t51 9t41 20t31.5 37.5t29 57.5t27.5 83h21l-70 -492h-20q-2 75 -11 119t-32.5 68.5 t-55.5 32.5t-88 8h-348l-92 -647q-12 -91 13 -114.5t124 -23.5h348q105 0 166.5 11.5t109 49t74.5 98t54 167.5h20l-53 -381h-1206l4 33q122 0 165 22.5t52 89.5l61 433h-672l-141 -150q-229 -240 -260 -318q-22 -56 35 -70q28 -7 86 -7l-6 -33h-500zM711 676h592l104 737z " />
<glyph unicode="&#xc7;" horiz-adv-x="1646" d="M123 698q0 150 39 289.5t116 257t183 205t247.5 137t301.5 49.5q398 0 626 -209l-43 -284h-22q2 101 -29.5 178.5t-84.5 125t-129 77.5t-152.5 41.5t-163.5 11.5q-137 0 -258 -46t-212 -128.5t-157 -192.5t-99.5 -241t-33.5 -271q0 -147 41.5 -269t119.5 -211t197.5 -138 t268.5 -49q89 0 162.5 10.5t149 39t134 74.5t108.5 121.5t80 176.5h19l-51 -299q-256 -183 -594 -183l-109 -131q61 41 123 41q69 0 109.5 -31.5t40.5 -93.5t-40.5 -113t-102.5 -80.5t-126.5 -46t-122.5 -18.5l-4 13q48 6 97 24t93.5 46.5t72.5 72.5t28 94q0 39 -22 58.5 t-72 19.5q-43 0 -88 -29l-45 39l108 137q-321 15 -512.5 212.5t-191.5 512.5zM827 -27q16 -2 54 -2h6l16 21h-61z" />
<glyph unicode="&#xc8;" horiz-adv-x="1380" d="M49 0l4 33q117 0 157.5 22.5t51.5 89.5l205 1321q11 67 -24.5 90t-155.5 23l4 33h1089l-43 -367h-20q4 41 4 74t-3.5 61.5t-9.5 50.5t-18 40t-26.5 31t-36 22.5t-45.5 15.5t-56.5 9.5t-67 5t-79.5 1.5h-383l-100 -661h335q60 0 91 5t60.5 26.5t48 62t40.5 115.5h21 l-74 -492h-21q0 99 -16.5 147.5t-51 64.5t-106.5 16h-338l-98 -647q-13 -90 11 -114t120 -24h334q101 0 160.5 11.5t105.5 49.5t73.5 98t55.5 167h17l-56 -381h-1159zM649 1935h191l166 -223h-11z" />
<glyph unicode="&#xc9;" horiz-adv-x="1380" d="M49 0l4 33q117 0 157.5 22.5t51.5 89.5l205 1321q11 67 -24.5 90t-155.5 23l4 33h1089l-43 -367h-20q4 41 4 74t-3.5 61.5t-9.5 50.5t-18 40t-26.5 31t-36 22.5t-45.5 15.5t-56.5 9.5t-67 5t-79.5 1.5h-383l-100 -661h335q60 0 91 5t60.5 26.5t48 62t40.5 115.5h21 l-74 -492h-21q0 99 -16.5 147.5t-51 64.5t-106.5 16h-338l-98 -647q-13 -90 11 -114t120 -24h334q101 0 160.5 11.5t105.5 49.5t73.5 98t55.5 167h17l-56 -381h-1159zM772 1712l166 223h190l-346 -223h-10z" />
<glyph unicode="&#xca;" horiz-adv-x="1380" d="M49 0l4 33q117 0 157.5 22.5t51.5 89.5l205 1321q11 67 -24.5 90t-155.5 23l4 33h1089l-43 -367h-20q4 41 4 74t-3.5 61.5t-9.5 50.5t-18 40t-26.5 31t-36 22.5t-45.5 15.5t-56.5 9.5t-67 5t-79.5 1.5h-383l-100 -661h335q60 0 91 5t60.5 26.5t48 62t40.5 115.5h21 l-74 -492h-21q0 99 -16.5 147.5t-51 64.5t-106.5 16h-338l-98 -647q-13 -90 11 -114t120 -24h334q101 0 160.5 11.5t105.5 49.5t73.5 98t55.5 167h17l-56 -381h-1159zM580 1714l333 230h7l266 -230h-12l-275 117l-309 -117h-10z" />
<glyph unicode="&#xcb;" horiz-adv-x="1380" d="M49 0l4 33q117 0 157.5 22.5t51.5 89.5l205 1321q11 67 -24.5 90t-155.5 23l4 33h1089l-43 -367h-20q4 41 4 74t-3.5 61.5t-9.5 50.5t-18 40t-26.5 31t-36 22.5t-45.5 15.5t-56.5 9.5t-67 5t-79.5 1.5h-383l-100 -661h335q60 0 91 5t60.5 26.5t48 62t40.5 115.5h21 l-74 -492h-21q0 99 -16.5 147.5t-51 64.5t-106.5 16h-338l-98 -647q-13 -90 11 -114t120 -24h334q101 0 160.5 11.5t105.5 49.5t73.5 98t55.5 167h17l-56 -381h-1159zM569 1843q0 38 26 65t62 27q39 0 66 -26.5t27 -65.5q0 -37 -26.5 -62.5t-66.5 -25.5q-36 0 -62 26t-26 62 zM1067 1843q0 38 26 65t62 27q39 0 65.5 -26.5t26.5 -65.5q0 -37 -26.5 -62.5t-65.5 -25.5q-36 0 -62 26t-26 62z" />
<glyph unicode="&#xcc;" horiz-adv-x="798" d="M49 0l4 33q113 0 155.5 27t53.5 96l203 1310q11 67 -24.5 90t-153.5 23l2 33h508l-4 -33q-117 0 -158.5 -23t-52.5 -90l-201 -1310q-11 -69 24.5 -96t151.5 -27l-2 -33h-506zM324 1935h190l166 -223h-10z" />
<glyph unicode="&#xcd;" horiz-adv-x="798" d="M49 0l4 33q113 0 155.5 27t53.5 96l203 1310q11 67 -24.5 90t-153.5 23l2 33h508l-4 -33q-117 0 -158.5 -23t-52.5 -90l-201 -1310q-11 -69 24.5 -96t151.5 -27l-2 -33h-506zM389 1712l166 223h190l-346 -223h-10z" />
<glyph unicode="&#xce;" horiz-adv-x="798" d="M49 0l4 33q113 0 155.5 27t53.5 96l203 1310q11 67 -24.5 90t-153.5 23l2 33h508l-4 -33q-117 0 -158.5 -23t-52.5 -90l-201 -1310q-11 -69 24.5 -96t151.5 -27l-2 -33h-506zM217 1714l334 230h6l266 -230h-12l-274 117l-310 -117h-10z" />
<glyph unicode="&#xcf;" horiz-adv-x="798" d="M49 0l4 33q113 0 155.5 27t53.5 96l203 1310q11 67 -24.5 90t-153.5 23l2 33h508l-4 -33q-117 0 -158.5 -23t-52.5 -90l-201 -1310q-11 -69 24.5 -96t151.5 -27l-2 -33h-506zM254 1843q0 38 26 65t62 27q39 0 65.5 -26.5t26.5 -65.5q0 -37 -26.5 -62.5t-65.5 -25.5 q-36 0 -62 26t-26 62zM668 1843q0 38 26 65t62 27q39 0 65.5 -26.5t26.5 -65.5q0 -37 -26.5 -62.5t-65.5 -25.5q-36 0 -62 26t-26 62z" />
<glyph unicode="&#xd0;" horiz-adv-x="1714" d="M49 0l2 33q120 0 160.5 21t50.5 91l105 693h-185l8 63h187l84 555q11 73 -23.5 97t-152.5 24l6 35h432q219 0 360 -21t244 -65q356 -153 356 -580q0 -211 -71 -386t-202.5 -299t-326.5 -192.5t-434 -68.5h-600zM387 193q-13 -90 10.5 -114t116.5 -24h135q421 0 661 237 t240 650q0 384 -280 526q-96 48 -227 68t-334 20h-113l-100 -655h409l-8 -63h-412z" />
<glyph unicode="&#xd1;" horiz-adv-x="1845" d="M20 0l5 33q122 0 174.5 50t70.5 165l174 1149q14 93 -37 136.5t-149 43.5l8 35h307l842 -1415l178 1167q11 72 5 119.5t-50.5 71.5t-138.5 24l8 33h510l-6 -33q-125 0 -177.5 -50t-70.5 -165l-217 -1415h-18l-906 1501l-182 -1202q-11 -72 -5.5 -119.5t49.5 -71.5 t138 -24l-4 -33h-508zM778 1724l76 179h508l72 96l10 -6l-72 -181h-508l-76 -94z" />
<glyph unicode="&#xd2;" d="M154 743q0 196 68.5 363.5t188 283t284 181t352.5 65.5q170 0 313.5 -58.5t241.5 -160.5t153 -243.5t55 -303.5q0 -199 -69.5 -368.5t-189.5 -285t-283 -180.5t-346 -65q-173 0 -317.5 58t-243 160.5t-153 245t-54.5 308.5zM283 733q0 -137 30.5 -248.5t77 -182.5 t111 -124.5t123 -80.5t123.5 -43t102 -19.5t68 -3.5q229 0 402 110t265 306t92 450q0 302 -175 491t-453 189q-144 0 -268.5 -45t-215 -124.5t-155 -186t-96 -231t-31.5 -257.5zM745 1935h191l166 -223h-10z" />
<glyph unicode="&#xd3;" d="M154 743q0 196 68.5 363.5t188 283t284 181t352.5 65.5q170 0 313.5 -58.5t241.5 -160.5t153 -243.5t55 -303.5q0 -199 -69.5 -368.5t-189.5 -285t-283 -180.5t-346 -65q-173 0 -317.5 58t-243 160.5t-153 245t-54.5 308.5zM283 733q0 -137 30.5 -248.5t77 -182.5 t111 -124.5t123 -80.5t123.5 -43t102 -19.5t68 -3.5q229 0 402 110t265 306t92 450q0 302 -175 491t-453 189q-144 0 -268.5 -45t-215 -124.5t-155 -186t-96 -231t-31.5 -257.5zM932 1712l166 223h190l-346 -223h-10z" />
<glyph unicode="&#xd4;" d="M154 743q0 196 68.5 363.5t188 283t284 181t352.5 65.5q170 0 313.5 -58.5t241.5 -160.5t153 -243.5t55 -303.5q0 -199 -69.5 -368.5t-189.5 -285t-283 -180.5t-346 -65q-173 0 -317.5 58t-243 160.5t-153 245t-54.5 308.5zM283 733q0 -137 30.5 -248.5t77 -182.5 t111 -124.5t123 -80.5t123.5 -43t102 -19.5t68 -3.5q229 0 402 110t265 306t92 450q0 302 -175 491t-453 189q-144 0 -268.5 -45t-215 -124.5t-155 -186t-96 -231t-31.5 -257.5zM733 1714l334 230h6l266 -230h-12l-274 117l-310 -117h-10z" />
<glyph unicode="&#xd5;" d="M154 743q0 196 68.5 363.5t188 283t284 181t352.5 65.5q170 0 313.5 -58.5t241.5 -160.5t153 -243.5t55 -303.5q0 -199 -69.5 -368.5t-189.5 -285t-283 -180.5t-346 -65q-173 0 -317.5 58t-243 160.5t-153 245t-54.5 308.5zM283 733q0 -137 30.5 -248.5t77 -182.5 t111 -124.5t123 -80.5t123.5 -43t102 -19.5t68 -3.5q229 0 402 110t265 306t92 450q0 302 -175 491t-453 189q-144 0 -268.5 -45t-215 -124.5t-155 -186t-96 -231t-31.5 -257.5zM733 1724l76 179h508l72 96l10 -6l-72 -181h-508l-76 -94z" />
<glyph unicode="&#xd6;" d="M154 743q0 196 68.5 363.5t188 283t284 181t352.5 65.5q170 0 313.5 -58.5t241.5 -160.5t153 -243.5t55 -303.5q0 -199 -69.5 -368.5t-189.5 -285t-283 -180.5t-346 -65q-173 0 -317.5 58t-243 160.5t-153 245t-54.5 308.5zM283 733q0 -137 30.5 -248.5t77 -182.5 t111 -124.5t123 -80.5t123.5 -43t102 -19.5t68 -3.5q229 0 402 110t265 306t92 450q0 302 -175 491t-453 189q-144 0 -268.5 -45t-215 -124.5t-155 -186t-96 -231t-31.5 -257.5zM733 1843q0 38 26 65t62 27q39 0 65.5 -26.5t26.5 -65.5q0 -37 -26.5 -62.5t-65.5 -25.5 q-36 0 -62 26t-26 62zM1231 1843q0 38 26 65t62 27q39 0 65.5 -26.5t26.5 -65.5q0 -37 -26.5 -62.5t-65.5 -25.5q-36 0 -62 26t-26 62z" />
<glyph unicode="&#xd7;" horiz-adv-x="1142" d="M80 143l428 371l-322 383l68 59l324 -383l442 383l55 -63l-444 -385l313 -371l-72 -57l-309 369l-430 -371z" />
<glyph unicode="&#xd8;" horiz-adv-x="1875" d="M154 743q0 196 68.5 363.5t188 283t284 181t352.5 65.5q247 0 432 -118l120 149l66 -55l-117 -146q125 -103 193.5 -257.5t68.5 -338.5q0 -199 -69.5 -368.5t-189.5 -285t-283 -180.5t-346 -65q-277 0 -473 144l-134 -166l-65 51l135 168q-111 104 -171 251.5t-60 323.5z M283 733q0 -316 157 -497l987 1220q-158 121 -378 121q-144 0 -268.5 -45t-215 -124.5t-155 -186t-96 -231t-31.5 -257.5zM500 176q56 -46 122.5 -78t126.5 -45t99 -17.5t70 -4.5q229 0 402 110t265 306t92 450q0 312 -184 502z" />
<glyph unicode="&#xd9;" horiz-adv-x="1669" d="M180 1579l4 33h508l-4 -33q-117 0 -159.5 -23t-53.5 -90l-106 -692q-2 -14 -10.5 -67t-12 -76.5t-7 -62t-3.5 -68.5q0 -428 422 -428q83 0 153.5 13t123 32.5t97 56.5t74.5 68.5t56 86t40.5 92.5t29 104t21 105t17.5 109l96 635q12 71 6 116.5t-49.5 67t-138.5 21.5l4 33 h520l-4 -33q-124 0 -178 -46.5t-72 -158.5l-96 -635q-32 -210 -68 -318q-119 -360 -449 -432q-85 -18 -183 -18q-97 0 -177 18t-134.5 47.5t-95.5 72.5t-65 88.5t-38.5 101t-19.5 103.5t-5 102q0 92 29 287l104 675q11 67 -23 90t-153 23zM715 1935h190l166 -223h-10z" />
<glyph unicode="&#xda;" horiz-adv-x="1669" d="M180 1579l4 33h508l-4 -33q-117 0 -159.5 -23t-53.5 -90l-106 -692q-2 -14 -10.5 -67t-12 -76.5t-7 -62t-3.5 -68.5q0 -428 422 -428q83 0 153.5 13t123 32.5t97 56.5t74.5 68.5t56 86t40.5 92.5t29 104t21 105t17.5 109l96 635q12 71 6 116.5t-49.5 67t-138.5 21.5l4 33 h520l-4 -33q-124 0 -178 -46.5t-72 -158.5l-96 -635q-32 -210 -68 -318q-119 -360 -449 -432q-85 -18 -183 -18q-97 0 -177 18t-134.5 47.5t-95.5 72.5t-65 88.5t-38.5 101t-19.5 103.5t-5 102q0 92 29 287l104 675q11 67 -23 90t-153 23zM874 1712l166 223h191l-346 -223 h-11z" />
<glyph unicode="&#xdb;" horiz-adv-x="1669" d="M180 1579l4 33h508l-4 -33q-117 0 -159.5 -23t-53.5 -90l-106 -692q-2 -14 -10.5 -67t-12 -76.5t-7 -62t-3.5 -68.5q0 -428 422 -428q83 0 153.5 13t123 32.5t97 56.5t74.5 68.5t56 86t40.5 92.5t29 104t21 105t17.5 109l96 635q12 71 6 116.5t-49.5 67t-138.5 21.5l4 33 h520l-4 -33q-124 0 -178 -46.5t-72 -158.5l-96 -635q-32 -210 -68 -318q-119 -360 -449 -432q-85 -18 -183 -18q-97 0 -177 18t-134.5 47.5t-95.5 72.5t-65 88.5t-38.5 101t-19.5 103.5t-5 102q0 92 29 287l104 675q11 67 -23 90t-153 23zM659 1714l334 230h6l267 -230h-13 l-274 117l-309 -117h-11z" />
<glyph unicode="&#xdc;" horiz-adv-x="1669" d="M180 1579l4 33h508l-4 -33q-117 0 -159.5 -23t-53.5 -90l-106 -692q-2 -14 -10.5 -67t-12 -76.5t-7 -62t-3.5 -68.5q0 -428 422 -428q83 0 153.5 13t123 32.5t97 56.5t74.5 68.5t56 86t40.5 92.5t29 104t21 105t17.5 109l96 635q12 71 6 116.5t-49.5 67t-138.5 21.5l4 33 h520l-4 -33q-124 0 -178 -46.5t-72 -158.5l-96 -635q-32 -210 -68 -318q-119 -360 -449 -432q-85 -18 -183 -18q-97 0 -177 18t-134.5 47.5t-95.5 72.5t-65 88.5t-38.5 101t-19.5 103.5t-5 102q0 92 29 287l104 675q11 67 -23 90t-153 23zM694 1843q0 38 26 65t62 27 q39 0 65.5 -26.5t26.5 -65.5q0 -37 -26.5 -62.5t-65.5 -25.5q-36 0 -62 26t-26 62zM1192 1843q0 38 26 65t62 27q39 0 65.5 -26.5t26.5 -65.5q0 -37 -26.5 -62.5t-65.5 -25.5q-36 0 -62 26t-26 62z" />
<glyph unicode="&#xdd;" horiz-adv-x="1411" d="M106 1579l5 33h467l-5 -33q-99 0 -143 -24t-24 -76l299 -799l528 747q58 83 29 117.5t-156 34.5l4 33h477l-4 -33q-52 0 -86 -7t-64.5 -28.5t-51.5 -45.5t-58 -75l-584 -802l-67 -455q-4 -27 -4.5 -45t2.5 -33.5t13.5 -24t24 -15.5t38.5 -10t53 -4t71 -1v-33h-569l4 33 q143 0 188.5 23.5t57.5 107.5l67 442l-329 852q-13 32 -23.5 50t-30.5 36.5t-51.5 26.5t-77.5 8zM733 1712l166 223h191l-347 -223h-10z" />
<glyph unicode="&#xde;" horiz-adv-x="1335" d="M16 0l4 33q122 0 165.5 25t54.5 98l184 1310q9 72 -26 92.5t-160 20.5l4 33h321l-39 -303h125q178 0 291.5 -18.5t192.5 -61.5q192 -102 192 -332q0 -146 -73.5 -264t-206.5 -185t-300 -67q-201 0 -339 80l-41 -289q-12 -85 32.5 -112t192.5 -27l-4 -33h-570zM406 461 q115 -27 249 -27q237 0 385 120.5t148 346.5q0 188 -137 277q-67 42 -165 58.5t-247 16.5h-123z" />
<glyph unicode="&#xdf;" horiz-adv-x="1161" d="M-489 -442q0 22 14.5 39.5t42.5 17.5t46 -13.5t28.5 -32.5t22 -38.5t35.5 -33t60 -13.5q48 0 90 14t84.5 50.5t76.5 94.5t62.5 152.5t45.5 218.5l125 889l-144 37l4 21h148l27 200q15 108 44.5 190t81 148.5t135 101.5t195.5 35q135 0 223.5 -56t88.5 -155q0 -53 -24 -96 t-62 -72.5t-83.5 -54.5t-91.5 -48.5t-84 -48.5t-62 -61t-24 -79q0 -112 205 -254l76 -54q113 -77 168 -155t55 -170q0 -168 -118.5 -264.5t-296.5 -96.5q-147 0 -249 54.5t-102 119.5q0 25 17.5 43.5t48.5 18.5q17 0 30 -6t22 -18.5t14.5 -22.5t13 -29t10.5 -27 q24 -46 78 -70t125 -24q138 0 218.5 71t80.5 214q0 162 -164 270l-105 70q-215 141 -215 280q0 135 203 240q70 37 111.5 69t69.5 83t28 118q0 82 -62 127t-157 45q-150 0 -224.5 -91.5t-105.5 -313.5l-168 -1192q-18 -127 -58 -226.5t-90 -159.5t-111.5 -99.5t-118.5 -54.5 t-115 -15q-94 0 -156.5 31.5t-62.5 81.5z" />
<glyph unicode="&#xe0;" horiz-adv-x="1081" d="M61 301q0 142 52 278.5t135.5 234.5t191.5 158t215 60q60 0 104.5 -21t65.5 -55l11 62h108l-156 -871q-12 -59 -7.5 -81.5t32.5 -22.5q46 0 121.5 94t128.5 209l20 -10q-26 -64 -58 -123t-73 -116t-91 -91.5t-99 -34.5q-112 0 -86 146l129 731q-8 58 -53.5 95.5 t-110.5 37.5q-128 0 -236.5 -98t-167.5 -247.5t-59 -307.5q0 -146 48.5 -213.5t129.5 -67.5q40 0 76.5 13t81.5 46.5t96 100t105 164.5q-137 -400 -398 -400q-71 0 -122.5 28.5t-79.5 78t-41 105t-13 118.5zM371 1612h164l174 -398h-11z" />
<glyph unicode="&#xe1;" horiz-adv-x="1081" d="M61 301q0 142 52 278.5t135.5 234.5t191.5 158t215 60q60 0 104.5 -21t65.5 -55l11 62h108l-156 -871q-12 -59 -7.5 -81.5t32.5 -22.5q46 0 121.5 94t128.5 209l20 -10q-26 -64 -58 -123t-73 -116t-91 -91.5t-99 -34.5q-112 0 -86 146l129 731q-8 58 -53.5 95.5 t-110.5 37.5q-128 0 -236.5 -98t-167.5 -247.5t-59 -307.5q0 -146 48.5 -213.5t129.5 -67.5q40 0 76.5 13t81.5 46.5t96 100t105 164.5q-137 -400 -398 -400q-71 0 -122.5 28.5t-79.5 78t-41 105t-13 118.5zM571 1214l238 398h164l-391 -398h-11z" />
<glyph unicode="&#xe2;" horiz-adv-x="1081" d="M61 301q0 142 52 278.5t135.5 234.5t191.5 158t215 60q60 0 104.5 -21t65.5 -55l11 62h108l-156 -871q-12 -59 -7.5 -81.5t32.5 -22.5q46 0 121.5 94t128.5 209l20 -10q-26 -64 -58 -123t-73 -116t-91 -91.5t-99 -34.5q-112 0 -86 146l129 731q-8 58 -53.5 95.5 t-110.5 37.5q-128 0 -236.5 -98t-167.5 -247.5t-59 -307.5q0 -146 48.5 -213.5t129.5 -67.5q40 0 76.5 13t81.5 46.5t96 100t105 164.5q-137 -400 -398 -400q-71 0 -122.5 28.5t-79.5 78t-41 105t-13 118.5zM305 1221l404 417h6l258 -417h-12l-267 268l-379 -268h-10z" />
<glyph unicode="&#xe3;" horiz-adv-x="1081" d="M61 301q0 142 52 278.5t135.5 234.5t191.5 158t215 60q60 0 104.5 -21t65.5 -55l11 62h108l-156 -871q-12 -59 -7.5 -81.5t32.5 -22.5q46 0 121.5 94t128.5 209l20 -10q-26 -64 -58 -123t-73 -116t-91 -91.5t-99 -34.5q-112 0 -86 146l129 731q-8 58 -53.5 95.5 t-110.5 37.5q-128 0 -236.5 -98t-167.5 -247.5t-59 -307.5q0 -146 48.5 -213.5t129.5 -67.5q40 0 76.5 13t81.5 46.5t96 100t105 164.5q-137 -400 -398 -400q-71 0 -122.5 28.5t-79.5 78t-41 105t-13 118.5zM371 1272l75 178h508l72 96l10 -6l-71 -180h-508l-76 -94z" />
<glyph unicode="&#xe4;" horiz-adv-x="1081" d="M61 301q0 142 52 278.5t135.5 234.5t191.5 158t215 60q60 0 104.5 -21t65.5 -55l11 62h108l-156 -871q-12 -59 -7.5 -81.5t32.5 -22.5q46 0 121.5 94t128.5 209l20 -10q-26 -64 -58 -123t-73 -116t-91 -91.5t-99 -34.5q-112 0 -86 146l129 731q-8 58 -53.5 95.5 t-110.5 37.5q-128 0 -236.5 -98t-167.5 -247.5t-59 -307.5q0 -146 48.5 -213.5t129.5 -67.5q40 0 76.5 13t81.5 46.5t96 100t105 164.5q-137 -400 -398 -400q-71 0 -122.5 28.5t-79.5 78t-41 105t-13 118.5zM399 1415q0 38 26 65t62 27q39 0 66 -26.5t27 -65.5 q0 -37 -26.5 -62.5t-66.5 -25.5q-36 0 -62 26t-26 62zM836 1415q0 38 26 65t62 27q39 0 65.5 -26.5t26.5 -65.5q0 -37 -26.5 -62.5t-65.5 -25.5q-36 0 -62 26t-26 62z" />
<glyph unicode="&#xe5;" horiz-adv-x="1081" d="M61 301q0 142 52 278.5t135.5 234.5t191.5 158t215 60q60 0 104.5 -21t65.5 -55l11 62h108l-156 -871q-12 -59 -7.5 -81.5t32.5 -22.5q46 0 121.5 94t128.5 209l20 -10q-26 -64 -58 -123t-73 -116t-91 -91.5t-99 -34.5q-112 0 -86 146l129 731q-8 58 -53.5 95.5 t-110.5 37.5q-128 0 -236.5 -98t-167.5 -247.5t-59 -307.5q0 -146 48.5 -213.5t129.5 -67.5q40 0 76.5 13t81.5 46.5t96 100t105 164.5q-137 -400 -398 -400q-71 0 -122.5 28.5t-79.5 78t-41 105t-13 118.5zM516 1378q0 84 61 142.5t148 58.5t148 -58.5t61 -142.5t-61 -142 t-148 -58t-148 58t-61 142zM582 1378q0 -61 40.5 -104t102.5 -43q66 0 105.5 42.5t39.5 104.5q0 64 -43 106t-102 42q-62 0 -102.5 -43.5t-40.5 -104.5z" />
<glyph unicode="&#xe6;" horiz-adv-x="1492" d="M61 307q0 142 52 277.5t135.5 232.5t191 156t215.5 59q60 0 104.5 -21t65.5 -55l11 62h108l-35 -197q82 99 182.5 155t198.5 56t152.5 -39t54.5 -108q0 -55 -21 -102t-62 -84t-91 -68t-118.5 -58.5t-133 -50t-145.5 -48.5q-52 -16 -78 -25q-12 -62 -12 -113 q0 -87 16 -146.5t47 -89.5t65 -41.5t80 -11.5q87 0 177.5 51.5t169.5 165.5l4 -2q-91 -164 -187 -227.5t-209 -63.5q-131 0 -205.5 80.5t-74.5 245.5q0 86 20 184l66 367q-8 58 -53.5 95.5t-110.5 37.5q-128 0 -236.5 -96.5t-167.5 -244.5t-59 -306q0 -147 48.5 -217 t129.5 -70q40 0 76.5 13t81.5 46.5t96 100t105 164.5q-137 -400 -398 -400q-71 0 -123 29.5t-79.5 79.5t-40.5 106.5t-13 120.5zM854 479q116 41 204 81t164.5 89.5t117 107t40.5 120.5q0 53 -35.5 78.5t-89.5 25.5q-60 0 -117 -31.5t-100.5 -82.5t-81 -118t-62.5 -134.5 t-40 -135.5z" />
<glyph unicode="&#xe7;" horiz-adv-x="800" d="M61 297q0 147 52.5 285.5t134.5 235.5t184.5 155.5t200.5 58.5q93 0 166 -40.5t73 -104.5q0 -32 -16.5 -51t-42.5 -19q-34 0 -50.5 17t-22.5 41t-14.5 48t-36 41t-77.5 17q-78 0 -149.5 -47.5t-122 -121t-88 -161t-56 -170t-18.5 -145.5q0 -87 16.5 -146.5t47 -89.5 t65 -41.5t80.5 -11.5q87 0 177 51.5t169 165.5l4 -2q-91 -164 -186.5 -227.5t-208.5 -63.5h-25l-108 -131q61 41 123 41q69 0 109 -31.5t40 -93.5q0 -50 -27 -93.5t-69 -72t-95.5 -49.5t-104 -31t-95.5 -12l-4 13q48 6 97 24t93.5 46.5t72.5 72.5t28 94q0 39 -22 58.5 t-72 19.5q-43 0 -88 -29l-45 39l112 144q-96 23 -148.5 101.5t-52.5 215.5z" />
<glyph unicode="&#xe8;" horiz-adv-x="835" d="M61 297q0 147 52.5 285.5t134.5 235.5t184.5 155.5t200.5 58.5t152.5 -39t54.5 -108q0 -55 -18 -101t-68.5 -86t-85 -65.5t-124.5 -60.5t-126.5 -48t-148.5 -49q-53 -17 -79 -26q-12 -61 -12 -113q0 -87 16.5 -146.5t47 -89.5t65 -41.5t80.5 -11.5q87 0 177 51.5 t169 165.5l4 -2q-91 -164 -186.5 -227.5t-208.5 -63.5q-131 0 -206 80.5t-75 245.5zM197 479q116 41 204 81t164.5 89.5t117 107t40.5 120.5q0 53 -35.5 78.5t-89.5 25.5q-60 0 -117 -31.5t-100.5 -82.5t-81 -118t-62.5 -134.5t-40 -135.5zM342 1612h164l174 -398h-10z" />
<glyph unicode="&#xe9;" horiz-adv-x="835" d="M61 297q0 147 52.5 285.5t134.5 235.5t184.5 155.5t200.5 58.5t152.5 -39t54.5 -108q0 -55 -18 -101t-68.5 -86t-85 -65.5t-124.5 -60.5t-126.5 -48t-148.5 -49q-53 -17 -79 -26q-12 -61 -12 -113q0 -87 16.5 -146.5t47 -89.5t65 -41.5t80.5 -11.5q87 0 177 51.5 t169 165.5l4 -2q-91 -164 -186.5 -227.5t-208.5 -63.5q-131 0 -206 80.5t-75 245.5zM197 479q116 41 204 81t164.5 89.5t117 107t40.5 120.5q0 53 -35.5 78.5t-89.5 25.5q-60 0 -117 -31.5t-100.5 -82.5t-81 -118t-62.5 -134.5t-40 -135.5zM506 1214l237 398h164l-391 -398 h-10z" />
<glyph unicode="&#xea;" horiz-adv-x="835" d="M61 297q0 147 52.5 285.5t134.5 235.5t184.5 155.5t200.5 58.5t152.5 -39t54.5 -108q0 -55 -18 -101t-68.5 -86t-85 -65.5t-124.5 -60.5t-126.5 -48t-148.5 -49q-53 -17 -79 -26q-12 -61 -12 -113q0 -87 16.5 -146.5t47 -89.5t65 -41.5t80.5 -11.5q87 0 177 51.5 t169 165.5l4 -2q-91 -164 -186.5 -227.5t-208.5 -63.5q-131 0 -206 80.5t-75 245.5zM197 479q116 41 204 81t164.5 89.5t117 107t40.5 120.5q0 53 -35.5 78.5t-89.5 25.5q-60 0 -117 -31.5t-100.5 -82.5t-81 -118t-62.5 -134.5t-40 -135.5zM279 1221l403 417h6l258 -417h-12 l-266 268l-379 -268h-10z" />
<glyph unicode="&#xeb;" horiz-adv-x="835" d="M61 297q0 147 52.5 285.5t134.5 235.5t184.5 155.5t200.5 58.5t152.5 -39t54.5 -108q0 -55 -18 -101t-68.5 -86t-85 -65.5t-124.5 -60.5t-126.5 -48t-148.5 -49q-53 -17 -79 -26q-12 -61 -12 -113q0 -87 16.5 -146.5t47 -89.5t65 -41.5t80.5 -11.5q87 0 177 51.5 t169 165.5l4 -2q-91 -164 -186.5 -227.5t-208.5 -63.5q-131 0 -206 80.5t-75 245.5zM197 479q116 41 204 81t164.5 89.5t117 107t40.5 120.5q0 53 -35.5 78.5t-89.5 25.5q-60 0 -117 -31.5t-100.5 -82.5t-81 -118t-62.5 -134.5t-40 -135.5zM328 1415q0 38 26 65t62 27 q39 0 65.5 -26.5t26.5 -65.5q0 -37 -26.5 -62.5t-65.5 -25.5q-36 0 -62 26t-26 62zM764 1415q0 38 26 65t62 27q39 0 65.5 -26.5t26.5 -65.5q0 -37 -26.5 -62.5t-65.5 -25.5q-36 0 -62 26t-26 62z" />
<glyph unicode="&#xec;" horiz-adv-x="559" d="M47 741q25 61 47.5 105.5t55 90.5t71.5 70.5t84 24.5q63 0 83 -44t3 -142l-125 -694q-12 -62 -7.5 -85.5t32.5 -23.5q46 0 121.5 94t128.5 209l20 -10q-26 -64 -58 -123t-73 -116t-91 -91.5t-99 -34.5q-112 0 -86 148l131 733q7 44 7.5 66.5t-8 34.5t-28.5 12 q-77 0 -188 -234zM109 1612h163l174 -398h-10z" />
<glyph unicode="&#xed;" horiz-adv-x="559" d="M47 741q25 61 47.5 105.5t55 90.5t71.5 70.5t84 24.5q63 0 83 -44t3 -142l-125 -694q-12 -62 -7.5 -85.5t32.5 -23.5q46 0 121.5 94t128.5 209l20 -10q-26 -64 -58 -123t-73 -116t-91 -91.5t-99 -34.5q-112 0 -86 148l131 733q7 44 7.5 66.5t-8 34.5t-28.5 12 q-77 0 -188 -234zM162 1214l237 398h164l-391 -398h-10z" />
<glyph unicode="&#xee;" horiz-adv-x="559" d="M41 1200l330 438h6l209 -438h-13l-217 268l-305 -268h-10zM47 741q25 61 47.5 105.5t55 90.5t71.5 70.5t84 24.5q63 0 83 -44t3 -142l-125 -694q-12 -62 -7.5 -85.5t32.5 -23.5q46 0 121.5 94t128.5 209l20 -10q-26 -64 -58 -123t-73 -116t-91 -91.5t-99 -34.5 q-112 0 -86 148l131 733q7 44 7.5 66.5t-8 34.5t-28.5 12q-77 0 -188 -234z" />
<glyph unicode="&#xef;" horiz-adv-x="559" d="M47 741q25 61 47.5 105.5t55 90.5t71.5 70.5t84 24.5q63 0 83 -44t3 -142l-125 -694q-12 -62 -7.5 -85.5t32.5 -23.5q46 0 121.5 94t128.5 209l20 -10q-26 -64 -58 -123t-73 -116t-91 -91.5t-99 -34.5q-112 0 -86 148l131 733q7 44 7.5 66.5t-8 34.5t-28.5 12 q-77 0 -188 -234zM109 1415q0 38 26 65t62 27q39 0 65.5 -26.5t26.5 -65.5q0 -37 -26.5 -62.5t-65.5 -25.5q-36 0 -62 26t-26 62zM442 1415q0 38 26 65t62 27q40 0 66.5 -26.5t26.5 -65.5q0 -37 -26.5 -62.5t-66.5 -25.5q-36 0 -62 26t-26 62z" />
<glyph unicode="&#xf0;" horiz-adv-x="1202" d="M86 444q0 106 32.5 204t92.5 176t154 124.5t208 46.5q163 0 259.5 -96.5t119.5 -251.5q28 451 -293 709l-231 -246l-43 43l227 240q-128 94 -340 163l2 9q206 -38 377 -131l211 221l43 -41l-198 -211q177 -114 270.5 -297.5t93.5 -415.5q0 -70 -8.5 -139.5t-28.5 -141.5 t-49 -135.5t-73.5 -119.5t-99 -96t-128 -63.5t-158.5 -23.5q-200 0 -320 134t-120 339zM203 426q0 -84 19.5 -156.5t57.5 -129.5t99.5 -89.5t140.5 -32.5q77 0 144.5 30.5t116 81.5t83.5 118t52.5 141t17.5 148q0 108 -36.5 196t-115 143.5t-186.5 55.5q-80 0 -146 -28.5 t-111 -77t-76 -113.5t-45.5 -137.5t-14.5 -149.5z" />
<glyph unicode="&#xf1;" horiz-adv-x="1142" d="M47 741q25 61 47.5 105.5t55 90.5t71.5 70.5t84 24.5q63 0 83 -44t3 -142l-151 -846h-109l154 852q7 44 7.5 66.5t-8 34.5t-28.5 12q-77 0 -188 -234zM348 600q74 200 192 314t246 114q126 0 167.5 -93.5t7.5 -258.5l-111 -529q-13 -59 -8.5 -81.5t32.5 -22.5 q46 0 121.5 94t128.5 209l21 -10q-26 -64 -58 -123t-73.5 -116t-91.5 -91.5t-99 -34.5q-115 0 -86 146l119 577q29 140 -6 199t-105 59q-75 0 -153 -53.5t-137.5 -130t-106.5 -168.5zM379 1272l76 178h508l71 96l10 -6l-71 -180h-508l-76 -94z" />
<glyph unicode="&#xf2;" horiz-adv-x="956" d="M51 297q0 151 54 290.5t137.5 235t185 152.5t195.5 57q133 0 212.5 -81t79.5 -244q0 -121 -35 -236.5t-94 -204t-133 -156t-155 -103.5t-156 -36q-133 0 -212 81.5t-79 244.5zM168 328q0 -163 56.5 -234t148.5 -71q65 0 125.5 32.5t106 87t83 123t61.5 141.5t37 142.5 t13 126.5q0 163 -57 234t-150 71q-78 0 -148 -46t-119 -119t-85.5 -161t-54 -173t-17.5 -154zM358 1612h164l174 -398h-10z" />
<glyph unicode="&#xf3;" horiz-adv-x="956" d="M51 297q0 151 54 290.5t137.5 235t185 152.5t195.5 57q133 0 212.5 -81t79.5 -244q0 -121 -35 -236.5t-94 -204t-133 -156t-155 -103.5t-156 -36q-133 0 -212 81.5t-79 244.5zM168 328q0 -163 56.5 -234t148.5 -71q65 0 125.5 32.5t106 87t83 123t61.5 141.5t37 142.5 t13 126.5q0 163 -57 234t-150 71q-78 0 -148 -46t-119 -119t-85.5 -161t-54 -173t-17.5 -154zM494 1214l237 398h164l-391 -398h-10z" />
<glyph unicode="&#xf4;" horiz-adv-x="956" d="M51 297q0 151 54 290.5t137.5 235t185 152.5t195.5 57q133 0 212.5 -81t79.5 -244q0 -121 -35 -236.5t-94 -204t-133 -156t-155 -103.5t-156 -36q-133 0 -212 81.5t-79 244.5zM168 328q0 -163 56.5 -234t148.5 -71q65 0 125.5 32.5t106 87t83 123t61.5 141.5t37 142.5 t13 126.5q0 163 -57 234t-150 71q-78 0 -148 -46t-119 -119t-85.5 -161t-54 -173t-17.5 -154zM279 1221l403 417h6l258 -417h-12l-266 268l-379 -268h-10z" />
<glyph unicode="&#xf5;" horiz-adv-x="956" d="M51 297q0 151 54 290.5t137.5 235t185 152.5t195.5 57q133 0 212.5 -81t79.5 -244q0 -121 -35 -236.5t-94 -204t-133 -156t-155 -103.5t-156 -36q-133 0 -212 81.5t-79 244.5zM168 328q0 -163 56.5 -234t148.5 -71q65 0 125.5 32.5t106 87t83 123t61.5 141.5t37 142.5 t13 126.5q0 163 -57 234t-150 71q-78 0 -148 -46t-119 -119t-85.5 -161t-54 -173t-17.5 -154zM358 1272l76 178h508l72 96l10 -6l-72 -180h-508l-75 -94z" />
<glyph unicode="&#xf6;" horiz-adv-x="956" d="M51 297q0 151 54 290.5t137.5 235t185 152.5t195.5 57q133 0 212.5 -81t79.5 -244q0 -121 -35 -236.5t-94 -204t-133 -156t-155 -103.5t-156 -36q-133 0 -212 81.5t-79 244.5zM168 328q0 -163 56.5 -234t148.5 -71q65 0 125.5 32.5t106 87t83 123t61.5 141.5t37 142.5 t13 126.5q0 163 -57 234t-150 71q-78 0 -148 -46t-119 -119t-85.5 -161t-54 -173t-17.5 -154zM340 1415q0 38 26 65t62 27q39 0 65.5 -26.5t26.5 -65.5q0 -37 -26.5 -62.5t-65.5 -25.5q-36 0 -62 26t-26 62zM776 1415q0 38 26 65t62 27q39 0 65.5 -26.5t26.5 -65.5 q0 -37 -26.5 -62.5t-65.5 -25.5q-36 0 -62 26t-26 62z" />
<glyph unicode="&#xf7;" horiz-adv-x="1179" d="M117 483l14 76h930l-14 -76h-930zM406 205q0 43 29.5 72.5t72.5 29.5t72.5 -29.5t29.5 -72.5t-29.5 -73t-72.5 -30t-72.5 30t-29.5 73zM551 844q0 43 29.5 72.5t72.5 29.5t73 -29.5t30 -72.5t-30 -73t-73 -30t-72.5 30t-29.5 73z" />
<glyph unicode="&#xf8;" horiz-adv-x="956" d="M51 297q0 151 54 290.5t137.5 235t185 152.5t195.5 57q67 0 125 -22l79 129l60 -37l-78 -127q106 -82 106 -268q0 -121 -35 -236.5t-94 -204t-133 -156t-155 -103.5t-156 -36q-74 0 -135 27l-74 -121l-59 39l73 119q-96 86 -96 262zM168 328q0 -125 37 -201l504 817 q-48 37 -117 37q-78 0 -148 -46t-119 -119t-85.5 -161t-54 -173t-17.5 -154zM250 66q49 -43 123 -43q65 0 125.5 32.5t106 87t83 123t61.5 141.5t37 142.5t13 126.5q0 138 -43 213z" />
<glyph unicode="&#xf9;" horiz-adv-x="1144" d="M59 741q25 61 47.5 105.5t55 90.5t71.5 70.5t84 24.5q64 0 84.5 -45t-0.5 -149l-102 -504q-14 -69 -15 -121t8 -83.5t28 -51t41.5 -26.5t50.5 -7q105 0 200.5 71t161.5 199l119 666h108l-149 -829q-12 -62 -7.5 -85.5t32.5 -23.5q46 0 121 94t128 209l21 -10 q-26 -64 -58 -123t-73.5 -116t-91.5 -91.5t-99 -34.5q-112 0 -86 150l35 194q-62 -166 -172 -255t-227 -89q-259 0 -187 351l109 530q13 62 7 87.5t-36 25.5q-77 0 -188 -234zM381 1612h164l174 -398h-10z" />
<glyph unicode="&#xfa;" horiz-adv-x="1144" d="M59 741q25 61 47.5 105.5t55 90.5t71.5 70.5t84 24.5q64 0 84.5 -45t-0.5 -149l-102 -504q-14 -69 -15 -121t8 -83.5t28 -51t41.5 -26.5t50.5 -7q105 0 200.5 71t161.5 199l119 666h108l-149 -829q-12 -62 -7.5 -85.5t32.5 -23.5q46 0 121 94t128 209l21 -10 q-26 -64 -58 -123t-73.5 -116t-91.5 -91.5t-99 -34.5q-112 0 -86 150l35 194q-62 -166 -172 -255t-227 -89q-259 0 -187 351l109 530q13 62 7 87.5t-36 25.5q-77 0 -188 -234zM621 1214l237 398h164l-391 -398h-10z" />
<glyph unicode="&#xfb;" horiz-adv-x="1144" d="M59 741q25 61 47.5 105.5t55 90.5t71.5 70.5t84 24.5q64 0 84.5 -45t-0.5 -149l-102 -504q-14 -69 -15 -121t8 -83.5t28 -51t41.5 -26.5t50.5 -7q105 0 200.5 71t161.5 199l119 666h108l-149 -829q-12 -62 -7.5 -85.5t32.5 -23.5q46 0 121 94t128 209l21 -10 q-26 -64 -58 -123t-73.5 -116t-91.5 -91.5t-99 -34.5q-112 0 -86 150l35 194q-62 -166 -172 -255t-227 -89q-259 0 -187 351l109 530q13 62 7 87.5t-36 25.5q-77 0 -188 -234zM336 1221l403 417h6l259 -417h-13l-266 268l-379 -268h-10z" />
<glyph unicode="&#xfc;" horiz-adv-x="1144" d="M59 741q25 61 47.5 105.5t55 90.5t71.5 70.5t84 24.5q64 0 84.5 -45t-0.5 -149l-102 -504q-14 -69 -15 -121t8 -83.5t28 -51t41.5 -26.5t50.5 -7q105 0 200.5 71t161.5 199l119 666h108l-149 -829q-12 -62 -7.5 -85.5t32.5 -23.5q46 0 121 94t128 209l21 -10 q-26 -64 -58 -123t-73.5 -116t-91.5 -91.5t-99 -34.5q-112 0 -86 150l35 194q-62 -166 -172 -255t-227 -89q-259 0 -187 351l109 530q13 62 7 87.5t-36 25.5q-77 0 -188 -234zM389 1415q0 38 26 65t62 27q39 0 65.5 -26.5t26.5 -65.5q0 -37 -26.5 -62.5t-65.5 -25.5 q-36 0 -62 26t-26 62zM825 1415q0 38 26 65t62 27q39 0 66 -26.5t27 -65.5q0 -37 -26.5 -62.5t-66.5 -25.5q-36 0 -62 26t-26 62z" />
<glyph unicode="&#xfd;" horiz-adv-x="1019" d="M-383 -432q0 33 22.5 55.5t59.5 22.5q34 0 57 -22.5t33.5 -49.5t32.5 -49.5t55 -22.5q74 0 205.5 95.5t265.5 236.5q2 65 -2 300.5t-4 309.5q0 71 -1.5 127t-5.5 118t-12.5 106.5t-21 82t-32 57t-44.5 19.5q-85 0 -145 -206l-19 6q29 142 79.5 210t125.5 68q46 0 80 -30 t53.5 -77t31 -119t15 -140t3.5 -156q0 -69 1.5 -201t2 -201t-1.5 -155q176 211 299.5 428.5t123.5 339.5q0 52 -11.5 89t-28 55.5t-33 33t-28 32.5t-11.5 42q0 25 18.5 42t55.5 17q56 0 94.5 -62t38.5 -149q0 -155 -130 -403t-325 -481q-180 -215 -365.5 -355.5 t-308.5 -140.5q-101 0 -162 38.5t-61 88.5zM504 1214l237 398h164l-391 -398h-10z" />
<glyph unicode="&#xfe;" horiz-adv-x="1169" d="M-43 -537l4 25q88 0 120 17t38 59l299 1947q6 42 -21 59t-116 17l4 25h254l-150 -973q132 393 412 393q78 0 135 -30t87 -80.5t44 -106.5t14 -119q0 -142 -54 -278.5t-137.5 -232.5t-184.5 -155t-193 -59q-139 0 -215 68l-72 -475q-6 -42 21 -59t116 -17l-4 -25h-401z M311 133q28 -52 82 -81t115 -29q97 0 184.5 59.5t146 153.5t92.5 208.5t34 225.5q0 147 -56 216.5t-147 69.5q-49 0 -89.5 -12t-88.5 -44.5t-97 -98.5t-98 -166z" />
<glyph unicode="&#xff;" horiz-adv-x="1019" d="M-383 -432q0 33 22.5 55.5t59.5 22.5q34 0 57 -22.5t33.5 -49.5t32.5 -49.5t55 -22.5q74 0 205.5 95.5t265.5 236.5q2 65 -2 300.5t-4 309.5q0 71 -1.5 127t-5.5 118t-12.5 106.5t-21 82t-32 57t-44.5 19.5q-85 0 -145 -206l-19 6q29 142 79.5 210t125.5 68q46 0 80 -30 t53.5 -77t31 -119t15 -140t3.5 -156q0 -69 1.5 -201t2 -201t-1.5 -155q176 211 299.5 428.5t123.5 339.5q0 52 -11.5 89t-28 55.5t-33 33t-28 32.5t-11.5 42q0 25 18.5 42t55.5 17q56 0 94.5 -62t38.5 -149q0 -155 -130 -403t-325 -481q-180 -215 -365.5 -355.5 t-308.5 -140.5q-101 0 -162 38.5t-61 88.5zM301 1415q0 38 26 65t62 27q39 0 65.5 -26.5t26.5 -65.5q0 -37 -26.5 -62.5t-65.5 -25.5q-36 0 -62 26t-26 62zM737 1415q0 38 26 65t62 27q39 0 66 -26.5t27 -65.5q0 -37 -26.5 -62.5t-66.5 -25.5q-36 0 -62 26t-26 62z" />
<glyph unicode="&#x152;" horiz-adv-x="2785" d="M154 762q0 199 72 365t195.5 276.5t290 171.5t355.5 61q287 0 471.5 -142.5t243.5 -387.5l71 506h932l-41 -367h-20q4 69 0 117t-21 83.5t-41.5 56.5t-69 33.5t-96.5 16.5t-131 4h-397l-94 -661h350q43 0 68 2t51 9t41 20t31.5 37.5t29 57.5t27.5 83h20l-69 -492h-21 q-2 99 -20.5 147.5t-55 64.5t-110.5 16h-348l-92 -647q-12 -91 13 -114.5t124 -23.5h348q105 0 166.5 11.5t108.5 49t74 98t54 167.5h21l-53 -381h-1006l49 352q-107 -181 -289.5 -281t-416.5 -100q-183 0 -336 60t-258 165t-163 250.5t-58 315.5zM287 756q0 -111 20 -206 t52 -163t78 -124.5t93.5 -92.5t103 -63t101.5 -41t94.5 -22.5t76.5 -10.5t52 -2q123 0 236 31.5t212.5 99.5t172.5 166.5t115.5 239.5t42.5 311q0 309 -186.5 503.5t-479.5 194.5q-232 0 -411.5 -107t-276 -293.5t-96.5 -420.5z" />
<glyph unicode="&#x153;" horiz-adv-x="1513" d="M51 297q0 151 54 290.5t137.5 235t185 152.5t195.5 57q250 0 270 -276q83 127 194 201.5t224 74.5q98 0 152.5 -39t54.5 -108q0 -55 -18 -101t-68.5 -86t-85 -65.5t-124.5 -60.5t-126.5 -48t-148.5 -49q-53 -17 -79 -26q-12 -62 -12 -113q0 -87 16.5 -146.5t47 -89.5 t65 -41.5t80.5 -11.5q87 0 177 51.5t169 165.5l4 -2q-91 -164 -186.5 -227.5t-208.5 -63.5t-180.5 68.5t-77.5 210.5q-83 -128 -197 -203.5t-223 -75.5q-133 0 -212 81.5t-79 244.5zM168 328q0 -163 56.5 -234t148.5 -71q65 0 125.5 32.5t106 87t83 123t61.5 141.5t37 142.5 t13 126.5q0 163 -57 234t-150 71q-78 0 -148 -46t-119 -119t-85.5 -161t-54 -173t-17.5 -154zM874 479q116 41 204 81t164.5 89.5t117.5 107t41 120.5q0 53 -35.5 78.5t-89.5 25.5q-60 0 -117 -31.5t-101 -82.5t-81.5 -117.5t-62.5 -134.5t-40 -136z" />
<glyph unicode="&#x178;" horiz-adv-x="1411" d="M106 1579l5 33h467l-5 -33q-99 0 -143 -24t-24 -76l299 -799l528 747q58 83 29 117.5t-156 34.5l4 33h477l-4 -33q-52 0 -86 -7t-64.5 -28.5t-51.5 -45.5t-58 -75l-584 -802l-67 -455q-4 -27 -4.5 -45t2.5 -33.5t13.5 -24t24 -15.5t38.5 -10t53 -4t71 -1v-33h-569l4 33 q143 0 188.5 23.5t57.5 107.5l67 442l-329 852q-13 32 -23.5 50t-30.5 36.5t-51.5 26.5t-77.5 8zM559 1843q0 38 26 65t62 27q39 0 65.5 -26.5t26.5 -65.5q0 -37 -26.5 -62.5t-65.5 -25.5q-36 0 -62 26t-26 62zM1057 1843q0 38 26 65t62 27q39 0 65.5 -26.5t26.5 -65.5 q0 -37 -26.5 -62.5t-65.5 -25.5q-36 0 -62 26t-26 62z" />
<glyph unicode="&#x2c6;" horiz-adv-x="835" d="M68 1221l403 417h6l258 -417h-12l-266 268l-379 -268h-10z" />
<glyph unicode="&#x2dc;" horiz-adv-x="899" d="M104 1272l76 178h508l72 96l10 -6l-72 -180h-508l-75 -94z" />
<glyph unicode="&#x2000;" horiz-adv-x="1016" />
<glyph unicode="&#x2001;" horiz-adv-x="2032" />
<glyph unicode="&#x2002;" horiz-adv-x="1016" />
<glyph unicode="&#x2003;" horiz-adv-x="2032" />
<glyph unicode="&#x2004;" horiz-adv-x="677" />
<glyph unicode="&#x2005;" horiz-adv-x="508" />
<glyph unicode="&#x2006;" horiz-adv-x="338" />
<glyph unicode="&#x2007;" horiz-adv-x="338" />
<glyph unicode="&#x2008;" horiz-adv-x="254" />
<glyph unicode="&#x2009;" horiz-adv-x="406" />
<glyph unicode="&#x200a;" horiz-adv-x="112" />
<glyph unicode="&#x2010;" horiz-adv-x="860" d="M129 481v84h602v-84h-602z" />
<glyph unicode="&#x2011;" horiz-adv-x="860" d="M129 481v84h602v-84h-602z" />
<glyph unicode="&#x2012;" horiz-adv-x="860" d="M129 481v84h602v-84h-602z" />
<glyph unicode="&#x2013;" horiz-adv-x="1097" d="M119 483l10 82h848l-10 -82h-848z" />
<glyph unicode="&#x2014;" horiz-adv-x="1603" d="M119 483l10 82h1354l-10 -82h-1354z" />
<glyph unicode="&#x2018;" horiz-adv-x="245" d="M20 1354q0 89 66.5 163t153.5 111l6 -12q-44 -25 -87.5 -78t-43.5 -96q51 -1 80.5 -31t29.5 -72q0 -45 -27 -74.5t-75 -29.5q-49 0 -76 33.5t-27 85.5z" />
<glyph unicode="&#x2019;" horiz-adv-x="368" d="M82 1247q44 25 87.5 78t43.5 96q-51 1 -81 31t-30 72q0 45 27.5 74.5t75.5 29.5q49 0 75.5 -33.5t26.5 -85.5q0 -90 -66 -163.5t-153 -110.5z" />
<glyph unicode="&#x201a;" horiz-adv-x="372" d="M14 -393q101 93 155 198t54 164q-41 3 -68.5 33t-27.5 70q0 44 28 74t76 30q49 0 75 -33t26 -86q0 -99 -91.5 -233.5t-222.5 -222.5z" />
<glyph unicode="&#x201c;" horiz-adv-x="559" d="M20 1354q0 89 66.5 163t153.5 111l6 -12q-44 -25 -87.5 -78t-43.5 -96q51 -1 80.5 -31t29.5 -72q0 -45 -27 -74.5t-75 -29.5q-49 0 -76 33.5t-27 85.5zM334 1354q0 90 66 163.5t153 110.5l6 -12q-44 -25 -87.5 -78t-43.5 -96q51 -1 81 -31t30 -72q0 -45 -27.5 -74.5 t-75.5 -29.5q-49 0 -75.5 33.5t-26.5 85.5z" />
<glyph unicode="&#x201d;" horiz-adv-x="681" d="M82 1247q44 25 87.5 78t43.5 96q-51 1 -81 31t-30 72q0 45 27.5 74.5t75.5 29.5q49 0 75.5 -33.5t26.5 -85.5q0 -90 -66 -163.5t-153 -110.5zM395 1247q44 25 87.5 78t43.5 96q-51 1 -80.5 31t-29.5 72q0 45 27 74.5t75 29.5q49 0 76 -33.5t27 -85.5q0 -89 -66.5 -163 t-153.5 -111z" />
<glyph unicode="&#x201e;" horiz-adv-x="696" d="M14 -393q101 93 155 198t54 164q-41 3 -68.5 33t-27.5 70q0 44 28 74t76 30q49 0 75 -33t26 -86q0 -99 -91.5 -233.5t-222.5 -222.5zM340 -393q101 93 155 198t54 164q-41 3 -68.5 33t-27.5 70q0 44 28 74t76 30q49 0 74.5 -33t25.5 -86q0 -99 -91 -233.5t-222 -222.5z " />
<glyph unicode="&#x2022;" horiz-adv-x="917" d="M125 530q0 135 96.5 231.5t231.5 96.5q144 0 242 -96t98 -232q0 -145 -97.5 -242.5t-242.5 -97.5q-136 0 -232 98t-96 242z" />
<glyph unicode="&#x2026;" horiz-adv-x="1144" d="M82 74q0 43 29.5 72.5t72.5 29.5t73 -29.5t30 -72.5t-30 -73t-73 -30t-72.5 30t-29.5 73zM492 74q0 43 29.5 72.5t72.5 29.5t72.5 -29.5t29.5 -72.5t-29.5 -73t-72.5 -30t-72.5 30t-29.5 73zM899 74q0 43 29.5 72.5t72.5 29.5t73 -29.5t30 -72.5t-30 -73t-73 -30 t-72.5 30t-29.5 73z" />
<glyph unicode="&#x202f;" horiz-adv-x="406" />
<glyph unicode="&#x2039;" horiz-adv-x="608" d="M53 498l2 8l494 426h24l-366 -430l246 -432h-23z" />
<glyph unicode="&#x203a;" horiz-adv-x="608" d="M-4 70l366 432l-247 430h24l375 -426l-2 -8l-496 -428h-20z" />
<glyph unicode="&#x205f;" horiz-adv-x="508" />
<glyph unicode="&#x20ac;" horiz-adv-x="1511" d="M18 571l9 70h172v25q0 108 20 198h-160l11 70h166q35 125 102 229.5t163 184t226 124t281 44.5q155 0 278 -42.5t205 -111.5l-35 -277h-20q-12 199 -122 288t-317 89q-126 0 -234 -40.5t-186 -113t-133 -167t-86 -207.5h516l-10 -70h-522q-20 -97 -20 -207v-16h509 l-8 -70h-499q18 -258 138 -401t339 -143q71 0 130 7.5t126.5 32t120.5 65.5t101.5 113t80.5 169h20l-45 -275q-205 -168 -528 -168q-126 0 -226.5 33t-166.5 88t-112.5 133t-69 163t-29.5 183h-185z" />
<glyph unicode="&#x2122;" horiz-adv-x="1959" d="M39 1417v195h784v-195h-10q-12 79 -55 116.5t-127 37.5h-152v-772q0 -44 17 -59t63 -15h53v-23h-360v23h47q50 0 68 15t18 57v774h-152q-82 0 -126 -37.5t-58 -116.5h-10zM860 702v23h41q41 0 59 27t21 90l27 657q1 48 -30.5 68t-74.5 20v25h197l307 -748l283 748h213 v-25q-44 0 -76 -19.5t-31 -68.5l25 -713q1 -35 16.5 -48t54.5 -13h41v-23h-317v23h39q39 0 55.5 13.5t15.5 47.5l-24 725l-316 -809h-12l-321 773l-25 -635q-3 -64 13 -89.5t65 -25.5h43v-23h-289z" />
<glyph unicode="&#x25fc;" horiz-adv-x="1034" d="M0 0v1034h1034v-1034h-1034z" />
<glyph unicode="&#xfb03;" horiz-adv-x="1761" d="M-408 -442q0 22 15 39.5t43 17.5t46 -13.5t28.5 -32.5t22 -38.5t35.5 -33t60 -13.5q61 0 111.5 24t98.5 81t86 164t63 261l147 926h-198l6 41h198l4 20q20 126 61.5 225.5t91.5 160.5t111 101t117.5 55.5t114.5 15.5q93 0 156 -31t63 -78q0 -61 -59 -61q-27 0 -45 13.5 t-28.5 32.5t-22 38.5t-35.5 33t-60 13.5q-48 0 -88 -14.5t-79.5 -50.5t-72 -95t-63 -152t-55.5 -217l-2 -10h479l16 98q20 126 61.5 225.5t91.5 160.5t111 100.5t117.5 55t114.5 15.5q92 0 155.5 -30t63.5 -74q0 -66 -59 -66q-27 0 -45 13.5t-28.5 33t-22 38.5t-35.5 32.5 t-60 13.5q-61 0 -111.5 -24t-98.5 -81t-85.5 -164t-62.5 -261l-14 -86h534l-151 -842q-11 -59 -8.5 -82.5t20.5 -23.5q41 0 174 170l18 -13q-11 -14 -41 -57t-46 -62.5t-42.5 -47.5t-51.5 -40t-52 -12q-57 0 -76 37.5t-4 124.5l143 807h-424l-149 -938 q-20 -126 -61.5 -225.5t-91.5 -160.5t-111 -100.5t-117.5 -55t-114.5 -15.5q-92 0 -155.5 30t-63.5 74q0 66 60 66q27 0 45 -13.5t28 -32.5t21.5 -38.5t35.5 -33t60 -13.5q61 0 111.5 24t98.5 81t85.5 164t62.5 261l148 926h-479l-150 -938q-20 -126 -61 -225.5t-91 -160.5 t-111.5 -100.5t-117.5 -55t-114 -15.5q-94 0 -157 31.5t-63 81.5z" />
<glyph unicode="&#xfb04;" horiz-adv-x="1701" d="M-408 -442q0 22 15 39.5t43 17.5t46 -13.5t28.5 -32.5t22 -38.5t35.5 -33t60 -13.5q61 0 111.5 24t98.5 81t86 164t63 261l147 926h-198l6 41h198l4 20q20 126 61.5 225.5t91.5 160.5t111 101t117.5 55.5t114.5 15.5q93 0 156 -31t63 -78q0 -61 -59 -61q-27 0 -45 13.5 t-28.5 32.5t-22 38.5t-35.5 33t-60 13.5q-48 0 -88 -14.5t-79.5 -50.5t-72 -95t-63 -152t-55.5 -217l-2 -10h479l16 98q20 126 61.5 225.5t91.5 160.5t111 100.5t117.5 55t114.5 15.5q93 0 165 -26t85 -66l-219 -1405q-10 -59 -8.5 -82.5t18.5 -23.5q43 0 176 170l19 -13 q-11 -15 -34.5 -48t-37 -51.5t-36.5 -44.5t-41 -40t-41.5 -24.5t-47.5 -10.5q-54 0 -71.5 37.5t-4.5 124.5l213 1352q-10 9 -28 31.5t-32.5 38t-42.5 29t-63 13.5q-61 0 -111.5 -24t-98.5 -81t-85.5 -164t-62.5 -261l-14 -86h372l-6 -41h-373l-149 -938 q-20 -126 -61.5 -225.5t-91.5 -160.5t-111 -100.5t-117.5 -55t-114.5 -15.5q-92 0 -155.5 30t-63.5 74q0 66 60 66q27 0 45 -13.5t28 -32.5t21.5 -38.5t35.5 -33t60 -13.5q61 0 111.5 24t98.5 81t85.5 164t62.5 261l148 926h-479l-150 -938q-20 -126 -61 -225.5t-91 -160.5 t-111.5 -100.5t-117.5 -55t-114 -15.5q-94 0 -157 31.5t-63 81.5z" />
</font>
</defs>
</svg>
